<ttFont>
    <TTGlyph name="A" xMin="-50" yMin="0" xMax="551" yMax="625">
      <contour>
        <pt x="150" y="0" on="1"/>
        <pt x="-50" y="0" on="1"/>
        <pt x="213" y="625" on="1"/>
        <pt x="507" y="625" on="1"/>
        <pt x="551" y="0" on="1"/>
        <pt x="350" y="0" on="1"/>
        <pt x="346" y="99" on="1"/>
        <pt x="189" y="99" on="1"/>
      </contour>
      <contour>
        <pt x="321" y="433" on="1"/>
        <pt x="251" y="258" on="1"/>
        <pt x="331" y="258" on="1"/>
        <pt x="331" y="433" on="1"/>
      </contour>
    </TTGlyph>
    <TTGlyph name="AE" xMin="-70" yMin="0" xMax="754" yMax="625">
      <contour>
        <pt x="130" y="0" on="1"/>
        <pt x="-70" y="0" on="1"/>
        <pt x="193" y="625" on="1"/>
        <pt x="754" y="625" on="1"/>
        <pt x="701" y="465" on="1"/>
        <pt x="497" y="465" on="1"/>
        <pt x="504" y="381" on="1"/>
        <pt x="673" y="381" on="1"/>
        <pt x="647" y="236" on="1"/>
        <pt x="514" y="236" on="1"/>
        <pt x="519" y="160" on="1"/>
        <pt x="720" y="160" on="1"/>
        <pt x="692" y="0" on="1"/>
        <pt x="330" y="0" on="1"/>
        <pt x="326" y="99" on="1"/>
        <pt x="169" y="99" on="1"/>
      </contour>
      <contour>
        <pt x="301" y="433" on="1"/>
        <pt x="231" y="258" on="1"/>
        <pt x="311" y="258" on="1"/>
        <pt x="311" y="433" on="1"/>
      </contour>
    </TTGlyph>
    <TTGlyph name="Aacute" xMin="-50" yMin="0" xMax="551" yMax="849">
      <contour>
        <pt x="150" y="0" on="1"/>
        <pt x="-50" y="0" on="1"/>
        <pt x="213" y="625" on="1"/>
        <pt x="507" y="625" on="1"/>
        <pt x="551" y="0" on="1"/>
        <pt x="350" y="0" on="1"/>
        <pt x="346" y="99" on="1"/>
        <pt x="189" y="99" on="1"/>
      </contour>
      <contour>
        <pt x="321" y="433" on="1"/>
        <pt x="251" y="258" on="1"/>
        <pt x="331" y="258" on="1"/>
        <pt x="331" y="433" on="1"/>
      </contour>
      <contour>
        <pt x="451" y="684" on="1"/>
        <pt x="277" y="649" on="1"/>
        <pt x="236" y="706" on="1"/>
        <pt x="425" y="845" on="1"/>
        <pt x="431" y="849" on="0"/>
        <pt x="445" y="849" on="0"/>
        <pt x="454" y="838" on="1"/>
        <pt x="517" y="764" on="1"/>
        <pt x="526" y="754" on="0"/>
        <pt x="526" y="741" on="0"/>
        <pt x="521" y="734" on="0"/>
        <pt x="477" y="696" on="1"/>
        <pt x="467" y="687" on="0"/>
      </contour>
    </TTGlyph>
    <TTGlyph name="Acircumflex" xMin="-50" yMin="0" xMax="551" yMax="864">
      <contour>
        <pt x="150" y="0" on="1"/>
        <pt x="-50" y="0" on="1"/>
        <pt x="213" y="625" on="1"/>
        <pt x="507" y="625" on="1"/>
        <pt x="551" y="0" on="1"/>
        <pt x="350" y="0" on="1"/>
        <pt x="346" y="99" on="1"/>
        <pt x="189" y="99" on="1"/>
      </contour>
      <contour>
        <pt x="321" y="433" on="1"/>
        <pt x="251" y="258" on="1"/>
        <pt x="331" y="258" on="1"/>
        <pt x="331" y="433" on="1"/>
      </contour>
      <contour>
        <pt x="389" y="864" on="1"/>
        <pt x="434" y="864" on="1"/>
        <pt x="442" y="864" on="0"/>
        <pt x="447" y="855" on="1"/>
        <pt x="530" y="710" on="1"/>
        <pt x="464" y="661" on="1"/>
        <pt x="386" y="724" on="1"/>
        <pt x="287" y="661" on="1"/>
        <pt x="239" y="710" on="1"/>
        <pt x="371" y="855" on="1"/>
        <pt x="378" y="864" on="0"/>
      </contour>
    </TTGlyph>
    <TTGlyph name="Adieresis" xMin="-50" yMin="0" xMax="564" yMax="832">
      <contour>
        <pt x="150" y="0" on="1"/>
        <pt x="-50" y="0" on="1"/>
        <pt x="213" y="625" on="1"/>
        <pt x="507" y="625" on="1"/>
        <pt x="551" y="0" on="1"/>
        <pt x="350" y="0" on="1"/>
        <pt x="346" y="99" on="1"/>
        <pt x="189" y="99" on="1"/>
      </contour>
      <contour>
        <pt x="321" y="433" on="1"/>
        <pt x="251" y="258" on="1"/>
        <pt x="331" y="258" on="1"/>
        <pt x="331" y="433" on="1"/>
      </contour>
      <contour>
        <pt x="409" y="783" on="0"/>
        <pt x="450" y="832" on="0"/>
        <pt x="535" y="832" on="0"/>
        <pt x="564" y="810" on="0"/>
        <pt x="564" y="784" on="1"/>
        <pt x="564" y="725" on="0"/>
        <pt x="523" y="676" on="0"/>
        <pt x="438" y="676" on="0"/>
        <pt x="409" y="698" on="0"/>
        <pt x="409" y="724" on="1"/>
      </contour>
      <contour>
        <pt x="201" y="783" on="0"/>
        <pt x="242" y="832" on="0"/>
        <pt x="327" y="832" on="0"/>
        <pt x="356" y="810" on="0"/>
        <pt x="356" y="784" on="1"/>
        <pt x="356" y="725" on="0"/>
        <pt x="314" y="676" on="0"/>
        <pt x="230" y="676" on="0"/>
        <pt x="201" y="698" on="0"/>
        <pt x="201" y="724" on="1"/>
      </contour>
    </TTGlyph>
    <TTGlyph name="Agrave" xMin="-50" yMin="0" xMax="551" yMax="864">
      <contour>
        <pt x="150" y="0" on="1"/>
        <pt x="-50" y="0" on="1"/>
        <pt x="213" y="625" on="1"/>
        <pt x="507" y="625" on="1"/>
        <pt x="551" y="0" on="1"/>
        <pt x="350" y="0" on="1"/>
        <pt x="346" y="99" on="1"/>
        <pt x="189" y="99" on="1"/>
      </contour>
      <contour>
        <pt x="321" y="433" on="1"/>
        <pt x="251" y="258" on="1"/>
        <pt x="331" y="258" on="1"/>
        <pt x="331" y="433" on="1"/>
      </contour>
      <contour>
        <pt x="487" y="664" on="1"/>
        <pt x="313" y="699" on="1"/>
        <pt x="297" y="702" on="0"/>
        <pt x="287" y="711" on="1"/>
        <pt x="242" y="750" on="1"/>
        <pt x="238" y="756" on="0"/>
        <pt x="238" y="768" on="0"/>
        <pt x="247" y="779" on="1"/>
        <pt x="310" y="853" on="1"/>
        <pt x="319" y="864" on="0"/>
        <pt x="333" y="864" on="0"/>
        <pt x="339" y="860" on="1"/>
        <pt x="528" y="721" on="1"/>
      </contour>
    </TTGlyph>
    <TTGlyph name="Aring" xMin="-50" yMin="0" xMax="551" yMax="882">
      <contour>
        <pt x="150" y="0" on="1"/>
        <pt x="-50" y="0" on="1"/>
        <pt x="213" y="625" on="1"/>
        <pt x="507" y="625" on="1"/>
        <pt x="551" y="0" on="1"/>
        <pt x="350" y="0" on="1"/>
        <pt x="346" y="99" on="1"/>
        <pt x="189" y="99" on="1"/>
      </contour>
      <contour>
        <pt x="321" y="433" on="1"/>
        <pt x="251" y="258" on="1"/>
        <pt x="331" y="258" on="1"/>
        <pt x="331" y="433" on="1"/>
      </contour>
      <contour>
        <pt x="347" y="788" on="1"/>
        <pt x="335" y="720" on="1"/>
        <pt x="375" y="720" on="1"/>
        <pt x="402" y="720" on="0"/>
        <pt x="417" y="734" on="0"/>
        <pt x="419" y="746" on="1"/>
        <pt x="431" y="813" on="1"/>
        <pt x="394" y="813" on="1"/>
        <pt x="365" y="813" on="0"/>
        <pt x="349" y="799" on="0"/>
      </contour>
      <contour>
        <pt x="404" y="882" on="1"/>
        <pt x="497" y="882" on="0"/>
        <pt x="497" y="802" on="1"/>
        <pt x="497" y="728" on="0"/>
        <pt x="427" y="651" on="0"/>
        <pt x="363" y="651" on="1"/>
        <pt x="270" y="651" on="0"/>
        <pt x="270" y="731" on="1"/>
        <pt x="270" y="805" on="0"/>
        <pt x="340" y="882" on="0"/>
      </contour>
    </TTGlyph>
    <TTGlyph name="Atilde" xMin="-50" yMin="0" xMax="566" yMax="845">
      <contour>
        <pt x="150" y="0" on="1"/>
        <pt x="-50" y="0" on="1"/>
        <pt x="213" y="625" on="1"/>
        <pt x="507" y="625" on="1"/>
        <pt x="551" y="0" on="1"/>
        <pt x="350" y="0" on="1"/>
        <pt x="346" y="99" on="1"/>
        <pt x="189" y="99" on="1"/>
      </contour>
      <contour>
        <pt x="321" y="433" on="1"/>
        <pt x="251" y="258" on="1"/>
        <pt x="331" y="258" on="1"/>
        <pt x="331" y="433" on="1"/>
      </contour>
      <contour>
        <pt x="447" y="800" on="1"/>
        <pt x="533" y="840" on="1"/>
        <pt x="566" y="759" on="1"/>
        <pt x="437" y="678" on="0"/>
        <pt x="408" y="667" on="0"/>
        <pt x="383" y="667" on="0"/>
        <pt x="367" y="671" on="0"/>
        <pt x="351" y="682" on="0"/>
        <pt x="346" y="686" on="1"/>
        <pt x="338" y="691" on="0"/>
        <pt x="317" y="712" on="1"/>
        <pt x="232" y="672" on="1"/>
        <pt x="198" y="753" on="1"/>
        <pt x="327" y="834" on="0"/>
        <pt x="356" y="845" on="0"/>
        <pt x="381" y="845" on="0"/>
        <pt x="397" y="841" on="0"/>
        <pt x="413" y="830" on="0"/>
        <pt x="418" y="826" on="1"/>
        <pt x="426" y="821" on="0"/>
      </contour>
    </TTGlyph>
    <TTGlyph name="B" xMin="8" yMin="0" xMax="563" yMax="625">
      <contour>
        <pt x="8" y="0" on="1"/>
        <pt x="118" y="625" on="1"/>
        <pt x="426" y="625" on="1"/>
        <pt x="498" y="625" on="0"/>
        <pt x="563" y="575" on="0"/>
        <pt x="563" y="523" on="1"/>
        <pt x="563" y="447" on="0"/>
        <pt x="496" y="349" on="0"/>
        <pt x="448" y="337" on="1"/>
        <pt x="447" y="331" on="1"/>
        <pt x="537" y="314" on="0"/>
        <pt x="537" y="212" on="1"/>
        <pt x="537" y="122" on="0"/>
        <pt x="439" y="0" on="0"/>
        <pt x="350" y="0" on="1"/>
      </contour>
      <contour>
        <pt x="316" y="249" on="1"/>
        <pt x="241" y="249" on="1"/>
        <pt x="223" y="147" on="1"/>
        <pt x="297" y="147" on="1"/>
        <pt x="322" y="147" on="0"/>
        <pt x="348" y="187" on="0"/>
        <pt x="348" y="249" on="0"/>
      </contour>
      <contour>
        <pt x="344" y="488" on="1"/>
        <pt x="284" y="488" on="1"/>
        <pt x="267" y="395" on="1"/>
        <pt x="326" y="395" on="1"/>
        <pt x="372" y="395" on="0"/>
        <pt x="372" y="460" on="1"/>
        <pt x="372" y="488" on="0"/>
      </contour>
    </TTGlyph>
    <TTGlyph name="C" xMin="25" yMin="-15" xMax="529" yMax="640">
      <contour>
        <pt x="438" y="179" on="1"/>
        <pt x="422" y="11" on="1"/>
        <pt x="358" y="-15" on="0"/>
        <pt x="260" y="-15" on="1"/>
        <pt x="134" y="-15" on="0"/>
        <pt x="25" y="83" on="0"/>
        <pt x="25" y="185" on="1"/>
        <pt x="25" y="228" on="0"/>
        <pt x="39" y="312" on="1"/>
        <pt x="69" y="484" on="0"/>
        <pt x="216" y="640" on="0"/>
        <pt x="375" y="640" on="1"/>
        <pt x="412" y="640" on="0"/>
        <pt x="507" y="625" on="0"/>
        <pt x="529" y="614" on="1"/>
        <pt x="473" y="461" on="1"/>
        <pt x="414" y="475" on="0"/>
        <pt x="311" y="475" on="0"/>
        <pt x="267" y="455" on="0"/>
        <pt x="262" y="425" on="1"/>
        <pt x="216" y="163" on="1"/>
        <pt x="252" y="155" on="0"/>
        <pt x="290" y="155" on="1"/>
        <pt x="371" y="155" on="0"/>
      </contour>
    </TTGlyph>
    <TTGlyph name="Ccedilla" xMin="25" yMin="-165" xMax="529" yMax="640">
      <contour>
        <pt x="201" y="-26" on="1"/>
        <pt x="203" y="-12" on="1"/>
        <pt x="108" y="-3" on="0"/>
        <pt x="25" y="95" on="0"/>
        <pt x="25" y="185" on="1"/>
        <pt x="25" y="228" on="0"/>
        <pt x="39" y="312" on="1"/>
        <pt x="69" y="484" on="0"/>
        <pt x="216" y="640" on="0"/>
        <pt x="375" y="640" on="1"/>
        <pt x="412" y="640" on="0"/>
        <pt x="507" y="625" on="0"/>
        <pt x="529" y="614" on="1"/>
        <pt x="473" y="461" on="1"/>
        <pt x="414" y="475" on="0"/>
        <pt x="311" y="475" on="0"/>
        <pt x="267" y="455" on="0"/>
        <pt x="262" y="425" on="1"/>
        <pt x="216" y="163" on="1"/>
        <pt x="252" y="155" on="0"/>
        <pt x="290" y="155" on="1"/>
        <pt x="371" y="155" on="0"/>
        <pt x="438" y="179" on="1"/>
        <pt x="422" y="11" on="1"/>
        <pt x="373" y="-9" on="0"/>
        <pt x="309" y="-13" on="1"/>
        <pt x="324" y="-36" on="0"/>
        <pt x="324" y="-105" on="0"/>
        <pt x="260" y="-165" on="0"/>
        <pt x="153" y="-165" on="0"/>
        <pt x="107" y="-146" on="1"/>
        <pt x="133" y="-58" on="1"/>
        <pt x="164" y="-58" on="1"/>
        <pt x="184" y="-58" on="0"/>
        <pt x="197" y="-47" on="0"/>
      </contour>
    </TTGlyph>
    <TTGlyph name="D" xMin="8" yMin="0" xMax="622" yMax="625">
      <contour>
        <pt x="8" y="0" on="1"/>
        <pt x="118" y="625" on="1"/>
        <pt x="384" y="625" on="1"/>
        <pt x="513" y="625" on="0"/>
        <pt x="622" y="534" on="0"/>
        <pt x="622" y="432" on="1"/>
        <pt x="622" y="380" on="0"/>
        <pt x="610" y="312" on="1"/>
        <pt x="580" y="144" on="0"/>
        <pt x="435" y="0" on="0"/>
        <pt x="274" y="0" on="1"/>
      </contour>
      <contour>
        <pt x="358" y="465" on="1"/>
        <pt x="279" y="465" on="1"/>
        <pt x="226" y="160" on="1"/>
        <pt x="305" y="160" on="1"/>
        <pt x="344" y="160" on="0"/>
        <pt x="382" y="179" on="0"/>
        <pt x="388" y="213" on="1"/>
        <pt x="423" y="412" on="1"/>
        <pt x="424" y="418" on="0"/>
        <pt x="424" y="428" on="1"/>
        <pt x="424" y="451" on="0"/>
        <pt x="392" y="465" on="0"/>
      </contour>
    </TTGlyph>
    <TTGlyph name="Delta" xMin="2" yMin="0" xMax="613" yMax="625">
      <contour>
        <pt x="312" y="625" on="1"/>
        <pt x="505" y="625" on="1"/>
        <pt x="613" y="52" on="1"/>
        <pt x="586" y="0" on="1"/>
        <pt x="12" y="0" on="1"/>
        <pt x="2" y="52" on="1"/>
      </contour>
      <contour>
        <pt x="388" y="178" on="1"/>
        <pt x="354" y="445" on="1"/>
        <pt x="344" y="445" on="1"/>
        <pt x="199" y="150" on="1"/>
        <pt x="356" y="150" on="1"/>
        <pt x="388" y="150" on="0"/>
      </contour>
    </TTGlyph>
    <TTGlyph name="E" xMin="8" yMin="0" xMax="536" yMax="625">
      <contour>
        <pt x="429" y="236" on="1"/>
        <pt x="239" y="236" on="1"/>
        <pt x="226" y="160" on="1"/>
        <pt x="459" y="160" on="1"/>
        <pt x="431" y="0" on="1"/>
        <pt x="8" y="0" on="1"/>
        <pt x="118" y="625" on="1"/>
        <pt x="536" y="625" on="1"/>
        <pt x="484" y="465" on="1"/>
        <pt x="279" y="465" on="1"/>
        <pt x="265" y="381" on="1"/>
        <pt x="455" y="381" on="1"/>
      </contour>
    </TTGlyph>
    <TTGlyph name="Eacute" xMin="8" yMin="0" xMax="536" yMax="849">
      <contour>
        <pt x="429" y="236" on="1"/>
        <pt x="239" y="236" on="1"/>
        <pt x="226" y="160" on="1"/>
        <pt x="459" y="160" on="1"/>
        <pt x="431" y="0" on="1"/>
        <pt x="8" y="0" on="1"/>
        <pt x="118" y="625" on="1"/>
        <pt x="536" y="625" on="1"/>
        <pt x="484" y="465" on="1"/>
        <pt x="279" y="465" on="1"/>
        <pt x="265" y="381" on="1"/>
        <pt x="455" y="381" on="1"/>
      </contour>
      <contour>
        <pt x="407" y="684" on="1"/>
        <pt x="233" y="649" on="1"/>
        <pt x="192" y="706" on="1"/>
        <pt x="381" y="845" on="1"/>
        <pt x="387" y="849" on="0"/>
        <pt x="401" y="849" on="0"/>
        <pt x="410" y="838" on="1"/>
        <pt x="473" y="764" on="1"/>
        <pt x="482" y="754" on="0"/>
        <pt x="482" y="741" on="0"/>
        <pt x="477" y="734" on="0"/>
        <pt x="433" y="696" on="1"/>
        <pt x="423" y="687" on="0"/>
      </contour>
    </TTGlyph>
    <TTGlyph name="Ecircumflex" xMin="8" yMin="0" xMax="536" yMax="864">
      <contour>
        <pt x="429" y="236" on="1"/>
        <pt x="239" y="236" on="1"/>
        <pt x="226" y="160" on="1"/>
        <pt x="459" y="160" on="1"/>
        <pt x="431" y="0" on="1"/>
        <pt x="8" y="0" on="1"/>
        <pt x="118" y="625" on="1"/>
        <pt x="536" y="625" on="1"/>
        <pt x="484" y="465" on="1"/>
        <pt x="279" y="465" on="1"/>
        <pt x="265" y="381" on="1"/>
        <pt x="455" y="381" on="1"/>
      </contour>
      <contour>
        <pt x="388" y="864" on="1"/>
        <pt x="433" y="864" on="1"/>
        <pt x="441" y="864" on="0"/>
        <pt x="446" y="855" on="1"/>
        <pt x="529" y="710" on="1"/>
        <pt x="463" y="661" on="1"/>
        <pt x="385" y="724" on="1"/>
        <pt x="286" y="661" on="1"/>
        <pt x="238" y="710" on="1"/>
        <pt x="370" y="855" on="1"/>
        <pt x="378" y="864" on="0"/>
      </contour>
    </TTGlyph>
    <TTGlyph name="Edieresis" xMin="8" yMin="0" xMax="536" yMax="832">
      <contour>
        <pt x="429" y="236" on="1"/>
        <pt x="239" y="236" on="1"/>
        <pt x="226" y="160" on="1"/>
        <pt x="459" y="160" on="1"/>
        <pt x="431" y="0" on="1"/>
        <pt x="8" y="0" on="1"/>
        <pt x="118" y="625" on="1"/>
        <pt x="536" y="625" on="1"/>
        <pt x="484" y="465" on="1"/>
        <pt x="279" y="465" on="1"/>
        <pt x="265" y="381" on="1"/>
        <pt x="455" y="381" on="1"/>
      </contour>
      <contour>
        <pt x="367" y="783" on="0"/>
        <pt x="408" y="832" on="0"/>
        <pt x="493" y="832" on="0"/>
        <pt x="522" y="810" on="0"/>
        <pt x="522" y="784" on="1"/>
        <pt x="522" y="725" on="0"/>
        <pt x="481" y="676" on="0"/>
        <pt x="396" y="676" on="0"/>
        <pt x="367" y="698" on="0"/>
        <pt x="367" y="724" on="1"/>
      </contour>
      <contour>
        <pt x="159" y="783" on="0"/>
        <pt x="200" y="832" on="0"/>
        <pt x="285" y="832" on="0"/>
        <pt x="314" y="810" on="0"/>
        <pt x="314" y="784" on="1"/>
        <pt x="314" y="725" on="0"/>
        <pt x="272" y="676" on="0"/>
        <pt x="188" y="676" on="0"/>
        <pt x="159" y="698" on="0"/>
        <pt x="159" y="724" on="1"/>
      </contour>
    </TTGlyph>
    <TTGlyph name="Egrave" xMin="8" yMin="0" xMax="536" yMax="864">
      <contour>
        <pt x="429" y="236" on="1"/>
        <pt x="239" y="236" on="1"/>
        <pt x="226" y="160" on="1"/>
        <pt x="459" y="160" on="1"/>
        <pt x="431" y="0" on="1"/>
        <pt x="8" y="0" on="1"/>
        <pt x="118" y="625" on="1"/>
        <pt x="536" y="625" on="1"/>
        <pt x="484" y="465" on="1"/>
        <pt x="279" y="465" on="1"/>
        <pt x="265" y="381" on="1"/>
        <pt x="455" y="381" on="1"/>
      </contour>
      <contour>
        <pt x="444" y="664" on="1"/>
        <pt x="270" y="699" on="1"/>
        <pt x="254" y="702" on="0"/>
        <pt x="244" y="711" on="1"/>
        <pt x="199" y="750" on="1"/>
        <pt x="195" y="756" on="0"/>
        <pt x="195" y="768" on="0"/>
        <pt x="204" y="779" on="1"/>
        <pt x="267" y="853" on="1"/>
        <pt x="276" y="864" on="0"/>
        <pt x="290" y="864" on="0"/>
        <pt x="296" y="860" on="1"/>
        <pt x="485" y="721" on="1"/>
      </contour>
    </TTGlyph>
    <TTGlyph name="Eth" xMin="-15" yMin="0" xMax="622" yMax="625">
      <contour>
        <pt x="8" y="0" on="1"/>
        <pt x="51" y="243" on="1"/>
        <pt x="-15" y="243" on="1"/>
        <pt x="3" y="341" on="1"/>
        <pt x="7" y="363" on="0"/>
        <pt x="32" y="377" on="0"/>
        <pt x="56" y="378" on="1"/>
        <pt x="74" y="378" on="1"/>
        <pt x="118" y="625" on="1"/>
        <pt x="384" y="625" on="1"/>
        <pt x="513" y="625" on="0"/>
        <pt x="622" y="534" on="0"/>
        <pt x="622" y="432" on="1"/>
        <pt x="622" y="380" on="0"/>
        <pt x="610" y="312" on="1"/>
        <pt x="580" y="144" on="0"/>
        <pt x="435" y="0" on="0"/>
        <pt x="274" y="0" on="1"/>
      </contour>
      <contour>
        <pt x="358" y="465" on="1"/>
        <pt x="279" y="465" on="1"/>
        <pt x="264" y="378" on="1"/>
        <pt x="342" y="378" on="1"/>
        <pt x="325" y="281" on="1"/>
        <pt x="321" y="257" on="0"/>
        <pt x="290" y="243" on="0"/>
        <pt x="260" y="243" on="1"/>
        <pt x="240" y="243" on="1"/>
        <pt x="226" y="160" on="1"/>
        <pt x="305" y="160" on="1"/>
        <pt x="344" y="160" on="0"/>
        <pt x="382" y="179" on="0"/>
        <pt x="388" y="213" on="1"/>
        <pt x="423" y="412" on="1"/>
        <pt x="424" y="418" on="0"/>
        <pt x="424" y="428" on="1"/>
        <pt x="424" y="451" on="0"/>
        <pt x="392" y="465" on="0"/>
      </contour>
    </TTGlyph>
    <TTGlyph name="Euro" xMin="8" yMin="-15" xMax="564" yMax="640">
      <contour>
        <pt x="411" y="206" on="1"/>
        <pt x="259" y="206" on="1"/>
        <pt x="247" y="153" on="1"/>
        <pt x="283" y="145" on="0"/>
        <pt x="321" y="145" on="1"/>
        <pt x="398" y="145" on="0"/>
        <pt x="465" y="169" on="1"/>
        <pt x="445" y="11" on="1"/>
        <pt x="381" y="-15" on="0"/>
        <pt x="157" y="-15" on="0"/>
        <pt x="53" y="67" on="0"/>
        <pt x="53" y="165" on="1"/>
        <pt x="53" y="176" on="0"/>
        <pt x="55" y="206" on="1"/>
        <pt x="8" y="206" on="1"/>
        <pt x="29" y="288" on="1"/>
        <pt x="432" y="288" on="1"/>
      </contour>
      <contour>
        <pt x="447" y="338" on="1"/>
        <pt x="45" y="338" on="1"/>
        <pt x="66" y="420" on="1"/>
        <pt x="106" y="420" on="1"/>
        <pt x="144" y="539" on="0"/>
        <pt x="290" y="640" on="0"/>
        <pt x="426" y="640" on="1"/>
        <pt x="494" y="640" on="0"/>
        <pt x="564" y="621" on="1"/>
        <pt x="511" y="475" on="1"/>
        <pt x="383" y="475" on="1"/>
        <pt x="364" y="475" on="0"/>
        <pt x="340" y="470" on="0"/>
        <pt x="328" y="458" on="1"/>
        <pt x="314" y="445" on="0"/>
        <pt x="310" y="420" on="1"/>
        <pt x="469" y="420" on="1"/>
      </contour>
    </TTGlyph>
    <TTGlyph name="F" xMin="8" yMin="0" xMax="508" yMax="625">
      <contour>
        <pt x="400" y="232" on="1"/>
        <pt x="238" y="232" on="1"/>
        <pt x="198" y="0" on="1"/>
        <pt x="8" y="0" on="1"/>
        <pt x="118" y="625" on="1"/>
        <pt x="508" y="625" on="1"/>
        <pt x="455" y="465" on="1"/>
        <pt x="279" y="465" on="1"/>
        <pt x="265" y="381" on="1"/>
        <pt x="427" y="381" on="1"/>
      </contour>
    </TTGlyph>
    <TTGlyph name="G" xMin="25" yMin="-15" xMax="576" yMax="640">
      <contour>
        <pt x="348" y="184" on="1"/>
        <pt x="353" y="211" on="1"/>
        <pt x="305" y="211" on="1"/>
        <pt x="332" y="364" on="1"/>
        <pt x="561" y="364" on="1"/>
        <pt x="502" y="30" on="1"/>
        <pt x="380" y="-15" on="0"/>
        <pt x="134" y="-15" on="0"/>
        <pt x="25" y="83" on="0"/>
        <pt x="25" y="185" on="1"/>
        <pt x="25" y="228" on="0"/>
        <pt x="39" y="312" on="1"/>
        <pt x="69" y="486" on="0"/>
        <pt x="221" y="640" on="0"/>
        <pt x="397" y="640" on="1"/>
        <pt x="434" y="640" on="0"/>
        <pt x="549" y="624" on="0"/>
        <pt x="576" y="614" on="1"/>
        <pt x="521" y="461" on="1"/>
        <pt x="446" y="475" on="0"/>
        <pt x="321" y="475" on="0"/>
        <pt x="267" y="455" on="0"/>
        <pt x="262" y="425" on="1"/>
        <pt x="213" y="142" on="1"/>
        <pt x="276" y="142" on="1"/>
        <pt x="310" y="142" on="0"/>
        <pt x="343" y="157" on="0"/>
      </contour>
    </TTGlyph>
    <TTGlyph name="H" xMin="8" yMin="0" xMax="641" yMax="625">
      <contour>
        <pt x="341" y="0" on="1"/>
        <pt x="379" y="221" on="1"/>
        <pt x="236" y="221" on="1"/>
        <pt x="198" y="0" on="1"/>
        <pt x="8" y="0" on="1"/>
        <pt x="118" y="625" on="1"/>
        <pt x="308" y="625" on="1"/>
        <pt x="269" y="404" on="1"/>
        <pt x="412" y="404" on="1"/>
        <pt x="451" y="625" on="1"/>
        <pt x="641" y="625" on="1"/>
        <pt x="531" y="0" on="1"/>
      </contour>
    </TTGlyph>
    <TTGlyph name="I" xMin="0" yMin="0" xMax="300" yMax="625">
      <contour>
        <pt x="0" y="0" on="1"/>
        <pt x="110" y="625" on="1"/>
        <pt x="300" y="625" on="1"/>
        <pt x="190" y="0" on="1"/>
      </contour>
    </TTGlyph>
    <TTGlyph name="Iacute" xMin="0" yMin="0" xMax="371" yMax="849">
      <contour>
        <pt x="0" y="0" on="1"/>
        <pt x="110" y="625" on="1"/>
        <pt x="300" y="625" on="1"/>
        <pt x="190" y="0" on="1"/>
      </contour>
      <contour>
        <pt x="296" y="684" on="1"/>
        <pt x="122" y="649" on="1"/>
        <pt x="81" y="706" on="1"/>
        <pt x="270" y="845" on="1"/>
        <pt x="276" y="849" on="0"/>
        <pt x="290" y="849" on="0"/>
        <pt x="299" y="838" on="1"/>
        <pt x="362" y="764" on="1"/>
        <pt x="371" y="754" on="0"/>
        <pt x="371" y="741" on="0"/>
        <pt x="366" y="734" on="0"/>
        <pt x="322" y="696" on="1"/>
        <pt x="312" y="687" on="0"/>
      </contour>
    </TTGlyph>
    <TTGlyph name="Icircumflex" xMin="0" yMin="0" xMax="375" yMax="864">
      <contour>
        <pt x="0" y="0" on="1"/>
        <pt x="110" y="625" on="1"/>
        <pt x="300" y="625" on="1"/>
        <pt x="190" y="0" on="1"/>
      </contour>
      <contour>
        <pt x="234" y="864" on="1"/>
        <pt x="279" y="864" on="1"/>
        <pt x="287" y="864" on="0"/>
        <pt x="292" y="855" on="1"/>
        <pt x="375" y="710" on="1"/>
        <pt x="309" y="661" on="1"/>
        <pt x="231" y="724" on="1"/>
        <pt x="132" y="661" on="1"/>
        <pt x="84" y="710" on="1"/>
        <pt x="216" y="855" on="1"/>
        <pt x="224" y="864" on="0"/>
      </contour>
    </TTGlyph>
    <TTGlyph name="Idieresis" xMin="0" yMin="0" xMax="409" yMax="832">
      <contour>
        <pt x="0" y="0" on="1"/>
        <pt x="110" y="625" on="1"/>
        <pt x="300" y="625" on="1"/>
        <pt x="190" y="0" on="1"/>
      </contour>
      <contour>
        <pt x="254" y="783" on="0"/>
        <pt x="295" y="832" on="0"/>
        <pt x="380" y="832" on="0"/>
        <pt x="409" y="810" on="0"/>
        <pt x="409" y="784" on="1"/>
        <pt x="409" y="725" on="0"/>
        <pt x="368" y="676" on="0"/>
        <pt x="283" y="676" on="0"/>
        <pt x="254" y="698" on="0"/>
        <pt x="254" y="724" on="1"/>
      </contour>
      <contour>
        <pt x="46" y="783" on="0"/>
        <pt x="87" y="832" on="0"/>
        <pt x="172" y="832" on="0"/>
        <pt x="201" y="810" on="0"/>
        <pt x="201" y="784" on="1"/>
        <pt x="201" y="725" on="0"/>
        <pt x="159" y="676" on="0"/>
        <pt x="75" y="676" on="0"/>
        <pt x="46" y="698" on="0"/>
        <pt x="46" y="724" on="1"/>
      </contour>
    </TTGlyph>
    <TTGlyph name="Igrave" xMin="0" yMin="0" xMax="374" yMax="864">
      <contour>
        <pt x="0" y="0" on="1"/>
        <pt x="110" y="625" on="1"/>
        <pt x="300" y="625" on="1"/>
        <pt x="190" y="0" on="1"/>
      </contour>
      <contour>
        <pt x="333" y="664" on="1"/>
        <pt x="159" y="699" on="1"/>
        <pt x="143" y="702" on="0"/>
        <pt x="133" y="711" on="1"/>
        <pt x="88" y="750" on="1"/>
        <pt x="84" y="756" on="0"/>
        <pt x="84" y="768" on="0"/>
        <pt x="93" y="779" on="1"/>
        <pt x="156" y="853" on="1"/>
        <pt x="165" y="864" on="0"/>
        <pt x="179" y="864" on="0"/>
        <pt x="185" y="860" on="1"/>
        <pt x="374" y="721" on="1"/>
      </contour>
    </TTGlyph>
    <TTGlyph name="J" xMin="-23" yMin="0" xMax="382" yMax="625">
      <contour>
        <pt x="-23" y="0" on="1"/>
        <pt x="-14" y="160" on="1"/>
        <pt x="65" y="160" on="1"/>
        <pt x="94" y="160" on="0"/>
        <pt x="113" y="177" on="0"/>
        <pt x="115" y="190" on="1"/>
        <pt x="163" y="465" on="1"/>
        <pt x="85" y="465" on="1"/>
        <pt x="114" y="625" on="1"/>
        <pt x="382" y="625" on="1"/>
        <pt x="301" y="165" on="1"/>
        <pt x="287" y="84" on="0"/>
        <pt x="196" y="0" on="0"/>
        <pt x="125" y="0" on="1"/>
      </contour>
    </TTGlyph>
    <TTGlyph name="K" xMin="8" yMin="0" xMax="620" yMax="625">
      <contour>
        <pt x="252" y="253" on="1"/>
        <pt x="253" y="272" on="1"/>
        <pt x="245" y="272" on="1"/>
        <pt x="198" y="0" on="1"/>
        <pt x="8" y="0" on="1"/>
        <pt x="118" y="625" on="1"/>
        <pt x="308" y="625" on="1"/>
        <pt x="263" y="370" on="1"/>
        <pt x="271" y="370" on="1"/>
        <pt x="279" y="402" on="0"/>
        <pt x="289" y="418" on="1"/>
        <pt x="415" y="625" on="1"/>
        <pt x="620" y="625" on="1"/>
        <pt x="424" y="318" on="1"/>
        <pt x="515" y="0" on="1"/>
        <pt x="310" y="0" on="1"/>
        <pt x="255" y="224" on="1"/>
        <pt x="252" y="234" on="0"/>
      </contour>
    </TTGlyph>
    <TTGlyph name="L" xMin="8" yMin="0" xMax="416" yMax="625">
      <contour>
        <pt x="388" y="0" on="1"/>
        <pt x="8" y="0" on="1"/>
        <pt x="118" y="625" on="1"/>
        <pt x="308" y="625" on="1"/>
        <pt x="226" y="160" on="1"/>
        <pt x="416" y="160" on="1"/>
      </contour>
    </TTGlyph>
    <TTGlyph name="Lslash" xMin="-28" yMin="0" xMax="416" yMax="625">
      <contour>
        <pt x="5" y="220" on="1"/>
        <pt x="-28" y="321" on="0"/>
        <pt x="-28" y="328" on="1"/>
        <pt x="-28" y="351" on="0"/>
        <pt x="22" y="367" on="1"/>
        <pt x="76" y="384" on="1"/>
        <pt x="118" y="625" on="1"/>
        <pt x="308" y="625" on="1"/>
        <pt x="277" y="450" on="1"/>
        <pt x="324" y="466" on="1"/>
        <pt x="356" y="365" on="0"/>
        <pt x="356" y="354" on="1"/>
        <pt x="356" y="334" on="0"/>
        <pt x="306" y="318" on="1"/>
        <pt x="250" y="300" on="1"/>
        <pt x="226" y="160" on="1"/>
        <pt x="416" y="160" on="1"/>
        <pt x="388" y="0" on="1"/>
        <pt x="8" y="0" on="1"/>
        <pt x="49" y="234" on="1"/>
      </contour>
    </TTGlyph>
    <TTGlyph name="M" xMin="-10" yMin="0" xMax="787" yMax="625">
      <contour>
        <pt x="188" y="0" on="1"/>
        <pt x="-10" y="0" on="1"/>
        <pt x="136" y="625" on="1"/>
        <pt x="384" y="625" on="1"/>
        <pt x="402" y="307" on="1"/>
        <pt x="409" y="307" on="1"/>
        <pt x="539" y="625" on="1"/>
        <pt x="787" y="625" on="1"/>
        <pt x="713" y="0" on="1"/>
        <pt x="514" y="0" on="1"/>
        <pt x="556" y="303" on="1"/>
        <pt x="549" y="303" on="1"/>
        <pt x="424" y="0" on="1"/>
        <pt x="279" y="0" on="1"/>
        <pt x="258" y="303" on="1"/>
        <pt x="253" y="303" on="1"/>
      </contour>
    </TTGlyph>
    <TTGlyph name="N" xMin="8" yMin="0" xMax="646" yMax="625">
      <contour>
        <pt x="357" y="0" on="1"/>
        <pt x="255" y="222" on="1"/>
        <pt x="251" y="229" on="0"/>
        <pt x="251" y="254" on="0"/>
        <pt x="253" y="270" on="1"/>
        <pt x="245" y="270" on="1"/>
        <pt x="198" y="0" on="1"/>
        <pt x="8" y="0" on="1"/>
        <pt x="118" y="625" on="1"/>
        <pt x="297" y="625" on="1"/>
        <pt x="399" y="403" on="1"/>
        <pt x="402" y="396" on="0"/>
        <pt x="402" y="371" on="0"/>
        <pt x="400" y="355" on="1"/>
        <pt x="408" y="355" on="1"/>
        <pt x="456" y="625" on="1"/>
        <pt x="646" y="625" on="1"/>
        <pt x="536" y="0" on="1"/>
      </contour>
    </TTGlyph>
    <TTGlyph name="Ntilde" xMin="8" yMin="0" xMax="646" yMax="845">
      <contour>
        <pt x="357" y="0" on="1"/>
        <pt x="255" y="222" on="1"/>
        <pt x="251" y="229" on="0"/>
        <pt x="251" y="254" on="0"/>
        <pt x="253" y="270" on="1"/>
        <pt x="245" y="270" on="1"/>
        <pt x="198" y="0" on="1"/>
        <pt x="8" y="0" on="1"/>
        <pt x="118" y="625" on="1"/>
        <pt x="297" y="625" on="1"/>
        <pt x="399" y="403" on="1"/>
        <pt x="402" y="396" on="0"/>
        <pt x="402" y="371" on="0"/>
        <pt x="400" y="355" on="1"/>
        <pt x="408" y="355" on="1"/>
        <pt x="456" y="625" on="1"/>
        <pt x="646" y="625" on="1"/>
        <pt x="536" y="0" on="1"/>
      </contour>
      <contour>
        <pt x="466" y="800" on="1"/>
        <pt x="552" y="840" on="1"/>
        <pt x="585" y="759" on="1"/>
        <pt x="456" y="678" on="0"/>
        <pt x="427" y="667" on="0"/>
        <pt x="402" y="667" on="0"/>
        <pt x="386" y="671" on="0"/>
        <pt x="370" y="682" on="0"/>
        <pt x="365" y="686" on="1"/>
        <pt x="357" y="691" on="0"/>
        <pt x="336" y="712" on="1"/>
        <pt x="251" y="672" on="1"/>
        <pt x="217" y="753" on="1"/>
        <pt x="346" y="834" on="0"/>
        <pt x="375" y="845" on="0"/>
        <pt x="400" y="845" on="0"/>
        <pt x="416" y="841" on="0"/>
        <pt x="432" y="830" on="0"/>
        <pt x="437" y="826" on="1"/>
        <pt x="445" y="821" on="0"/>
      </contour>
    </TTGlyph>
    <TTGlyph name="O" xMin="22" yMin="-15" xMax="607" yMax="640">
      <contour>
        <pt x="257" y="416" on="1"/>
        <pt x="211" y="156" on="1"/>
        <pt x="290" y="156" on="1"/>
        <pt x="329" y="156" on="0"/>
        <pt x="367" y="175" on="0"/>
        <pt x="373" y="209" on="1"/>
        <pt x="419" y="469" on="1"/>
        <pt x="339" y="469" on="1"/>
        <pt x="301" y="469" on="0"/>
        <pt x="263" y="450" on="0"/>
      </contour>
      <contour>
        <pt x="372" y="640" on="1"/>
        <pt x="499" y="640" on="0"/>
        <pt x="607" y="541" on="0"/>
        <pt x="607" y="335" on="0"/>
        <pt x="542" y="110" on="0"/>
        <pt x="401" y="-15" on="0"/>
        <pt x="130" y="-15" on="0"/>
        <pt x="22" y="84" on="0"/>
        <pt x="22" y="187" on="1"/>
        <pt x="22" y="236" on="0"/>
        <pt x="50" y="397" on="0"/>
        <pt x="96" y="514" on="0"/>
        <pt x="135" y="557" on="1"/>
        <pt x="210" y="640" on="0"/>
      </contour>
    </TTGlyph>
    <TTGlyph name="OE" xMin="22" yMin="-15" xMax="846" yMax="640">
      <contour>
        <pt x="741" y="0" on="1"/>
        <pt x="380" y="0" on="1"/>
        <pt x="328" y="-15" on="0"/>
        <pt x="257" y="-15" on="1"/>
        <pt x="130" y="-15" on="0"/>
        <pt x="22" y="84" on="0"/>
        <pt x="22" y="187" on="1"/>
        <pt x="22" y="236" on="0"/>
        <pt x="50" y="397" on="0"/>
        <pt x="96" y="514" on="0"/>
        <pt x="135" y="557" on="1"/>
        <pt x="210" y="640" on="0"/>
        <pt x="372" y="640" on="1"/>
        <pt x="442" y="640" on="0"/>
        <pt x="490" y="625" on="1"/>
        <pt x="846" y="625" on="1"/>
        <pt x="793" y="465" on="1"/>
        <pt x="608" y="465" on="1"/>
        <pt x="594" y="381" on="1"/>
        <pt x="765" y="381" on="1"/>
        <pt x="739" y="236" on="1"/>
        <pt x="568" y="236" on="1"/>
        <pt x="555" y="160" on="1"/>
        <pt x="769" y="160" on="1"/>
      </contour>
      <contour>
        <pt x="257" y="416" on="1"/>
        <pt x="211" y="156" on="1"/>
        <pt x="290" y="156" on="1"/>
        <pt x="346" y="156" on="0"/>
        <pt x="361" y="176" on="1"/>
        <pt x="368" y="186" on="0"/>
        <pt x="372" y="202" on="1"/>
        <pt x="419" y="469" on="1"/>
        <pt x="339" y="469" on="1"/>
        <pt x="301" y="469" on="0"/>
        <pt x="263" y="450" on="0"/>
      </contour>
    </TTGlyph>
    <TTGlyph name="Oacute" xMin="22" yMin="-15" xMax="607" yMax="849">
      <contour>
        <pt x="257" y="416" on="1"/>
        <pt x="211" y="156" on="1"/>
        <pt x="290" y="156" on="1"/>
        <pt x="329" y="156" on="0"/>
        <pt x="367" y="175" on="0"/>
        <pt x="373" y="209" on="1"/>
        <pt x="419" y="469" on="1"/>
        <pt x="339" y="469" on="1"/>
        <pt x="301" y="469" on="0"/>
        <pt x="263" y="450" on="0"/>
      </contour>
      <contour>
        <pt x="372" y="640" on="1"/>
        <pt x="499" y="640" on="0"/>
        <pt x="607" y="541" on="0"/>
        <pt x="607" y="335" on="0"/>
        <pt x="542" y="110" on="0"/>
        <pt x="401" y="-15" on="0"/>
        <pt x="130" y="-15" on="0"/>
        <pt x="22" y="84" on="0"/>
        <pt x="22" y="187" on="1"/>
        <pt x="22" y="236" on="0"/>
        <pt x="50" y="397" on="0"/>
        <pt x="96" y="514" on="0"/>
        <pt x="135" y="557" on="1"/>
        <pt x="210" y="640" on="0"/>
      </contour>
      <contour>
        <pt x="461" y="684" on="1"/>
        <pt x="287" y="649" on="1"/>
        <pt x="246" y="706" on="1"/>
        <pt x="435" y="845" on="1"/>
        <pt x="441" y="849" on="0"/>
        <pt x="455" y="849" on="0"/>
        <pt x="464" y="838" on="1"/>
        <pt x="527" y="764" on="1"/>
        <pt x="536" y="754" on="0"/>
        <pt x="536" y="741" on="0"/>
        <pt x="531" y="734" on="0"/>
        <pt x="487" y="696" on="1"/>
        <pt x="477" y="687" on="0"/>
      </contour>
    </TTGlyph>
    <TTGlyph name="Ocircumflex" xMin="22" yMin="-15" xMax="607" yMax="864">
      <contour>
        <pt x="257" y="416" on="1"/>
        <pt x="211" y="156" on="1"/>
        <pt x="290" y="156" on="1"/>
        <pt x="329" y="156" on="0"/>
        <pt x="367" y="175" on="0"/>
        <pt x="373" y="209" on="1"/>
        <pt x="419" y="469" on="1"/>
        <pt x="339" y="469" on="1"/>
        <pt x="301" y="469" on="0"/>
        <pt x="263" y="450" on="0"/>
      </contour>
      <contour>
        <pt x="372" y="640" on="1"/>
        <pt x="499" y="640" on="0"/>
        <pt x="607" y="541" on="0"/>
        <pt x="607" y="335" on="0"/>
        <pt x="542" y="110" on="0"/>
        <pt x="401" y="-15" on="0"/>
        <pt x="130" y="-15" on="0"/>
        <pt x="22" y="84" on="0"/>
        <pt x="22" y="187" on="1"/>
        <pt x="22" y="236" on="0"/>
        <pt x="50" y="397" on="0"/>
        <pt x="96" y="514" on="0"/>
        <pt x="135" y="557" on="1"/>
        <pt x="210" y="640" on="0"/>
      </contour>
      <contour>
        <pt x="398" y="864" on="1"/>
        <pt x="443" y="864" on="1"/>
        <pt x="451" y="864" on="0"/>
        <pt x="456" y="855" on="1"/>
        <pt x="539" y="710" on="1"/>
        <pt x="473" y="661" on="1"/>
        <pt x="395" y="724" on="1"/>
        <pt x="296" y="661" on="1"/>
        <pt x="248" y="710" on="1"/>
        <pt x="380" y="855" on="1"/>
        <pt x="388" y="864" on="0"/>
      </contour>
    </TTGlyph>
    <TTGlyph name="Odieresis" xMin="22" yMin="-15" xMax="607" yMax="832">
      <contour>
        <pt x="257" y="416" on="1"/>
        <pt x="211" y="156" on="1"/>
        <pt x="290" y="156" on="1"/>
        <pt x="329" y="156" on="0"/>
        <pt x="367" y="175" on="0"/>
        <pt x="373" y="209" on="1"/>
        <pt x="419" y="469" on="1"/>
        <pt x="339" y="469" on="1"/>
        <pt x="301" y="469" on="0"/>
        <pt x="263" y="450" on="0"/>
      </contour>
      <contour>
        <pt x="372" y="640" on="1"/>
        <pt x="499" y="640" on="0"/>
        <pt x="607" y="541" on="0"/>
        <pt x="607" y="335" on="0"/>
        <pt x="542" y="110" on="0"/>
        <pt x="401" y="-15" on="0"/>
        <pt x="130" y="-15" on="0"/>
        <pt x="22" y="84" on="0"/>
        <pt x="22" y="187" on="1"/>
        <pt x="22" y="236" on="0"/>
        <pt x="50" y="397" on="0"/>
        <pt x="96" y="514" on="0"/>
        <pt x="135" y="557" on="1"/>
        <pt x="210" y="640" on="0"/>
      </contour>
      <contour>
        <pt x="420" y="783" on="0"/>
        <pt x="461" y="832" on="0"/>
        <pt x="546" y="832" on="0"/>
        <pt x="575" y="810" on="0"/>
        <pt x="575" y="784" on="1"/>
        <pt x="575" y="725" on="0"/>
        <pt x="534" y="676" on="0"/>
        <pt x="449" y="676" on="0"/>
        <pt x="420" y="698" on="0"/>
        <pt x="420" y="724" on="1"/>
      </contour>
      <contour>
        <pt x="212" y="783" on="0"/>
        <pt x="253" y="832" on="0"/>
        <pt x="338" y="832" on="0"/>
        <pt x="367" y="810" on="0"/>
        <pt x="367" y="784" on="1"/>
        <pt x="367" y="725" on="0"/>
        <pt x="325" y="676" on="0"/>
        <pt x="241" y="676" on="0"/>
        <pt x="212" y="698" on="0"/>
        <pt x="212" y="724" on="1"/>
      </contour>
    </TTGlyph>
    <TTGlyph name="Ograve" xMin="22" yMin="-15" xMax="607" yMax="864">
      <contour>
        <pt x="257" y="416" on="1"/>
        <pt x="211" y="156" on="1"/>
        <pt x="290" y="156" on="1"/>
        <pt x="329" y="156" on="0"/>
        <pt x="367" y="175" on="0"/>
        <pt x="373" y="209" on="1"/>
        <pt x="419" y="469" on="1"/>
        <pt x="339" y="469" on="1"/>
        <pt x="301" y="469" on="0"/>
        <pt x="263" y="450" on="0"/>
      </contour>
      <contour>
        <pt x="372" y="640" on="1"/>
        <pt x="499" y="640" on="0"/>
        <pt x="607" y="541" on="0"/>
        <pt x="607" y="335" on="0"/>
        <pt x="542" y="110" on="0"/>
        <pt x="401" y="-15" on="0"/>
        <pt x="130" y="-15" on="0"/>
        <pt x="22" y="84" on="0"/>
        <pt x="22" y="187" on="1"/>
        <pt x="22" y="236" on="0"/>
        <pt x="50" y="397" on="0"/>
        <pt x="96" y="514" on="0"/>
        <pt x="135" y="557" on="1"/>
        <pt x="210" y="640" on="0"/>
      </contour>
      <contour>
        <pt x="497" y="664" on="1"/>
        <pt x="323" y="699" on="1"/>
        <pt x="307" y="702" on="0"/>
        <pt x="297" y="711" on="1"/>
        <pt x="252" y="750" on="1"/>
        <pt x="248" y="756" on="0"/>
        <pt x="248" y="768" on="0"/>
        <pt x="257" y="779" on="1"/>
        <pt x="320" y="853" on="1"/>
        <pt x="329" y="864" on="0"/>
        <pt x="343" y="864" on="0"/>
        <pt x="349" y="860" on="1"/>
        <pt x="538" y="721" on="1"/>
      </contour>
    </TTGlyph>
    <TTGlyph name="Omega" xMin="-24" yMin="0" xMax="678" yMax="640">
      <contour>
        <pt x="294" y="250" on="1"/>
        <pt x="236" y="0" on="1"/>
        <pt x="-24" y="0" on="1"/>
        <pt x="1" y="143" on="1"/>
        <pt x="145" y="152" on="1"/>
        <pt x="153" y="166" on="1"/>
        <pt x="50" y="207" on="0"/>
        <pt x="50" y="313" on="1"/>
        <pt x="50" y="471" on="0"/>
        <pt x="233" y="640" on="0"/>
        <pt x="409" y="640" on="1"/>
        <pt x="556" y="640" on="0"/>
        <pt x="678" y="538" on="0"/>
        <pt x="678" y="447" on="1"/>
        <pt x="678" y="227" on="0"/>
        <pt x="495" y="164" on="1"/>
        <pt x="499" y="152" on="1"/>
        <pt x="641" y="143" on="1"/>
        <pt x="616" y="0" on="1"/>
        <pt x="356" y="0" on="1"/>
        <pt x="386" y="250" on="1"/>
        <pt x="410" y="250" on="0"/>
        <pt x="436" y="254" on="0"/>
        <pt x="460" y="274" on="0"/>
        <pt x="463" y="293" on="1"/>
        <pt x="496" y="480" on="1"/>
        <pt x="334" y="480" on="1"/>
        <pt x="297" y="480" on="0"/>
        <pt x="260" y="462" on="0"/>
        <pt x="255" y="430" on="1"/>
        <pt x="232" y="300" on="1"/>
        <pt x="231" y="295" on="0"/>
        <pt x="231" y="286" on="1"/>
        <pt x="231" y="263" on="0"/>
        <pt x="261" y="250" on="0"/>
      </contour>
    </TTGlyph>
    <TTGlyph name="Oslash" xMin="22" yMin="-79" xMax="607" yMax="704">
      <contour>
        <pt x="174" y="600" on="0"/>
        <pt x="290" y="640" on="0"/>
        <pt x="415" y="640" on="0"/>
        <pt x="451" y="634" on="1"/>
        <pt x="477" y="679" on="1"/>
        <pt x="482" y="689" on="0"/>
        <pt x="486" y="693" on="1"/>
        <pt x="497" y="704" on="0"/>
        <pt x="520" y="704" on="1"/>
        <pt x="591" y="704" on="1"/>
        <pt x="533" y="605" on="1"/>
        <pt x="607" y="558" on="0"/>
        <pt x="607" y="438" on="1"/>
        <pt x="607" y="335" on="0"/>
        <pt x="542" y="110" on="0"/>
        <pt x="401" y="-15" on="0"/>
        <pt x="257" y="-15" on="1"/>
        <pt x="213" y="-15" on="0"/>
        <pt x="178" y="-9" on="1"/>
        <pt x="152" y="-54" on="1"/>
        <pt x="147" y="-64" on="0"/>
        <pt x="143" y="-68" on="1"/>
        <pt x="132" y="-79" on="0"/>
        <pt x="109" y="-79" on="1"/>
        <pt x="38" y="-79" on="1"/>
        <pt x="95" y="20" on="1"/>
        <pt x="22" y="66" on="0"/>
        <pt x="22" y="187" on="1"/>
        <pt x="22" y="236" on="0"/>
        <pt x="50" y="397" on="0"/>
        <pt x="96" y="514" on="0"/>
      </contour>
      <contour>
        <pt x="250" y="156" on="1"/>
        <pt x="290" y="156" on="1"/>
        <pt x="329" y="156" on="0"/>
        <pt x="367" y="175" on="0"/>
        <pt x="373" y="209" on="1"/>
        <pt x="414" y="443" on="1"/>
      </contour>
      <contour>
        <pt x="257" y="416" on="1"/>
        <pt x="216" y="186" on="1"/>
        <pt x="378" y="469" on="1"/>
        <pt x="339" y="469" on="1"/>
        <pt x="301" y="469" on="0"/>
        <pt x="263" y="450" on="0"/>
      </contour>
    </TTGlyph>
    <TTGlyph name="Otilde" xMin="22" yMin="-15" xMax="607" yMax="845">
      <contour>
        <pt x="257" y="416" on="1"/>
        <pt x="211" y="156" on="1"/>
        <pt x="290" y="156" on="1"/>
        <pt x="329" y="156" on="0"/>
        <pt x="367" y="175" on="0"/>
        <pt x="373" y="209" on="1"/>
        <pt x="419" y="469" on="1"/>
        <pt x="339" y="469" on="1"/>
        <pt x="301" y="469" on="0"/>
        <pt x="263" y="450" on="0"/>
      </contour>
      <contour>
        <pt x="372" y="640" on="1"/>
        <pt x="499" y="640" on="0"/>
        <pt x="607" y="541" on="0"/>
        <pt x="607" y="335" on="0"/>
        <pt x="542" y="110" on="0"/>
        <pt x="401" y="-15" on="0"/>
        <pt x="130" y="-15" on="0"/>
        <pt x="22" y="84" on="0"/>
        <pt x="22" y="187" on="1"/>
        <pt x="22" y="236" on="0"/>
        <pt x="50" y="397" on="0"/>
        <pt x="96" y="514" on="0"/>
        <pt x="135" y="557" on="1"/>
        <pt x="210" y="640" on="0"/>
      </contour>
      <contour>
        <pt x="458" y="800" on="1"/>
        <pt x="544" y="840" on="1"/>
        <pt x="577" y="759" on="1"/>
        <pt x="448" y="678" on="0"/>
        <pt x="419" y="667" on="0"/>
        <pt x="394" y="667" on="0"/>
        <pt x="378" y="671" on="0"/>
        <pt x="362" y="682" on="0"/>
        <pt x="357" y="686" on="1"/>
        <pt x="349" y="691" on="0"/>
        <pt x="328" y="712" on="1"/>
        <pt x="243" y="672" on="1"/>
        <pt x="209" y="753" on="1"/>
        <pt x="338" y="834" on="0"/>
        <pt x="367" y="845" on="0"/>
        <pt x="392" y="845" on="0"/>
        <pt x="408" y="841" on="0"/>
        <pt x="424" y="830" on="0"/>
        <pt x="429" y="826" on="1"/>
        <pt x="437" y="821" on="0"/>
      </contour>
    </TTGlyph>
    <TTGlyph name="P" xMin="8" yMin="0" xMax="588" yMax="625">
      <contour>
        <pt x="348" y="151" on="1"/>
        <pt x="224" y="151" on="1"/>
        <pt x="198" y="0" on="1"/>
        <pt x="8" y="0" on="1"/>
        <pt x="118" y="625" on="1"/>
        <pt x="418" y="625" on="1"/>
        <pt x="588" y="625" on="0"/>
        <pt x="588" y="467" on="1"/>
        <pt x="588" y="392" on="0"/>
        <pt x="546" y="271" on="0"/>
        <pt x="495" y="200" on="0"/>
        <pt x="406" y="151" on="0"/>
      </contour>
      <contour>
        <pt x="279" y="465" on="1"/>
        <pt x="252" y="311" on="1"/>
        <pt x="296" y="311" on="1"/>
        <pt x="330" y="311" on="0"/>
        <pt x="365" y="326" on="0"/>
        <pt x="370" y="353" on="1"/>
        <pt x="383" y="427" on="0"/>
        <pt x="383" y="434" on="1"/>
        <pt x="383" y="453" on="0"/>
        <pt x="353" y="465" on="0"/>
        <pt x="323" y="465" on="1"/>
      </contour>
    </TTGlyph>
    <TTGlyph name="Q" xMin="21" yMin="-50" xMax="606" yMax="640">
      <contour>
        <pt x="21" y="187" on="1"/>
        <pt x="21" y="236" on="0"/>
        <pt x="49" y="397" on="0"/>
        <pt x="95" y="514" on="0"/>
        <pt x="134" y="557" on="1"/>
        <pt x="209" y="640" on="0"/>
        <pt x="371" y="640" on="1"/>
        <pt x="497" y="640" on="0"/>
        <pt x="606" y="539" on="0"/>
        <pt x="606" y="339" on="0"/>
        <pt x="548" y="156" on="0"/>
        <pt x="507" y="107" on="1"/>
        <pt x="569" y="65" on="1"/>
        <pt x="499" y="-50" on="1"/>
        <pt x="323" y="-15" on="1"/>
        <pt x="330" y="23" on="1"/>
        <pt x="245" y="0" on="1"/>
        <pt x="124" y="0" on="0"/>
        <pt x="21" y="97" on="0"/>
      </contour>
      <contour>
        <pt x="210" y="156" on="1"/>
        <pt x="289" y="156" on="1"/>
        <pt x="328" y="156" on="0"/>
        <pt x="366" y="175" on="0"/>
        <pt x="372" y="209" on="1"/>
        <pt x="418" y="469" on="1"/>
        <pt x="338" y="469" on="1"/>
        <pt x="300" y="469" on="0"/>
        <pt x="262" y="450" on="0"/>
        <pt x="256" y="416" on="1"/>
      </contour>
    </TTGlyph>
    <TTGlyph name="R" xMin="8" yMin="0" xMax="589" yMax="625">
      <contour>
        <pt x="526" y="0" on="1"/>
        <pt x="317" y="0" on="1"/>
        <pt x="271" y="186" on="1"/>
        <pt x="230" y="186" on="1"/>
        <pt x="198" y="0" on="1"/>
        <pt x="8" y="0" on="1"/>
        <pt x="118" y="625" on="1"/>
        <pt x="418" y="625" on="1"/>
        <pt x="589" y="625" on="0"/>
        <pt x="589" y="472" on="1"/>
        <pt x="589" y="409" on="0"/>
        <pt x="570" y="352" on="1"/>
        <pt x="535" y="244" on="0"/>
        <pt x="460" y="208" on="1"/>
      </contour>
      <contour>
        <pt x="279" y="465" on="1"/>
        <pt x="257" y="340" on="1"/>
        <pt x="301" y="340" on="1"/>
        <pt x="335" y="340" on="0"/>
        <pt x="370" y="355" on="0"/>
        <pt x="383" y="426" on="0"/>
        <pt x="383" y="434" on="1"/>
        <pt x="383" y="454" on="0"/>
        <pt x="352" y="465" on="0"/>
        <pt x="317" y="465" on="1"/>
      </contour>
    </TTGlyph>
    <TTGlyph name="S" xMin="-10" yMin="-15" xMax="565" yMax="640">
      <contour>
        <pt x="-10" y="11" on="1"/>
        <pt x="46" y="176" on="1"/>
        <pt x="130" y="153" on="0"/>
        <pt x="270" y="153" on="0"/>
        <pt x="313" y="159" on="1"/>
        <pt x="321" y="209" on="1"/>
        <pt x="238" y="217" on="1"/>
        <pt x="143" y="226" on="0"/>
        <pt x="64" y="294" on="0"/>
        <pt x="64" y="356" on="1"/>
        <pt x="64" y="383" on="0"/>
        <pt x="70" y="416" on="1"/>
        <pt x="93" y="544" on="0"/>
        <pt x="214" y="640" on="0"/>
        <pt x="468" y="640" on="0"/>
        <pt x="565" y="615" on="1"/>
        <pt x="513" y="455" on="1"/>
        <pt x="426" y="470" on="0"/>
        <pt x="320" y="470" on="0"/>
        <pt x="283" y="465" on="1"/>
        <pt x="275" y="416" on="1"/>
        <pt x="342" y="409" on="1"/>
        <pt x="444" y="398" on="0"/>
        <pt x="530" y="323" on="0"/>
        <pt x="530" y="260" on="1"/>
        <pt x="530" y="196" on="0"/>
        <pt x="502" y="128" on="1"/>
        <pt x="488" y="93" on="0"/>
        <pt x="455" y="46" on="0"/>
        <pt x="404" y="13" on="0"/>
        <pt x="362" y="-4" on="0"/>
        <pt x="330" y="-8" on="1"/>
        <pt x="283" y="-15" on="0"/>
        <pt x="215" y="-15" on="1"/>
        <pt x="91" y="-15" on="0"/>
      </contour>
    </TTGlyph>
    <TTGlyph name="Scaron" xMin="-10" yMin="-15" xMax="565" yMax="864">
      <contour>
        <pt x="-10" y="11" on="1"/>
        <pt x="46" y="176" on="1"/>
        <pt x="130" y="153" on="0"/>
        <pt x="270" y="153" on="0"/>
        <pt x="313" y="159" on="1"/>
        <pt x="321" y="209" on="1"/>
        <pt x="238" y="217" on="1"/>
        <pt x="143" y="226" on="0"/>
        <pt x="64" y="294" on="0"/>
        <pt x="64" y="356" on="1"/>
        <pt x="64" y="383" on="0"/>
        <pt x="70" y="416" on="1"/>
        <pt x="93" y="544" on="0"/>
        <pt x="214" y="640" on="0"/>
        <pt x="468" y="640" on="0"/>
        <pt x="565" y="615" on="1"/>
        <pt x="513" y="455" on="1"/>
        <pt x="426" y="470" on="0"/>
        <pt x="320" y="470" on="0"/>
        <pt x="283" y="465" on="1"/>
        <pt x="275" y="416" on="1"/>
        <pt x="342" y="409" on="1"/>
        <pt x="444" y="398" on="0"/>
        <pt x="530" y="323" on="0"/>
        <pt x="530" y="260" on="1"/>
        <pt x="530" y="196" on="0"/>
        <pt x="502" y="128" on="1"/>
        <pt x="488" y="93" on="0"/>
        <pt x="455" y="46" on="0"/>
        <pt x="404" y="13" on="0"/>
        <pt x="362" y="-4" on="0"/>
        <pt x="330" y="-8" on="1"/>
        <pt x="283" y="-15" on="0"/>
        <pt x="215" y="-15" on="1"/>
        <pt x="91" y="-15" on="0"/>
      </contour>
      <contour>
        <pt x="383" y="661" on="1"/>
        <pt x="338" y="661" on="1"/>
        <pt x="331" y="661" on="0"/>
        <pt x="324" y="670" on="1"/>
        <pt x="242" y="815" on="1"/>
        <pt x="308" y="864" on="1"/>
        <pt x="385" y="801" on="1"/>
        <pt x="485" y="864" on="1"/>
        <pt x="533" y="815" on="1"/>
        <pt x="400" y="670" on="1"/>
        <pt x="391" y="661" on="0"/>
      </contour>
    </TTGlyph>
    <TTGlyph name="T" xMin="44" yMin="0" xMax="538" yMax="625">
      <contour>
        <pt x="509" y="465" on="1"/>
        <pt x="371" y="465" on="1"/>
        <pt x="290" y="0" on="1"/>
        <pt x="100" y="0" on="1"/>
        <pt x="181" y="465" on="1"/>
        <pt x="44" y="465" on="1"/>
        <pt x="73" y="625" on="1"/>
        <pt x="538" y="625" on="1"/>
      </contour>
    </TTGlyph>
    <TTGlyph name="Thorn" xMin="8" yMin="0" xMax="575" yMax="625">
      <contour>
        <pt x="335" y="76" on="1"/>
        <pt x="211" y="76" on="1"/>
        <pt x="198" y="0" on="1"/>
        <pt x="8" y="0" on="1"/>
        <pt x="118" y="625" on="1"/>
        <pt x="308" y="625" on="1"/>
        <pt x="294" y="550" on="1"/>
        <pt x="404" y="550" on="1"/>
        <pt x="575" y="550" on="0"/>
        <pt x="575" y="391" on="1"/>
        <pt x="575" y="315" on="0"/>
        <pt x="532" y="196" on="0"/>
        <pt x="482" y="125" on="0"/>
        <pt x="392" y="76" on="0"/>
      </contour>
      <contour>
        <pt x="266" y="390" on="1"/>
        <pt x="239" y="236" on="1"/>
        <pt x="283" y="236" on="1"/>
        <pt x="317" y="236" on="0"/>
        <pt x="352" y="251" on="0"/>
        <pt x="357" y="278" on="1"/>
        <pt x="369" y="348" on="1"/>
        <pt x="370" y="352" on="0"/>
        <pt x="370" y="359" on="1"/>
        <pt x="370" y="378" on="0"/>
        <pt x="340" y="390" on="0"/>
        <pt x="310" y="390" on="1"/>
      </contour>
    </TTGlyph>
    <TTGlyph name="U" xMin="28" yMin="-15" xMax="614" yMax="625">
      <contour>
        <pt x="294" y="625" on="1"/>
        <pt x="211" y="156" on="1"/>
        <pt x="279" y="156" on="1"/>
        <pt x="314" y="156" on="0"/>
        <pt x="344" y="175" on="0"/>
        <pt x="350" y="209" on="1"/>
        <pt x="424" y="625" on="1"/>
        <pt x="614" y="625" on="1"/>
        <pt x="552" y="274" on="1"/>
        <pt x="537" y="189" on="0"/>
        <pt x="498" y="85" on="0"/>
        <pt x="428" y="13" on="0"/>
        <pt x="325" y="-15" on="0"/>
        <pt x="246" y="-15" on="1"/>
        <pt x="125" y="-15" on="0"/>
        <pt x="28" y="58" on="0"/>
        <pt x="28" y="147" on="1"/>
        <pt x="28" y="196" on="0"/>
        <pt x="42" y="274" on="1"/>
        <pt x="104" y="625" on="1"/>
      </contour>
    </TTGlyph>
    <TTGlyph name="Uacute" xMin="33" yMin="-15" xMax="619" yMax="849">
      <contour>
        <pt x="299" y="625" on="1"/>
        <pt x="216" y="156" on="1"/>
        <pt x="284" y="156" on="1"/>
        <pt x="319" y="156" on="0"/>
        <pt x="349" y="175" on="0"/>
        <pt x="355" y="209" on="1"/>
        <pt x="429" y="625" on="1"/>
        <pt x="619" y="625" on="1"/>
        <pt x="557" y="274" on="1"/>
        <pt x="542" y="189" on="0"/>
        <pt x="503" y="85" on="0"/>
        <pt x="433" y="13" on="0"/>
        <pt x="330" y="-15" on="0"/>
        <pt x="251" y="-15" on="1"/>
        <pt x="130" y="-15" on="0"/>
        <pt x="33" y="58" on="0"/>
        <pt x="33" y="147" on="1"/>
        <pt x="33" y="196" on="0"/>
        <pt x="47" y="274" on="1"/>
        <pt x="109" y="625" on="1"/>
      </contour>
      <contour>
        <pt x="457" y="684" on="1"/>
        <pt x="283" y="649" on="1"/>
        <pt x="242" y="706" on="1"/>
        <pt x="431" y="845" on="1"/>
        <pt x="437" y="849" on="0"/>
        <pt x="451" y="849" on="0"/>
        <pt x="460" y="838" on="1"/>
        <pt x="523" y="764" on="1"/>
        <pt x="532" y="754" on="0"/>
        <pt x="532" y="741" on="0"/>
        <pt x="527" y="734" on="0"/>
        <pt x="483" y="696" on="1"/>
        <pt x="473" y="687" on="0"/>
      </contour>
    </TTGlyph>
    <TTGlyph name="Ucircumflex" xMin="33" yMin="-15" xMax="619" yMax="864">
      <contour>
        <pt x="299" y="625" on="1"/>
        <pt x="216" y="156" on="1"/>
        <pt x="284" y="156" on="1"/>
        <pt x="319" y="156" on="0"/>
        <pt x="349" y="175" on="0"/>
        <pt x="355" y="209" on="1"/>
        <pt x="429" y="625" on="1"/>
        <pt x="619" y="625" on="1"/>
        <pt x="557" y="274" on="1"/>
        <pt x="542" y="189" on="0"/>
        <pt x="503" y="85" on="0"/>
        <pt x="433" y="13" on="0"/>
        <pt x="330" y="-15" on="0"/>
        <pt x="251" y="-15" on="1"/>
        <pt x="130" y="-15" on="0"/>
        <pt x="33" y="58" on="0"/>
        <pt x="33" y="147" on="1"/>
        <pt x="33" y="196" on="0"/>
        <pt x="47" y="274" on="1"/>
        <pt x="109" y="625" on="1"/>
      </contour>
      <contour>
        <pt x="394" y="864" on="1"/>
        <pt x="439" y="864" on="1"/>
        <pt x="447" y="864" on="0"/>
        <pt x="452" y="855" on="1"/>
        <pt x="535" y="710" on="1"/>
        <pt x="469" y="661" on="1"/>
        <pt x="391" y="724" on="1"/>
        <pt x="292" y="661" on="1"/>
        <pt x="244" y="710" on="1"/>
        <pt x="376" y="855" on="1"/>
        <pt x="384" y="864" on="0"/>
      </contour>
    </TTGlyph>
    <TTGlyph name="Udieresis" xMin="33" yMin="-15" xMax="619" yMax="832">
      <contour>
        <pt x="299" y="625" on="1"/>
        <pt x="216" y="156" on="1"/>
        <pt x="284" y="156" on="1"/>
        <pt x="319" y="156" on="0"/>
        <pt x="349" y="175" on="0"/>
        <pt x="355" y="209" on="1"/>
        <pt x="429" y="625" on="1"/>
        <pt x="619" y="625" on="1"/>
        <pt x="557" y="274" on="1"/>
        <pt x="542" y="189" on="0"/>
        <pt x="503" y="85" on="0"/>
        <pt x="433" y="13" on="0"/>
        <pt x="330" y="-15" on="0"/>
        <pt x="251" y="-15" on="1"/>
        <pt x="130" y="-15" on="0"/>
        <pt x="33" y="58" on="0"/>
        <pt x="33" y="147" on="1"/>
        <pt x="33" y="196" on="0"/>
        <pt x="47" y="274" on="1"/>
        <pt x="109" y="625" on="1"/>
      </contour>
      <contour>
        <pt x="415" y="783" on="0"/>
        <pt x="456" y="832" on="0"/>
        <pt x="541" y="832" on="0"/>
        <pt x="570" y="810" on="0"/>
        <pt x="570" y="784" on="1"/>
        <pt x="570" y="725" on="0"/>
        <pt x="529" y="676" on="0"/>
        <pt x="444" y="676" on="0"/>
        <pt x="415" y="698" on="0"/>
        <pt x="415" y="724" on="1"/>
      </contour>
      <contour>
        <pt x="207" y="783" on="0"/>
        <pt x="248" y="832" on="0"/>
        <pt x="333" y="832" on="0"/>
        <pt x="362" y="810" on="0"/>
        <pt x="362" y="784" on="1"/>
        <pt x="362" y="725" on="0"/>
        <pt x="320" y="676" on="0"/>
        <pt x="236" y="676" on="0"/>
        <pt x="207" y="698" on="0"/>
        <pt x="207" y="724" on="1"/>
      </contour>
    </TTGlyph>
    <TTGlyph name="Ugrave" xMin="33" yMin="-15" xMax="619" yMax="864">
      <contour>
        <pt x="299" y="625" on="1"/>
        <pt x="216" y="156" on="1"/>
        <pt x="284" y="156" on="1"/>
        <pt x="319" y="156" on="0"/>
        <pt x="349" y="175" on="0"/>
        <pt x="355" y="209" on="1"/>
        <pt x="429" y="625" on="1"/>
        <pt x="619" y="625" on="1"/>
        <pt x="557" y="274" on="1"/>
        <pt x="542" y="189" on="0"/>
        <pt x="503" y="85" on="0"/>
        <pt x="433" y="13" on="0"/>
        <pt x="330" y="-15" on="0"/>
        <pt x="251" y="-15" on="1"/>
        <pt x="130" y="-15" on="0"/>
        <pt x="33" y="58" on="0"/>
        <pt x="33" y="147" on="1"/>
        <pt x="33" y="196" on="0"/>
        <pt x="47" y="274" on="1"/>
        <pt x="109" y="625" on="1"/>
      </contour>
      <contour>
        <pt x="494" y="664" on="1"/>
        <pt x="320" y="699" on="1"/>
        <pt x="304" y="702" on="0"/>
        <pt x="294" y="711" on="1"/>
        <pt x="249" y="750" on="1"/>
        <pt x="245" y="756" on="0"/>
        <pt x="245" y="768" on="0"/>
        <pt x="254" y="779" on="1"/>
        <pt x="317" y="853" on="1"/>
        <pt x="326" y="864" on="0"/>
        <pt x="340" y="864" on="0"/>
        <pt x="346" y="860" on="1"/>
        <pt x="535" y="721" on="1"/>
      </contour>
    </TTGlyph>
    <TTGlyph name="V" xMin="60" yMin="0" xMax="632" yMax="625">
      <contour>
        <pt x="431" y="625" on="1"/>
        <pt x="632" y="625" on="1"/>
        <pt x="375" y="0" on="1"/>
        <pt x="97" y="0" on="1"/>
        <pt x="60" y="625" on="1"/>
        <pt x="271" y="625" on="1"/>
        <pt x="271" y="228" on="1"/>
        <pt x="280" y="228" on="1"/>
      </contour>
    </TTGlyph>
    <TTGlyph name="W" xMin="60" yMin="0" xMax="840" yMax="625">
      <contour>
        <pt x="641" y="625" on="1"/>
        <pt x="840" y="625" on="1"/>
        <pt x="637" y="0" on="1"/>
        <pt x="385" y="0" on="1"/>
        <pt x="385" y="230" on="1"/>
        <pt x="374" y="230" on="1"/>
        <pt x="291" y="0" on="1"/>
        <pt x="60" y="0" on="1"/>
        <pt x="60" y="625" on="1"/>
        <pt x="259" y="625" on="1"/>
        <pt x="241" y="276" on="1"/>
        <pt x="247" y="276" on="1"/>
        <pt x="377" y="625" on="1"/>
        <pt x="528" y="625" on="1"/>
        <pt x="528" y="276" on="1"/>
        <pt x="534" y="276" on="1"/>
      </contour>
    </TTGlyph>
    <TTGlyph name="X" xMin="-50" yMin="0" xMax="622" yMax="625">
      <contour>
        <pt x="276" y="625" on="1"/>
        <pt x="311" y="458" on="1"/>
        <pt x="321" y="458" on="1"/>
        <pt x="416" y="625" on="1"/>
        <pt x="622" y="625" on="1"/>
        <pt x="436" y="323" on="1"/>
        <pt x="512" y="0" on="1"/>
        <pt x="301" y="0" on="1"/>
        <pt x="261" y="180" on="1"/>
        <pt x="253" y="180" on="1"/>
        <pt x="151" y="0" on="1"/>
        <pt x="-50" y="0" on="1"/>
        <pt x="134" y="317" on="1"/>
        <pt x="60" y="625" on="1"/>
      </contour>
    </TTGlyph>
    <TTGlyph name="Y" xMin="30" yMin="0" xMax="562" yMax="625">
      <contour>
        <pt x="240" y="625" on="1"/>
        <pt x="253" y="405" on="1"/>
        <pt x="260" y="405" on="1"/>
        <pt x="352" y="625" on="1"/>
        <pt x="562" y="625" on="1"/>
        <pt x="310" y="170" on="1"/>
        <pt x="281" y="0" on="1"/>
        <pt x="91" y="0" on="1"/>
        <pt x="120" y="170" on="1"/>
        <pt x="30" y="625" on="1"/>
      </contour>
    </TTGlyph>
    <TTGlyph name="Yacute" xMin="49" yMin="0" xMax="581" yMax="863">
      <contour>
        <pt x="259" y="625" on="1"/>
        <pt x="272" y="405" on="1"/>
        <pt x="279" y="405" on="1"/>
        <pt x="371" y="625" on="1"/>
        <pt x="581" y="625" on="1"/>
        <pt x="329" y="170" on="1"/>
        <pt x="300" y="0" on="1"/>
        <pt x="110" y="0" on="1"/>
        <pt x="139" y="170" on="1"/>
        <pt x="49" y="625" on="1"/>
      </contour>
      <contour>
        <pt x="409" y="698" on="1"/>
        <pt x="235" y="663" on="1"/>
        <pt x="194" y="720" on="1"/>
        <pt x="383" y="859" on="1"/>
        <pt x="389" y="863" on="0"/>
        <pt x="403" y="863" on="0"/>
        <pt x="412" y="852" on="1"/>
        <pt x="475" y="778" on="1"/>
        <pt x="484" y="768" on="0"/>
        <pt x="484" y="755" on="0"/>
        <pt x="479" y="748" on="0"/>
        <pt x="435" y="710" on="1"/>
        <pt x="425" y="701" on="0"/>
      </contour>
    </TTGlyph>
    <TTGlyph name="Ydieresis" xMin="49" yMin="0" xMax="581" yMax="832">
      <contour>
        <pt x="259" y="625" on="1"/>
        <pt x="272" y="405" on="1"/>
        <pt x="279" y="405" on="1"/>
        <pt x="371" y="625" on="1"/>
        <pt x="581" y="625" on="1"/>
        <pt x="329" y="170" on="1"/>
        <pt x="300" y="0" on="1"/>
        <pt x="110" y="0" on="1"/>
        <pt x="139" y="170" on="1"/>
        <pt x="49" y="625" on="1"/>
      </contour>
      <contour>
        <pt x="365" y="783" on="0"/>
        <pt x="406" y="832" on="0"/>
        <pt x="491" y="832" on="0"/>
        <pt x="520" y="810" on="0"/>
        <pt x="520" y="784" on="1"/>
        <pt x="520" y="725" on="0"/>
        <pt x="479" y="676" on="0"/>
        <pt x="394" y="676" on="0"/>
        <pt x="365" y="698" on="0"/>
        <pt x="365" y="724" on="1"/>
      </contour>
      <contour>
        <pt x="157" y="783" on="0"/>
        <pt x="198" y="832" on="0"/>
        <pt x="283" y="832" on="0"/>
        <pt x="312" y="810" on="0"/>
        <pt x="312" y="784" on="1"/>
        <pt x="312" y="725" on="0"/>
        <pt x="270" y="676" on="0"/>
        <pt x="186" y="676" on="0"/>
        <pt x="157" y="698" on="0"/>
        <pt x="157" y="724" on="1"/>
      </contour>
    </TTGlyph>
    <TTGlyph name="Z" xMin="-50" yMin="0" xMax="568" yMax="625">
      <contour>
        <pt x="462" y="0" on="1"/>
        <pt x="-50" y="0" on="1"/>
        <pt x="-28" y="125" on="1"/>
        <pt x="273" y="459" on="1"/>
        <pt x="271" y="465" on="1"/>
        <pt x="72" y="465" on="1"/>
        <pt x="83" y="625" on="1"/>
        <pt x="568" y="625" on="1"/>
        <pt x="546" y="500" on="1"/>
        <pt x="247" y="166" on="1"/>
        <pt x="248" y="160" on="1"/>
        <pt x="490" y="160" on="1"/>
      </contour>
    </TTGlyph>
    <TTGlyph name="Zcaron" xMin="-50" yMin="0" xMax="568" yMax="864">
      <contour>
        <pt x="462" y="0" on="1"/>
        <pt x="-50" y="0" on="1"/>
        <pt x="-28" y="125" on="1"/>
        <pt x="273" y="459" on="1"/>
        <pt x="271" y="465" on="1"/>
        <pt x="72" y="465" on="1"/>
        <pt x="83" y="625" on="1"/>
        <pt x="568" y="625" on="1"/>
        <pt x="546" y="500" on="1"/>
        <pt x="247" y="166" on="1"/>
        <pt x="248" y="160" on="1"/>
        <pt x="490" y="160" on="1"/>
      </contour>
      <contour>
        <pt x="348" y="661" on="1"/>
        <pt x="303" y="661" on="1"/>
        <pt x="296" y="661" on="0"/>
        <pt x="289" y="670" on="1"/>
        <pt x="207" y="815" on="1"/>
        <pt x="273" y="864" on="1"/>
        <pt x="350" y="801" on="1"/>
        <pt x="450" y="864" on="1"/>
        <pt x="498" y="815" on="1"/>
        <pt x="365" y="670" on="1"/>
        <pt x="356" y="661" on="0"/>
      </contour>
    </TTGlyph>
    <TTGlyph name="a" xMin="27" yMin="-15" xMax="565" yMax="515">
      <contour>
        <pt x="565" y="475" on="1"/>
        <pt x="482" y="0" on="1"/>
        <pt x="387" y="0" on="1"/>
        <pt x="342" y="57" on="1"/>
        <pt x="310" y="22" on="0"/>
        <pt x="245" y="-15" on="0"/>
        <pt x="194" y="-15" on="1"/>
        <pt x="104" y="-15" on="0"/>
        <pt x="27" y="85" on="0"/>
        <pt x="27" y="165" on="1"/>
        <pt x="27" y="308" on="0"/>
        <pt x="180" y="515" on="0"/>
        <pt x="316" y="515" on="1"/>
        <pt x="431" y="515" on="0"/>
      </contour>
      <contour>
        <pt x="254" y="327" on="1"/>
        <pt x="220" y="131" on="1"/>
        <pt x="249" y="131" on="1"/>
        <pt x="271" y="131" on="0"/>
        <pt x="295" y="134" on="0"/>
        <pt x="318" y="151" on="0"/>
        <pt x="321" y="167" on="1"/>
        <pt x="357" y="369" on="1"/>
        <pt x="327" y="369" on="1"/>
        <pt x="293" y="369" on="0"/>
        <pt x="259" y="354" on="0"/>
      </contour>
    </TTGlyph>
    <TTGlyph name="aacute" xMin="27" yMin="-15" xMax="565" yMax="739">
      <contour>
        <pt x="565" y="475" on="1"/>
        <pt x="482" y="0" on="1"/>
        <pt x="387" y="0" on="1"/>
        <pt x="342" y="57" on="1"/>
        <pt x="310" y="22" on="0"/>
        <pt x="245" y="-15" on="0"/>
        <pt x="194" y="-15" on="1"/>
        <pt x="104" y="-15" on="0"/>
        <pt x="27" y="85" on="0"/>
        <pt x="27" y="165" on="1"/>
        <pt x="27" y="308" on="0"/>
        <pt x="180" y="515" on="0"/>
        <pt x="316" y="515" on="1"/>
        <pt x="431" y="515" on="0"/>
      </contour>
      <contour>
        <pt x="254" y="327" on="1"/>
        <pt x="220" y="131" on="1"/>
        <pt x="249" y="131" on="1"/>
        <pt x="271" y="131" on="0"/>
        <pt x="295" y="134" on="0"/>
        <pt x="318" y="151" on="0"/>
        <pt x="321" y="167" on="1"/>
        <pt x="357" y="369" on="1"/>
        <pt x="327" y="369" on="1"/>
        <pt x="293" y="369" on="0"/>
        <pt x="259" y="354" on="0"/>
      </contour>
      <contour>
        <pt x="441" y="574" on="1"/>
        <pt x="267" y="539" on="1"/>
        <pt x="226" y="596" on="1"/>
        <pt x="415" y="735" on="1"/>
        <pt x="421" y="739" on="0"/>
        <pt x="435" y="739" on="0"/>
        <pt x="444" y="728" on="1"/>
        <pt x="507" y="654" on="1"/>
        <pt x="516" y="644" on="0"/>
        <pt x="516" y="631" on="0"/>
        <pt x="511" y="624" on="0"/>
        <pt x="467" y="586" on="1"/>
        <pt x="457" y="577" on="0"/>
      </contour>
    </TTGlyph>
    <TTGlyph name="acircumflex" xMin="27" yMin="-15" xMax="565" yMax="740">
      <contour>
        <pt x="375" y="740" on="1"/>
        <pt x="420" y="740" on="1"/>
        <pt x="428" y="740" on="0"/>
        <pt x="433" y="731" on="1"/>
        <pt x="516" y="586" on="1"/>
        <pt x="450" y="537" on="1"/>
        <pt x="372" y="600" on="1"/>
        <pt x="273" y="537" on="1"/>
        <pt x="225" y="586" on="1"/>
        <pt x="357" y="731" on="1"/>
        <pt x="364" y="740" on="0"/>
      </contour>
      <contour>
        <pt x="565" y="475" on="1"/>
        <pt x="482" y="0" on="1"/>
        <pt x="387" y="0" on="1"/>
        <pt x="342" y="57" on="1"/>
        <pt x="310" y="22" on="0"/>
        <pt x="245" y="-15" on="0"/>
        <pt x="194" y="-15" on="1"/>
        <pt x="104" y="-15" on="0"/>
        <pt x="27" y="85" on="0"/>
        <pt x="27" y="165" on="1"/>
        <pt x="27" y="308" on="0"/>
        <pt x="180" y="515" on="0"/>
        <pt x="316" y="515" on="1"/>
        <pt x="431" y="515" on="0"/>
      </contour>
      <contour>
        <pt x="254" y="327" on="1"/>
        <pt x="220" y="131" on="1"/>
        <pt x="249" y="131" on="1"/>
        <pt x="271" y="131" on="0"/>
        <pt x="295" y="134" on="0"/>
        <pt x="318" y="151" on="0"/>
        <pt x="321" y="167" on="1"/>
        <pt x="357" y="369" on="1"/>
        <pt x="327" y="369" on="1"/>
        <pt x="293" y="369" on="0"/>
        <pt x="259" y="354" on="0"/>
      </contour>
    </TTGlyph>
    <TTGlyph name="acute" xMin="70" yMin="539" xMax="360" yMax="739">
      <contour>
        <pt x="285" y="574" on="1"/>
        <pt x="111" y="539" on="1"/>
        <pt x="70" y="596" on="1"/>
        <pt x="259" y="735" on="1"/>
        <pt x="265" y="739" on="0"/>
        <pt x="279" y="739" on="0"/>
        <pt x="288" y="728" on="1"/>
        <pt x="351" y="654" on="1"/>
        <pt x="360" y="644" on="0"/>
        <pt x="360" y="631" on="0"/>
        <pt x="355" y="624" on="0"/>
        <pt x="311" y="586" on="1"/>
        <pt x="301" y="577" on="0"/>
      </contour>
    </TTGlyph>
    <TTGlyph name="adieresis" xMin="27" yMin="-15" xMax="565" yMax="708">
      <contour>
        <pt x="395" y="659" on="0"/>
        <pt x="436" y="708" on="0"/>
        <pt x="521" y="708" on="0"/>
        <pt x="550" y="686" on="0"/>
        <pt x="550" y="660" on="1"/>
        <pt x="550" y="601" on="0"/>
        <pt x="509" y="552" on="0"/>
        <pt x="424" y="552" on="0"/>
        <pt x="395" y="574" on="0"/>
        <pt x="395" y="600" on="1"/>
      </contour>
      <contour>
        <pt x="187" y="659" on="0"/>
        <pt x="228" y="708" on="0"/>
        <pt x="313" y="708" on="0"/>
        <pt x="342" y="686" on="0"/>
        <pt x="342" y="660" on="1"/>
        <pt x="342" y="601" on="0"/>
        <pt x="300" y="552" on="0"/>
        <pt x="216" y="552" on="0"/>
        <pt x="187" y="574" on="0"/>
        <pt x="187" y="600" on="1"/>
      </contour>
      <contour>
        <pt x="565" y="475" on="1"/>
        <pt x="482" y="0" on="1"/>
        <pt x="387" y="0" on="1"/>
        <pt x="342" y="57" on="1"/>
        <pt x="310" y="22" on="0"/>
        <pt x="245" y="-15" on="0"/>
        <pt x="194" y="-15" on="1"/>
        <pt x="104" y="-15" on="0"/>
        <pt x="27" y="85" on="0"/>
        <pt x="27" y="165" on="1"/>
        <pt x="27" y="308" on="0"/>
        <pt x="180" y="515" on="0"/>
        <pt x="316" y="515" on="1"/>
        <pt x="431" y="515" on="0"/>
      </contour>
      <contour>
        <pt x="254" y="327" on="1"/>
        <pt x="220" y="131" on="1"/>
        <pt x="249" y="131" on="1"/>
        <pt x="271" y="131" on="0"/>
        <pt x="295" y="134" on="0"/>
        <pt x="318" y="151" on="0"/>
        <pt x="321" y="167" on="1"/>
        <pt x="357" y="369" on="1"/>
        <pt x="327" y="369" on="1"/>
        <pt x="293" y="369" on="0"/>
        <pt x="259" y="354" on="0"/>
      </contour>
    </TTGlyph>
    <TTGlyph name="ae" xMin="27" yMin="-15" xMax="827" yMax="515">
      <contour>
        <pt x="568" y="515" on="1"/>
        <pt x="559" y="470" on="1"/>
        <pt x="566" y="470" on="1"/>
        <pt x="596" y="515" on="0"/>
        <pt x="676" y="515" on="1"/>
        <pt x="827" y="515" on="0"/>
        <pt x="827" y="392" on="1"/>
        <pt x="827" y="286" on="0"/>
        <pt x="771" y="232" on="1"/>
        <pt x="726" y="189" on="0"/>
        <pt x="618" y="176" on="1"/>
        <pt x="575" y="171" on="0"/>
        <pt x="512" y="170" on="1"/>
        <pt x="506" y="135" on="1"/>
        <pt x="534" y="132" on="0"/>
        <pt x="563" y="132" on="1"/>
        <pt x="655" y="132" on="0"/>
        <pt x="746" y="162" on="1"/>
        <pt x="743" y="15" on="1"/>
        <pt x="632" y="-15" on="0"/>
        <pt x="527" y="-15" on="1"/>
        <pt x="390" y="-15" on="0"/>
        <pt x="342" y="57" on="1"/>
        <pt x="310" y="22" on="0"/>
        <pt x="245" y="-15" on="0"/>
        <pt x="194" y="-15" on="1"/>
        <pt x="104" y="-15" on="0"/>
        <pt x="27" y="85" on="0"/>
        <pt x="27" y="165" on="1"/>
        <pt x="27" y="308" on="0"/>
        <pt x="180" y="515" on="0"/>
        <pt x="316" y="515" on="1"/>
        <pt x="388" y="515" on="0"/>
        <pt x="444" y="472" on="1"/>
        <pt x="479" y="515" on="1"/>
      </contour>
      <contour>
        <pt x="254" y="327" on="1"/>
        <pt x="220" y="131" on="1"/>
        <pt x="249" y="131" on="1"/>
        <pt x="271" y="131" on="0"/>
        <pt x="295" y="134" on="0"/>
        <pt x="318" y="151" on="0"/>
        <pt x="321" y="167" on="1"/>
        <pt x="357" y="369" on="1"/>
        <pt x="327" y="369" on="1"/>
        <pt x="293" y="369" on="0"/>
        <pt x="259" y="354" on="0"/>
      </contour>
      <contour>
        <pt x="613" y="369" on="1"/>
        <pt x="582" y="369" on="0"/>
        <pt x="548" y="356" on="0"/>
        <pt x="542" y="335" on="1"/>
        <pt x="533" y="286" on="1"/>
        <pt x="572" y="286" on="1"/>
        <pt x="605" y="286" on="0"/>
        <pt x="639" y="301" on="0"/>
        <pt x="644" y="328" on="1"/>
        <pt x="652" y="369" on="1"/>
      </contour>
    </TTGlyph>
    <TTGlyph name="agrave" xMin="27" yMin="-15" xMax="565" yMax="739">
      <contour>
        <pt x="475" y="539" on="1"/>
        <pt x="301" y="574" on="1"/>
        <pt x="285" y="577" on="0"/>
        <pt x="275" y="586" on="1"/>
        <pt x="230" y="625" on="1"/>
        <pt x="226" y="631" on="0"/>
        <pt x="226" y="644" on="0"/>
        <pt x="235" y="654" on="1"/>
        <pt x="298" y="728" on="1"/>
        <pt x="307" y="739" on="0"/>
        <pt x="321" y="739" on="0"/>
        <pt x="327" y="735" on="1"/>
        <pt x="516" y="596" on="1"/>
      </contour>
      <contour>
        <pt x="565" y="475" on="1"/>
        <pt x="482" y="0" on="1"/>
        <pt x="387" y="0" on="1"/>
        <pt x="342" y="57" on="1"/>
        <pt x="310" y="22" on="0"/>
        <pt x="245" y="-15" on="0"/>
        <pt x="194" y="-15" on="1"/>
        <pt x="104" y="-15" on="0"/>
        <pt x="27" y="85" on="0"/>
        <pt x="27" y="165" on="1"/>
        <pt x="27" y="308" on="0"/>
        <pt x="180" y="515" on="0"/>
        <pt x="316" y="515" on="1"/>
        <pt x="431" y="515" on="0"/>
      </contour>
      <contour>
        <pt x="254" y="327" on="1"/>
        <pt x="220" y="131" on="1"/>
        <pt x="249" y="131" on="1"/>
        <pt x="271" y="131" on="0"/>
        <pt x="295" y="134" on="0"/>
        <pt x="318" y="151" on="0"/>
        <pt x="321" y="167" on="1"/>
        <pt x="357" y="369" on="1"/>
        <pt x="327" y="369" on="1"/>
        <pt x="293" y="369" on="0"/>
        <pt x="259" y="354" on="0"/>
      </contour>
    </TTGlyph>
    <TTGlyph name="ampersand" xMin="35" yMin="-115" xMax="655" yMax="625">
      <contour>
        <pt x="363" y="-115" on="1"/>
        <pt x="363" y="21" on="1"/>
        <pt x="242" y="-15" on="0"/>
        <pt x="173" y="-15" on="1"/>
        <pt x="35" y="-15" on="0"/>
        <pt x="35" y="119" on="1"/>
        <pt x="35" y="198" on="0"/>
        <pt x="67" y="268" on="1"/>
        <pt x="84" y="305" on="0"/>
        <pt x="148" y="357" on="0"/>
        <pt x="192" y="363" on="1"/>
        <pt x="192" y="367" on="1"/>
        <pt x="116" y="396" on="1"/>
        <pt x="140" y="529" on="0"/>
        <pt x="247" y="625" on="0"/>
        <pt x="425" y="625" on="0"/>
        <pt x="516" y="604" on="1"/>
        <pt x="462" y="462" on="1"/>
        <pt x="378" y="462" on="1"/>
        <pt x="347" y="462" on="0"/>
        <pt x="317" y="445" on="0"/>
        <pt x="313" y="420" on="1"/>
        <pt x="307" y="382" on="1"/>
        <pt x="655" y="382" on="1"/>
        <pt x="609" y="242" on="1"/>
        <pt x="543" y="242" on="1"/>
        <pt x="483" y="-100" on="1"/>
      </contour>
      <contour>
        <pt x="293" y="143" on="1"/>
        <pt x="329" y="143" on="0"/>
        <pt x="363" y="148" on="1"/>
        <pt x="363" y="242" on="1"/>
        <pt x="252" y="242" on="1"/>
        <pt x="241" y="202" on="0"/>
        <pt x="241" y="180" on="1"/>
        <pt x="241" y="143" on="0"/>
      </contour>
    </TTGlyph>
    <TTGlyph name="apple" xMin="100" yMin="-114" xMax="823" yMax="608">
      <contour>
        <pt x="589" y="-89" on="1"/>
        <pt x="566" y="-88" on="1"/>
        <pt x="552" y="-88" on="0"/>
        <pt x="517" y="-112" on="0"/>
        <pt x="508" y="-112" on="1"/>
        <pt x="462" y="-102" on="1"/>
        <pt x="454" y="-102" on="0"/>
        <pt x="423" y="-114" on="0"/>
        <pt x="406" y="-114" on="0"/>
        <pt x="374" y="-89" on="0"/>
        <pt x="361" y="-89" on="1"/>
        <pt x="337" y="-91" on="1"/>
        <pt x="322" y="-91" on="0"/>
        <pt x="304" y="-74" on="1"/>
        <pt x="286" y="-55" on="1"/>
        <pt x="274" y="-49" on="0"/>
        <pt x="248" y="-47" on="0"/>
        <pt x="230" y="-36" on="0"/>
        <pt x="216" y="-1" on="0"/>
        <pt x="205" y="8" on="0"/>
        <pt x="177" y="19" on="0"/>
        <pt x="171" y="28" on="1"/>
        <pt x="166" y="37" on="0"/>
        <pt x="162" y="66" on="0"/>
        <pt x="154" y="79" on="0"/>
        <pt x="144" y="86" on="1"/>
        <pt x="122" y="104" on="0"/>
        <pt x="122" y="124" on="1"/>
        <pt x="125" y="149" on="1"/>
        <pt x="125" y="158" on="0"/>
        <pt x="100" y="193" on="0"/>
        <pt x="100" y="211" on="0"/>
        <pt x="112" y="240" on="0"/>
        <pt x="112" y="257" on="0"/>
        <pt x="100" y="283" on="0"/>
        <pt x="100" y="301" on="0"/>
        <pt x="125" y="342" on="0"/>
        <pt x="125" y="351" on="1"/>
        <pt x="124" y="376" on="1"/>
        <pt x="124" y="391" on="0"/>
        <pt x="157" y="420" on="0"/>
        <pt x="162" y="430" on="0"/>
        <pt x="166" y="462" on="0"/>
        <pt x="174" y="474" on="0"/>
        <pt x="205" y="486" on="0"/>
        <pt x="215" y="496" on="0"/>
        <pt x="229" y="527" on="0"/>
        <pt x="242" y="538" on="0"/>
        <pt x="280" y="546" on="0"/>
        <pt x="291" y="552" on="0"/>
        <pt x="321" y="586" on="0"/>
        <pt x="335" y="587" on="1"/>
        <pt x="361" y="585" on="1"/>
        <pt x="374" y="585" on="0"/>
        <pt x="405" y="608" on="0"/>
        <pt x="416" y="608" on="1"/>
        <pt x="460" y="596" on="1"/>
        <pt x="505" y="608" on="1"/>
        <pt x="518" y="608" on="0"/>
        <pt x="550" y="583" on="0"/>
        <pt x="562" y="583" on="1"/>
        <pt x="590" y="586" on="1"/>
        <pt x="606" y="586" on="0"/>
        <pt x="632" y="553" on="0"/>
        <pt x="645" y="546" on="0"/>
        <pt x="675" y="540" on="0"/>
        <pt x="690" y="530" on="0"/>
        <pt x="700" y="502" on="0"/>
        <pt x="711" y="492" on="0"/>
        <pt x="751" y="471" on="0"/>
        <pt x="760" y="455" on="0"/>
        <pt x="761" y="423" on="0"/>
        <pt x="766" y="414" on="0"/>
        <pt x="800" y="385" on="0"/>
        <pt x="800" y="369" on="1"/>
        <pt x="799" y="344" on="1"/>
        <pt x="799" y="331" on="0"/>
        <pt x="823" y="294" on="0"/>
        <pt x="823" y="276" on="0"/>
        <pt x="812" y="250" on="0"/>
        <pt x="812" y="236" on="0"/>
        <pt x="823" y="207" on="0"/>
        <pt x="822" y="191" on="0"/>
        <pt x="798" y="166" on="0"/>
        <pt x="798" y="152" on="1"/>
        <pt x="800" y="120" on="1"/>
        <pt x="800" y="104" on="0"/>
        <pt x="768" y="78" on="0"/>
        <pt x="763" y="68" on="0"/>
        <pt x="754" y="30" on="0"/>
        <pt x="743" y="17" on="0"/>
        <pt x="718" y="6" on="0"/>
        <pt x="708" y="-4" on="0"/>
        <pt x="690" y="-37" on="0"/>
        <pt x="676" y="-47" on="0"/>
        <pt x="641" y="-56" on="0"/>
        <pt x="631" y="-62" on="0"/>
        <pt x="604" y="-89" on="0"/>
      </contour>
      <contour>
        <pt x="462" y="-6" on="1"/>
        <pt x="495" y="-13" on="1"/>
        <pt x="501" y="-13" on="0"/>
        <pt x="512" y="-6" on="1"/>
        <pt x="527" y="4" on="0"/>
        <pt x="539" y="4" on="1"/>
        <pt x="554" y="3" on="1"/>
        <pt x="566" y="3" on="0"/>
        <pt x="584" y="23" on="0"/>
        <pt x="591" y="27" on="0"/>
        <pt x="617" y="34" on="0"/>
        <pt x="628" y="42" on="0"/>
        <pt x="641" y="65" on="0"/>
        <pt x="648" y="72" on="0"/>
        <pt x="666" y="80" on="0"/>
        <pt x="674" y="89" on="0"/>
        <pt x="680" y="117" on="0"/>
        <pt x="685" y="125" on="0"/>
        <pt x="707" y="143" on="0"/>
        <pt x="707" y="157" on="1"/>
        <pt x="706" y="177" on="1"/>
        <pt x="706" y="188" on="0"/>
        <pt x="723" y="207" on="0"/>
        <pt x="724" y="213" on="1"/>
        <pt x="716" y="245" on="1"/>
        <pt x="724" y="273" on="1"/>
        <pt x="724" y="281" on="0"/>
        <pt x="706" y="309" on="0"/>
        <pt x="706" y="318" on="1"/>
        <pt x="707" y="335" on="1"/>
        <pt x="707" y="347" on="0"/>
        <pt x="683" y="367" on="0"/>
        <pt x="679" y="375" on="0"/>
        <pt x="678" y="398" on="0"/>
        <pt x="672" y="409" on="0"/>
        <pt x="643" y="424" on="0"/>
        <pt x="635" y="432" on="0"/>
        <pt x="627" y="452" on="0"/>
        <pt x="617" y="460" on="0"/>
        <pt x="595" y="464" on="0"/>
        <pt x="585" y="469" on="0"/>
        <pt x="567" y="493" on="0"/>
        <pt x="555" y="493" on="1"/>
        <pt x="535" y="491" on="1"/>
        <pt x="526" y="491" on="0"/>
        <pt x="504" y="509" on="0"/>
        <pt x="494" y="509" on="1"/>
        <pt x="461" y="500" on="1"/>
        <pt x="429" y="509" on="1"/>
        <pt x="421" y="509" on="0"/>
        <pt x="397" y="492" on="0"/>
        <pt x="387" y="492" on="1"/>
        <pt x="370" y="493" on="1"/>
        <pt x="359" y="493" on="0"/>
        <pt x="338" y="468" on="0"/>
        <pt x="329" y="463" on="0"/>
        <pt x="303" y="458" on="0"/>
        <pt x="293" y="450" on="0"/>
        <pt x="283" y="428" on="0"/>
        <pt x="275" y="420" on="0"/>
        <pt x="254" y="412" on="0"/>
        <pt x="250" y="407" on="1"/>
        <pt x="248" y="403" on="0"/>
        <pt x="244" y="380" on="0"/>
        <pt x="240" y="372" on="0"/>
        <pt x="216" y="351" on="0"/>
        <pt x="216" y="340" on="1"/>
        <pt x="217" y="324" on="1"/>
        <pt x="217" y="316" on="0"/>
        <pt x="200" y="286" on="0"/>
        <pt x="200" y="278" on="1"/>
        <pt x="208" y="248" on="1"/>
        <pt x="200" y="215" on="1"/>
        <pt x="200" y="207" on="0"/>
        <pt x="217" y="182" on="0"/>
        <pt x="217" y="174" on="1"/>
        <pt x="215" y="158" on="1"/>
        <pt x="215" y="147" on="0"/>
        <pt x="240" y="124" on="0"/>
        <pt x="244" y="116" on="0"/>
        <pt x="247" y="95" on="0"/>
        <pt x="255" y="82" on="0"/>
        <pt x="275" y="74" on="0"/>
        <pt x="283" y="67" on="0"/>
        <pt x="294" y="41" on="0"/>
        <pt x="306" y="33" on="0"/>
        <pt x="325" y="33" on="0"/>
        <pt x="337" y="27" on="0"/>
        <pt x="360" y="2" on="0"/>
        <pt x="371" y="2" on="1"/>
        <pt x="386" y="3" on="1"/>
        <pt x="396" y="3" on="0"/>
        <pt x="420" y="-14" on="0"/>
        <pt x="426" y="-15" on="1"/>
      </contour>
      <contour>
        <pt x="392" y="417" on="0"/>
        <pt x="532" y="417" on="0"/>
        <pt x="632" y="318" on="0"/>
        <pt x="632" y="176" on="0"/>
        <pt x="532" y="77" on="0"/>
        <pt x="392" y="77" on="0"/>
        <pt x="292" y="176" on="0"/>
        <pt x="292" y="318" on="0"/>
      </contour>
      <contour>
        <pt x="505" y="292" on="1"/>
        <pt x="557" y="292" on="1"/>
        <pt x="557" y="360" on="1"/>
        <pt x="366" y="360" on="1"/>
        <pt x="366" y="292" on="1"/>
        <pt x="420" y="292" on="1"/>
        <pt x="420" y="117" on="1"/>
        <pt x="505" y="117" on="1"/>
      </contour>
    </TTGlyph>
    <TTGlyph name="approxequal" xMin="50" yMin="83" xMax="550" yMax="540">
      <contour>
        <pt x="50" y="121" on="1"/>
        <pt x="75" y="265" on="1"/>
        <pt x="110" y="227" on="0"/>
        <pt x="202" y="227" on="0"/>
        <pt x="382" y="302" on="0"/>
        <pt x="472" y="302" on="0"/>
        <pt x="508" y="265" on="1"/>
        <pt x="483" y="121" on="1"/>
        <pt x="447" y="158" on="0"/>
        <pt x="356" y="158" on="0"/>
        <pt x="176" y="83" on="0"/>
        <pt x="85" y="83" on="0"/>
      </contour>
      <contour>
        <pt x="92" y="359" on="1"/>
        <pt x="117" y="503" on="1"/>
        <pt x="152" y="465" on="0"/>
        <pt x="244" y="465" on="0"/>
        <pt x="424" y="540" on="0"/>
        <pt x="514" y="540" on="0"/>
        <pt x="550" y="503" on="1"/>
        <pt x="525" y="359" on="1"/>
        <pt x="489" y="396" on="0"/>
        <pt x="398" y="396" on="0"/>
        <pt x="218" y="321" on="0"/>
        <pt x="127" y="321" on="0"/>
      </contour>
    </TTGlyph>
    <TTGlyph name="aring" xMin="27" yMin="-15" xMax="565" yMax="758">
      <contour>
        <pt x="565" y="475" on="1"/>
        <pt x="482" y="0" on="1"/>
        <pt x="387" y="0" on="1"/>
        <pt x="342" y="57" on="1"/>
        <pt x="310" y="22" on="0"/>
        <pt x="245" y="-15" on="0"/>
        <pt x="194" y="-15" on="1"/>
        <pt x="104" y="-15" on="0"/>
        <pt x="27" y="85" on="0"/>
        <pt x="27" y="165" on="1"/>
        <pt x="27" y="308" on="0"/>
        <pt x="180" y="515" on="0"/>
        <pt x="316" y="515" on="1"/>
        <pt x="431" y="515" on="0"/>
      </contour>
      <contour>
        <pt x="254" y="327" on="1"/>
        <pt x="220" y="131" on="1"/>
        <pt x="249" y="131" on="1"/>
        <pt x="271" y="131" on="0"/>
        <pt x="295" y="134" on="0"/>
        <pt x="318" y="151" on="0"/>
        <pt x="321" y="167" on="1"/>
        <pt x="357" y="369" on="1"/>
        <pt x="327" y="369" on="1"/>
        <pt x="293" y="369" on="0"/>
        <pt x="259" y="354" on="0"/>
      </contour>
      <contour>
        <pt x="335" y="664" on="1"/>
        <pt x="323" y="596" on="1"/>
        <pt x="363" y="596" on="1"/>
        <pt x="390" y="596" on="0"/>
        <pt x="405" y="610" on="0"/>
        <pt x="407" y="622" on="1"/>
        <pt x="419" y="689" on="1"/>
        <pt x="382" y="689" on="1"/>
        <pt x="353" y="689" on="0"/>
        <pt x="337" y="675" on="0"/>
      </contour>
      <contour>
        <pt x="392" y="758" on="1"/>
        <pt x="485" y="758" on="0"/>
        <pt x="485" y="678" on="1"/>
        <pt x="485" y="604" on="0"/>
        <pt x="415" y="527" on="0"/>
        <pt x="351" y="527" on="1"/>
        <pt x="258" y="527" on="0"/>
        <pt x="258" y="607" on="1"/>
        <pt x="258" y="681" on="0"/>
        <pt x="328" y="758" on="0"/>
      </contour>
    </TTGlyph>
    <TTGlyph name="asciicircum" xMin="62" yMin="218" xMax="528" yMax="587">
      <contour>
        <pt x="528" y="262" on="1"/>
        <pt x="392" y="218" on="1"/>
        <pt x="329" y="442" on="1"/>
        <pt x="323" y="442" on="1"/>
        <pt x="181" y="218" on="1"/>
        <pt x="62" y="262" on="1"/>
        <pt x="265" y="587" on="1"/>
        <pt x="438" y="587" on="1"/>
      </contour>
    </TTGlyph>
    <TTGlyph name="asciitilde" xMin="23" yMin="202" xMax="578" yMax="423">
      <contour>
        <pt x="383" y="203" on="1"/>
        <pt x="348" y="203" on="0"/>
        <pt x="282" y="236" on="0"/>
        <pt x="231" y="268" on="0"/>
        <pt x="212" y="268" on="1"/>
        <pt x="174" y="268" on="0"/>
        <pt x="108" y="202" on="1"/>
        <pt x="23" y="293" on="1"/>
        <pt x="107" y="390" on="0"/>
        <pt x="163" y="412" on="1"/>
        <pt x="189" y="423" on="0"/>
        <pt x="251" y="423" on="0"/>
        <pt x="360" y="354" on="0"/>
        <pt x="389" y="354" on="1"/>
        <pt x="435" y="354" on="0"/>
        <pt x="492" y="420" on="1"/>
        <pt x="578" y="330" on="1"/>
        <pt x="488" y="203" on="0"/>
      </contour>
    </TTGlyph>
    <TTGlyph name="asterisk" xMin="33" yMin="204" xMax="491" yMax="665">
      <contour>
        <pt x="357" y="580" on="1"/>
        <pt x="313" y="491" on="1"/>
        <pt x="395" y="548" on="1"/>
        <pt x="449" y="564" on="1"/>
        <pt x="452" y="565" on="0"/>
        <pt x="457" y="565" on="1"/>
        <pt x="475" y="565" on="0"/>
        <pt x="480" y="538" on="1"/>
        <pt x="490" y="467" on="1"/>
        <pt x="491" y="462" on="0"/>
        <pt x="491" y="453" on="1"/>
        <pt x="491" y="427" on="0"/>
        <pt x="470" y="422" on="1"/>
        <pt x="413" y="406" on="1"/>
        <pt x="323" y="406" on="1"/>
        <pt x="387" y="351" on="1"/>
        <pt x="411" y="304" on="1"/>
        <pt x="413" y="300" on="0"/>
        <pt x="413" y="276" on="0"/>
        <pt x="389" y="260" on="1"/>
        <pt x="325" y="216" on="1"/>
        <pt x="308" y="204" on="0"/>
        <pt x="287" y="204" on="0"/>
        <pt x="280" y="215" on="1"/>
        <pt x="249" y="263" on="1"/>
        <pt x="242" y="345" on="1"/>
        <pt x="203" y="262" on="1"/>
        <pt x="163" y="216" on="1"/>
        <pt x="154" y="205" on="0"/>
        <pt x="131" y="205" on="0"/>
        <pt x="119" y="216" on="1"/>
        <pt x="68" y="260" on="1"/>
        <pt x="53" y="272" on="0"/>
        <pt x="53" y="295" on="0"/>
        <pt x="62" y="304" on="1"/>
        <pt x="103" y="351" on="1"/>
        <pt x="182" y="404" on="1"/>
        <pt x="96" y="404" on="1"/>
        <pt x="47" y="422" on="1"/>
        <pt x="33" y="427" on="0"/>
        <pt x="33" y="450" on="0"/>
        <pt x="41" y="466" on="1"/>
        <pt x="75" y="538" on="1"/>
        <pt x="89" y="567" on="0"/>
        <pt x="105" y="567" on="1"/>
        <pt x="107" y="567" on="0"/>
        <pt x="115" y="565" on="1"/>
        <pt x="166" y="547" on="1"/>
        <pt x="226" y="492" on="1"/>
        <pt x="214" y="580" on="1"/>
        <pt x="224" y="638" on="1"/>
        <pt x="228" y="665" on="0"/>
        <pt x="265" y="665" on="1"/>
        <pt x="337" y="665" on="1"/>
        <pt x="367" y="665" on="0"/>
        <pt x="367" y="644" on="1"/>
        <pt x="367" y="640" on="0"/>
      </contour>
    </TTGlyph>
    <TTGlyph name="at" xMin="30" yMin="-165" xMax="821" yMax="600">
      <contour>
        <pt x="492" y="187" on="1"/>
        <pt x="483" y="131" on="1"/>
        <pt x="514" y="131" on="1"/>
        <pt x="546" y="131" on="0"/>
        <pt x="579" y="144" on="0"/>
        <pt x="585" y="167" on="1"/>
        <pt x="596" y="229" on="1"/>
        <pt x="566" y="229" on="1"/>
        <pt x="532" y="229" on="0"/>
        <pt x="496" y="214" on="0"/>
      </contour>
      <contour>
        <pt x="39" y="176" on="1"/>
        <pt x="53" y="259" on="1"/>
        <pt x="69" y="356" on="0"/>
        <pt x="154" y="494" on="0"/>
        <pt x="217" y="531" on="1"/>
        <pt x="334" y="600" on="0"/>
        <pt x="670" y="600" on="0"/>
        <pt x="821" y="525" on="0"/>
        <pt x="821" y="445" on="1"/>
        <pt x="821" y="433" on="0"/>
        <pt x="817" y="407" on="1"/>
        <pt x="746" y="0" on="1"/>
        <pt x="651" y="0" on="1"/>
        <pt x="608" y="63" on="1"/>
        <pt x="538" y="-9" on="0"/>
        <pt x="428" y="-9" on="1"/>
        <pt x="307" y="-9" on="0"/>
        <pt x="307" y="108" on="1"/>
        <pt x="307" y="232" on="0"/>
        <pt x="452" y="350" on="0"/>
        <pt x="579" y="350" on="1"/>
        <pt x="617" y="350" on="1"/>
        <pt x="630" y="423" on="1"/>
        <pt x="583" y="433" on="0"/>
        <pt x="456" y="433" on="0"/>
        <pt x="407" y="430" on="0"/>
        <pt x="344" y="414" on="0"/>
        <pt x="324" y="400" on="1"/>
        <pt x="276" y="365" on="0"/>
        <pt x="263" y="290" on="1"/>
        <pt x="228" y="93" on="1"/>
        <pt x="224" y="74" on="0"/>
        <pt x="224" y="26" on="0"/>
        <pt x="246" y="-15" on="0"/>
        <pt x="277" y="-36" on="0"/>
        <pt x="304" y="-42" on="1"/>
        <pt x="340" y="-50" on="0"/>
        <pt x="409" y="-50" on="1"/>
        <pt x="588" y="-50" on="1"/>
        <pt x="571" y="-144" on="1"/>
        <pt x="468" y="-165" on="0"/>
        <pt x="314" y="-165" on="0"/>
        <pt x="214" y="-150" on="0"/>
        <pt x="125" y="-115" on="0"/>
        <pt x="95" y="-86" on="1"/>
        <pt x="30" y="-25" on="0"/>
        <pt x="30" y="88" on="1"/>
        <pt x="30" y="118" on="0"/>
      </contour>
    </TTGlyph>
    <TTGlyph name="atilde" xMin="27" yMin="-15" xMax="565" yMax="721">
      <contour>
        <pt x="565" y="475" on="1"/>
        <pt x="482" y="0" on="1"/>
        <pt x="387" y="0" on="1"/>
        <pt x="342" y="57" on="1"/>
        <pt x="310" y="22" on="0"/>
        <pt x="245" y="-15" on="0"/>
        <pt x="194" y="-15" on="1"/>
        <pt x="104" y="-15" on="0"/>
        <pt x="27" y="85" on="0"/>
        <pt x="27" y="165" on="1"/>
        <pt x="27" y="308" on="0"/>
        <pt x="180" y="515" on="0"/>
        <pt x="316" y="515" on="1"/>
        <pt x="431" y="515" on="0"/>
      </contour>
      <contour>
        <pt x="254" y="327" on="1"/>
        <pt x="220" y="131" on="1"/>
        <pt x="249" y="131" on="1"/>
        <pt x="271" y="131" on="0"/>
        <pt x="295" y="134" on="0"/>
        <pt x="318" y="151" on="0"/>
        <pt x="321" y="167" on="1"/>
        <pt x="357" y="369" on="1"/>
        <pt x="327" y="369" on="1"/>
        <pt x="293" y="369" on="0"/>
        <pt x="259" y="354" on="0"/>
      </contour>
      <contour>
        <pt x="434" y="676" on="1"/>
        <pt x="520" y="716" on="1"/>
        <pt x="553" y="635" on="1"/>
        <pt x="424" y="554" on="0"/>
        <pt x="395" y="543" on="0"/>
        <pt x="370" y="543" on="0"/>
        <pt x="354" y="547" on="0"/>
        <pt x="338" y="558" on="0"/>
        <pt x="333" y="562" on="1"/>
        <pt x="325" y="567" on="0"/>
        <pt x="304" y="588" on="1"/>
        <pt x="219" y="548" on="1"/>
        <pt x="185" y="629" on="1"/>
        <pt x="314" y="710" on="0"/>
        <pt x="343" y="721" on="0"/>
        <pt x="368" y="721" on="0"/>
        <pt x="384" y="717" on="0"/>
        <pt x="400" y="706" on="0"/>
        <pt x="405" y="702" on="1"/>
        <pt x="413" y="697" on="0"/>
      </contour>
    </TTGlyph>
    <TTGlyph name="b" xMin="20" yMin="-15" xMax="557" yMax="665">
      <contour>
        <pt x="20" y="25" on="1"/>
        <pt x="130" y="650" on="1"/>
        <pt x="323" y="665" on="1"/>
        <pt x="293" y="499" on="1"/>
        <pt x="332" y="515" on="0"/>
        <pt x="391" y="515" on="1"/>
        <pt x="557" y="515" on="0"/>
        <pt x="557" y="331" on="1"/>
        <pt x="557" y="129" on="0"/>
        <pt x="433" y="35" on="1"/>
        <pt x="367" y="-15" on="0"/>
        <pt x="272" y="-15" on="1"/>
        <pt x="128" y="-15" on="0"/>
      </contour>
      <contour>
        <pt x="264" y="332" on="1"/>
        <pt x="229" y="131" on="1"/>
        <pt x="259" y="131" on="1"/>
        <pt x="293" y="131" on="0"/>
        <pt x="326" y="146" on="0"/>
        <pt x="331" y="173" on="1"/>
        <pt x="366" y="369" on="1"/>
        <pt x="337" y="369" on="1"/>
        <pt x="296" y="369" on="0"/>
        <pt x="268" y="348" on="0"/>
      </contour>
    </TTGlyph>
    <TTGlyph name="backslash" xMin="0" yMin="-40" xMax="503" yMax="665">
      <contour>
        <pt x="389" y="-15" on="1"/>
        <pt x="0" y="665" on="1"/>
        <pt x="71" y="665" on="1"/>
        <pt x="90" y="665" on="0"/>
        <pt x="106" y="654" on="0"/>
        <pt x="114" y="640" on="1"/>
        <pt x="503" y="-40" on="1"/>
        <pt x="432" y="-40" on="1"/>
        <pt x="413" y="-40" on="0"/>
        <pt x="397" y="-29" on="0"/>
      </contour>
    </TTGlyph>
    <TTGlyph name="bar" xMin="67" yMin="-180" xMax="337" yMax="704">
      <contour>
        <pt x="67" y="-180" on="1"/>
        <pt x="223" y="704" on="1"/>
        <pt x="337" y="704" on="1"/>
        <pt x="181" y="-180" on="1"/>
      </contour>
    </TTGlyph>
    <TTGlyph name="braceleft" xMin="-18" yMin="-76" xMax="344" yMax="680">
      <contour>
        <pt x="168" y="78" on="1"/>
        <pt x="246" y="71" on="1"/>
        <pt x="211" y="-76" on="1"/>
        <pt x="112" y="-76" on="0"/>
        <pt x="22" y="-56" on="0"/>
        <pt x="-11" y="-19" on="0"/>
        <pt x="-11" y="10" on="1"/>
        <pt x="-11" y="18" on="0"/>
        <pt x="42" y="229" on="1"/>
        <pt x="-18" y="245" on="1"/>
        <pt x="2" y="357" on="1"/>
        <pt x="67" y="373" on="1"/>
        <pt x="88" y="575" on="1"/>
        <pt x="96" y="647" on="0"/>
        <pt x="175" y="666" on="1"/>
        <pt x="216" y="675" on="0"/>
        <pt x="285" y="680" on="0"/>
        <pt x="344" y="680" on="1"/>
        <pt x="327" y="533" on="1"/>
        <pt x="324" y="533" on="0"/>
        <pt x="247" y="526" on="1"/>
        <pt x="235" y="409" on="1"/>
        <pt x="230" y="366" on="0"/>
        <pt x="197" y="322" on="0"/>
        <pt x="169" y="307" on="1"/>
        <pt x="167" y="295" on="1"/>
        <pt x="204" y="267" on="0"/>
        <pt x="204" y="218" on="1"/>
        <pt x="204" y="201" on="0"/>
        <pt x="197" y="175" on="1"/>
      </contour>
    </TTGlyph>
    <TTGlyph name="braceright" xMin="-15" yMin="-76" xMax="347" yMax="680">
      <contour>
        <pt x="161" y="526" on="1"/>
        <pt x="83" y="533" on="1"/>
        <pt x="118" y="680" on="1"/>
        <pt x="217" y="680" on="0"/>
        <pt x="307" y="660" on="0"/>
        <pt x="340" y="623" on="0"/>
        <pt x="340" y="594" on="1"/>
        <pt x="340" y="586" on="0"/>
        <pt x="287" y="375" on="1"/>
        <pt x="347" y="359" on="1"/>
        <pt x="327" y="247" on="1"/>
        <pt x="262" y="231" on="1"/>
        <pt x="241" y="29" on="1"/>
        <pt x="233" y="-43" on="0"/>
        <pt x="154" y="-62" on="1"/>
        <pt x="113" y="-71" on="0"/>
        <pt x="44" y="-76" on="0"/>
        <pt x="-15" y="-76" on="1"/>
        <pt x="2" y="71" on="1"/>
        <pt x="5" y="71" on="0"/>
        <pt x="82" y="78" on="1"/>
        <pt x="94" y="195" on="1"/>
        <pt x="99" y="238" on="0"/>
        <pt x="132" y="282" on="0"/>
        <pt x="160" y="297" on="1"/>
        <pt x="162" y="309" on="1"/>
        <pt x="125" y="337" on="0"/>
        <pt x="125" y="386" on="1"/>
        <pt x="125" y="403" on="0"/>
        <pt x="132" y="429" on="1"/>
      </contour>
    </TTGlyph>
    <TTGlyph name="bracketleft" xMin="-11" yMin="-76" xMax="344" yMax="680">
      <contour>
        <pt x="-9" y="29" on="1"/>
        <pt x="88" y="575" on="1"/>
        <pt x="100" y="637" on="0"/>
        <pt x="158" y="658" on="1"/>
        <pt x="216" y="680" on="0"/>
        <pt x="344" y="680" on="1"/>
        <pt x="327" y="533" on="1"/>
        <pt x="324" y="533" on="0"/>
        <pt x="247" y="526" on="1"/>
        <pt x="168" y="78" on="1"/>
        <pt x="246" y="71" on="1"/>
        <pt x="211" y="-76" on="1"/>
        <pt x="112" y="-76" on="0"/>
        <pt x="22" y="-56" on="0"/>
        <pt x="-11" y="-19" on="0"/>
        <pt x="-11" y="10" on="1"/>
        <pt x="-11" y="15" on="0"/>
      </contour>
    </TTGlyph>
    <TTGlyph name="bracketright" xMin="-5" yMin="-76" xMax="350" yMax="680">
      <contour>
        <pt x="348" y="575" on="1"/>
        <pt x="251" y="29" on="1"/>
        <pt x="243" y="-21" on="0"/>
        <pt x="204" y="-43" on="1"/>
        <pt x="163" y="-66" on="0"/>
        <pt x="122" y="-70" on="1"/>
        <pt x="60" y="-76" on="0"/>
        <pt x="-5" y="-76" on="1"/>
        <pt x="12" y="71" on="1"/>
        <pt x="92" y="78" on="1"/>
        <pt x="171" y="526" on="1"/>
        <pt x="96" y="533" on="0"/>
        <pt x="93" y="533" on="1"/>
        <pt x="128" y="680" on="1"/>
        <pt x="227" y="680" on="0"/>
        <pt x="317" y="660" on="0"/>
        <pt x="350" y="623" on="0"/>
        <pt x="350" y="594" on="1"/>
        <pt x="350" y="589" on="0"/>
      </contour>
    </TTGlyph>
    <TTGlyph name="breve" xMin="40" yMin="550" xMax="365" yMax="704">
      <contour>
        <pt x="144" y="704" on="1"/>
        <pt x="145" y="678" on="0"/>
        <pt x="174" y="649" on="0"/>
        <pt x="216" y="649" on="0"/>
        <pt x="256" y="678" on="0"/>
        <pt x="267" y="704" on="1"/>
        <pt x="365" y="689" on="1"/>
        <pt x="338" y="622" on="0"/>
        <pt x="234" y="550" on="0"/>
        <pt x="121" y="550" on="0"/>
        <pt x="43" y="622" on="0"/>
        <pt x="40" y="689" on="1"/>
      </contour>
    </TTGlyph>
    <TTGlyph name="brokenbar" xMin="68" yMin="-180" xMax="338" yMax="704">
      <contour>
        <pt x="164" y="368" on="1"/>
        <pt x="224" y="704" on="1"/>
        <pt x="338" y="704" on="1"/>
        <pt x="278" y="368" on="1"/>
      </contour>
      <contour>
        <pt x="68" y="-180" on="1"/>
        <pt x="127" y="156" on="1"/>
        <pt x="241" y="156" on="1"/>
        <pt x="182" y="-180" on="1"/>
      </contour>
    </TTGlyph>
    <TTGlyph name="bullet" xMin="20" yMin="112" xMax="300" yMax="388">
      <contour>
        <pt x="20" y="195" on="1"/>
        <pt x="20" y="388" on="0"/>
        <pt x="186" y="388" on="1"/>
        <pt x="249" y="388" on="0"/>
        <pt x="300" y="349" on="0"/>
        <pt x="300" y="305" on="1"/>
        <pt x="300" y="214" on="0"/>
        <pt x="228" y="112" on="0"/>
        <pt x="137" y="112" on="1"/>
        <pt x="72" y="112" on="0"/>
        <pt x="20" y="150" on="0"/>
      </contour>
    </TTGlyph>
    <TTGlyph name="c" xMin="35" yMin="-15" xMax="466" yMax="515">
      <contour>
        <pt x="393" y="150" on="1"/>
        <pt x="380" y="6" on="1"/>
        <pt x="325" y="-15" on="0"/>
        <pt x="248" y="-15" on="1"/>
        <pt x="138" y="-15" on="0"/>
        <pt x="35" y="76" on="0"/>
        <pt x="35" y="167" on="1"/>
        <pt x="35" y="316" on="0"/>
        <pt x="183" y="515" on="0"/>
        <pt x="326" y="515" on="1"/>
        <pt x="424" y="515" on="0"/>
        <pt x="466" y="494" on="1"/>
        <pt x="419" y="358" on="1"/>
        <pt x="369" y="369" on="0"/>
        <pt x="341" y="369" on="1"/>
        <pt x="268" y="369" on="0"/>
        <pt x="259" y="316" on="1"/>
        <pt x="228" y="137" on="1"/>
        <pt x="254" y="131" on="0"/>
        <pt x="341" y="131" on="0"/>
      </contour>
    </TTGlyph>
    <TTGlyph name="caron" xMin="57" yMin="537" xMax="348" yMax="740">
      <contour>
        <pt x="198" y="537" on="1"/>
        <pt x="153" y="537" on="1"/>
        <pt x="146" y="537" on="0"/>
        <pt x="139" y="546" on="1"/>
        <pt x="57" y="691" on="1"/>
        <pt x="123" y="740" on="1"/>
        <pt x="200" y="677" on="1"/>
        <pt x="300" y="740" on="1"/>
        <pt x="348" y="691" on="1"/>
        <pt x="215" y="546" on="1"/>
        <pt x="206" y="537" on="0"/>
      </contour>
    </TTGlyph>
    <TTGlyph name="ccedilla" xMin="35" yMin="-165" xMax="466" yMax="515">
      <contour>
        <pt x="162" y="-26" on="1"/>
        <pt x="165" y="-6" on="1"/>
        <pt x="35" y="23" on="0"/>
        <pt x="35" y="316" on="0"/>
        <pt x="183" y="515" on="0"/>
        <pt x="326" y="515" on="1"/>
        <pt x="424" y="515" on="0"/>
        <pt x="466" y="494" on="1"/>
        <pt x="419" y="358" on="1"/>
        <pt x="369" y="369" on="0"/>
        <pt x="341" y="369" on="1"/>
        <pt x="268" y="369" on="0"/>
        <pt x="259" y="316" on="1"/>
        <pt x="228" y="137" on="1"/>
        <pt x="254" y="131" on="0"/>
        <pt x="341" y="131" on="0"/>
        <pt x="393" y="150" on="1"/>
        <pt x="380" y="6" on="1"/>
        <pt x="329" y="-13" on="0"/>
        <pt x="271" y="-14" on="1"/>
        <pt x="285" y="-37" on="0"/>
        <pt x="285" y="-105" on="0"/>
        <pt x="221" y="-165" on="0"/>
        <pt x="114" y="-165" on="0"/>
        <pt x="68" y="-146" on="1"/>
        <pt x="94" y="-58" on="1"/>
        <pt x="125" y="-58" on="1"/>
        <pt x="145" y="-58" on="0"/>
        <pt x="158" y="-47" on="0"/>
      </contour>
    </TTGlyph>
    <TTGlyph name="cedilla" xMin="109" yMin="-165" xMax="326" yMax="21">
      <contour>
        <pt x="203" y="-26" on="1"/>
        <pt x="211" y="21" on="1"/>
        <pt x="269" y="21" on="1"/>
        <pt x="326" y="-3" on="0"/>
        <pt x="326" y="-64" on="1"/>
        <pt x="326" y="-105" on="0"/>
        <pt x="262" y="-165" on="0"/>
        <pt x="155" y="-165" on="0"/>
        <pt x="109" y="-146" on="1"/>
        <pt x="135" y="-58" on="1"/>
        <pt x="166" y="-58" on="1"/>
        <pt x="186" y="-58" on="0"/>
        <pt x="199" y="-47" on="0"/>
      </contour>
    </TTGlyph>
    <TTGlyph name="cent" xMin="25" yMin="-64" xMax="438" yMax="600">
      <contour>
        <pt x="219" y="504" on="1"/>
        <pt x="239" y="600" on="1"/>
        <pt x="361" y="600" on="1"/>
        <pt x="342" y="513" on="1"/>
        <pt x="395" y="508" on="0"/>
        <pt x="438" y="496" on="1"/>
        <pt x="385" y="351" on="1"/>
        <pt x="319" y="351" on="1"/>
        <pt x="301" y="351" on="0"/>
        <pt x="276" y="346" on="0"/>
        <pt x="252" y="323" on="0"/>
        <pt x="247" y="302" on="1"/>
        <pt x="222" y="189" on="1"/>
        <pt x="244" y="186" on="0"/>
        <pt x="321" y="186" on="0"/>
        <pt x="369" y="201" on="1"/>
        <pt x="349" y="56" on="1"/>
        <pt x="298" y="36" on="0"/>
        <pt x="241" y="35" on="1"/>
        <pt x="219" y="-64" on="1"/>
        <pt x="97" y="-64" on="1"/>
        <pt x="120" y="44" on="1"/>
        <pt x="25" y="67" on="0"/>
        <pt x="25" y="172" on="1"/>
        <pt x="25" y="233" on="0"/>
        <pt x="61" y="352" on="0"/>
        <pt x="101" y="428" on="0"/>
        <pt x="173" y="492" on="0"/>
      </contour>
    </TTGlyph>
    <TTGlyph name="circumflex" xMin="40" yMin="537" xMax="331" yMax="740">
      <contour>
        <pt x="190" y="740" on="1"/>
        <pt x="235" y="740" on="1"/>
        <pt x="243" y="740" on="0"/>
        <pt x="248" y="731" on="1"/>
        <pt x="331" y="586" on="1"/>
        <pt x="265" y="537" on="1"/>
        <pt x="187" y="600" on="1"/>
        <pt x="88" y="537" on="1"/>
        <pt x="40" y="586" on="1"/>
        <pt x="172" y="731" on="1"/>
        <pt x="180" y="740" on="0"/>
      </contour>
    </TTGlyph>
    <TTGlyph name="colon" xMin="31" yMin="-6" xMax="299" yMax="506">
      <contour>
        <pt x="35" y="99" on="1"/>
        <pt x="45" y="158" on="0"/>
        <pt x="96" y="206" on="0"/>
        <pt x="207" y="206" on="0"/>
        <pt x="246" y="176" on="0"/>
        <pt x="246" y="120" on="0"/>
        <pt x="242" y="99" on="1"/>
        <pt x="232" y="40" on="0"/>
        <pt x="181" y="-6" on="0"/>
        <pt x="70" y="-6" on="0"/>
        <pt x="31" y="23" on="0"/>
        <pt x="31" y="78" on="0"/>
      </contour>
      <contour>
        <pt x="88" y="399" on="1"/>
        <pt x="98" y="458" on="0"/>
        <pt x="149" y="506" on="0"/>
        <pt x="260" y="506" on="0"/>
        <pt x="299" y="476" on="0"/>
        <pt x="299" y="420" on="0"/>
        <pt x="295" y="399" on="1"/>
        <pt x="285" y="340" on="0"/>
        <pt x="234" y="294" on="0"/>
        <pt x="123" y="294" on="0"/>
        <pt x="84" y="323" on="0"/>
        <pt x="84" y="378" on="0"/>
      </contour>
    </TTGlyph>
    <TTGlyph name="comma" xMin="24" yMin="-151" xMax="248" yMax="206">
      <contour>
        <pt x="37" y="99" on="1"/>
        <pt x="47" y="158" on="0"/>
        <pt x="98" y="206" on="0"/>
        <pt x="209" y="206" on="0"/>
        <pt x="248" y="176" on="0"/>
        <pt x="248" y="141" on="1"/>
        <pt x="248" y="72" on="0"/>
        <pt x="192" y="-15" on="1"/>
        <pt x="104" y="-151" on="1"/>
        <pt x="24" y="-122" on="1"/>
        <pt x="80" y="22" on="1"/>
        <pt x="34" y="30" on="0"/>
        <pt x="34" y="72" on="1"/>
        <pt x="34" y="84" on="0"/>
      </contour>
    </TTGlyph>
    <TTGlyph name="copyright" xMin="27" yMin="179" xMax="521" yMax="682">
      <contour>
        <pt x="244" y="364" on="1"/>
        <pt x="274" y="361" on="1"/>
        <pt x="312" y="361" on="0"/>
        <pt x="348" y="375" on="1"/>
        <pt x="339" y="288" on="1"/>
        <pt x="304" y="274" on="0"/>
        <pt x="198" y="274" on="0"/>
        <pt x="146" y="321" on="0"/>
        <pt x="146" y="371" on="1"/>
        <pt x="146" y="396" on="0"/>
        <pt x="152" y="431" on="1"/>
        <pt x="167" y="514" on="0"/>
        <pt x="237" y="588" on="0"/>
        <pt x="314" y="588" on="1"/>
        <pt x="364" y="588" on="0"/>
        <pt x="390" y="574" on="1"/>
        <pt x="362" y="496" on="1"/>
        <pt x="335" y="503" on="0"/>
        <pt x="285" y="503" on="0"/>
        <pt x="267" y="495" on="0"/>
        <pt x="265" y="484" on="1"/>
      </contour>
      <contour>
        <pt x="27" y="353" on="1"/>
        <pt x="27" y="492" on="0"/>
        <pt x="92" y="582" on="1"/>
        <pt x="126" y="629" on="0"/>
        <pt x="242" y="682" on="0"/>
        <pt x="320" y="682" on="1"/>
        <pt x="424" y="682" on="0"/>
        <pt x="521" y="597" on="0"/>
        <pt x="521" y="442" on="0"/>
        <pt x="490" y="327" on="0"/>
        <pt x="424" y="233" on="0"/>
        <pt x="309" y="179" on="0"/>
        <pt x="231" y="179" on="1"/>
        <pt x="125" y="179" on="0"/>
        <pt x="27" y="265" on="0"/>
      </contour>
      <contour>
        <pt x="312" y="636" on="1"/>
        <pt x="188" y="636" on="0"/>
        <pt x="75" y="495" on="0"/>
        <pt x="75" y="356" on="1"/>
        <pt x="75" y="284" on="0"/>
        <pt x="152" y="225" on="0"/>
        <pt x="239" y="225" on="1"/>
        <pt x="363" y="225" on="0"/>
        <pt x="474" y="367" on="0"/>
        <pt x="474" y="507" on="1"/>
        <pt x="474" y="578" on="0"/>
        <pt x="397" y="636" on="0"/>
      </contour>
    </TTGlyph>
    <TTGlyph name="d" xMin="35" yMin="-15" xMax="606" yMax="665">
      <contour>
        <pt x="489" y="0" on="1"/>
        <pt x="394" y="0" on="1"/>
        <pt x="360" y="42" on="1"/>
        <pt x="308" y="-15" on="0"/>
        <pt x="201" y="-15" on="1"/>
        <pt x="35" y="-15" on="0"/>
        <pt x="35" y="168" on="1"/>
        <pt x="35" y="240" on="0"/>
        <pt x="75" y="368" on="0"/>
        <pt x="125" y="445" on="0"/>
        <pt x="217" y="500" on="0"/>
        <pt x="277" y="500" on="1"/>
        <pt x="387" y="500" on="1"/>
        <pt x="413" y="650" on="1"/>
        <pt x="606" y="665" on="1"/>
      </contour>
      <contour>
        <pt x="261" y="327" on="1"/>
        <pt x="227" y="131" on="1"/>
        <pt x="256" y="131" on="1"/>
        <pt x="288" y="131" on="0"/>
        <pt x="322" y="144" on="0"/>
        <pt x="328" y="167" on="1"/>
        <pt x="364" y="369" on="1"/>
        <pt x="334" y="369" on="1"/>
        <pt x="300" y="369" on="0"/>
        <pt x="266" y="354" on="0"/>
      </contour>
    </TTGlyph>
    <TTGlyph name="dagger" xMin="45" yMin="-50" xMax="534" yMax="665">
      <contour>
        <pt x="501" y="330" on="1"/>
        <pt x="351" y="350" on="1"/>
        <pt x="311" y="-50" on="1"/>
        <pt x="102" y="-50" on="1"/>
        <pt x="201" y="350" on="1"/>
        <pt x="45" y="330" on="1"/>
        <pt x="78" y="520" on="1"/>
        <pt x="228" y="500" on="1"/>
        <pt x="228" y="665" on="1"/>
        <pt x="437" y="665" on="1"/>
        <pt x="383" y="497" on="1"/>
        <pt x="534" y="520" on="1"/>
      </contour>
    </TTGlyph>
    <TTGlyph name="daggerdbl" xMin="2" yMin="-50" xMax="533" yMax="665">
      <contour>
        <pt x="500" y="330" on="1"/>
        <pt x="352" y="350" on="1"/>
        <pt x="342" y="307" on="1"/>
        <pt x="337" y="264" on="1"/>
        <pt x="492" y="285" on="1"/>
        <pt x="458" y="95" on="1"/>
        <pt x="324" y="116" on="1"/>
        <pt x="310" y="-50" on="1"/>
        <pt x="101" y="-50" on="1"/>
        <pt x="144" y="116" on="1"/>
        <pt x="2" y="95" on="1"/>
        <pt x="36" y="285" on="1"/>
        <pt x="184" y="265" on="1"/>
        <pt x="195" y="307" on="1"/>
        <pt x="199" y="350" on="1"/>
        <pt x="44" y="330" on="1"/>
        <pt x="77" y="520" on="1"/>
        <pt x="211" y="499" on="1"/>
        <pt x="227" y="665" on="1"/>
        <pt x="436" y="665" on="1"/>
        <pt x="391" y="499" on="1"/>
        <pt x="533" y="520" on="1"/>
      </contour>
    </TTGlyph>
    <TTGlyph name="degree" xMin="33" yMin="357" xMax="373" yMax="704">
      <contour>
        <pt x="33" y="477" on="1"/>
        <pt x="33" y="576" on="0"/>
        <pt x="134" y="704" on="0"/>
        <pt x="235" y="704" on="1"/>
        <pt x="307" y="704" on="0"/>
        <pt x="373" y="645" on="0"/>
        <pt x="373" y="585" on="1"/>
        <pt x="373" y="486" on="0"/>
        <pt x="273" y="357" on="0"/>
        <pt x="173" y="357" on="1"/>
        <pt x="100" y="357" on="0"/>
        <pt x="33" y="416" on="0"/>
      </contour>
      <contour>
        <pt x="149" y="562" on="1"/>
        <pt x="131" y="461" on="1"/>
        <pt x="191" y="461" on="1"/>
        <pt x="212" y="461" on="0"/>
        <pt x="233" y="464" on="0"/>
        <pt x="254" y="482" on="0"/>
        <pt x="257" y="500" on="1"/>
        <pt x="274" y="600" on="1"/>
        <pt x="220" y="600" on="1"/>
        <pt x="196" y="600" on="0"/>
        <pt x="173" y="597" on="0"/>
        <pt x="152" y="580" on="0"/>
      </contour>
    </TTGlyph>
    <TTGlyph name="dieresis" xMin="34" yMin="552" xMax="397" yMax="708">
      <contour>
        <pt x="242" y="659" on="0"/>
        <pt x="283" y="708" on="0"/>
        <pt x="368" y="708" on="0"/>
        <pt x="397" y="686" on="0"/>
        <pt x="397" y="660" on="1"/>
        <pt x="397" y="601" on="0"/>
        <pt x="356" y="552" on="0"/>
        <pt x="271" y="552" on="0"/>
        <pt x="242" y="574" on="0"/>
        <pt x="242" y="600" on="1"/>
      </contour>
      <contour>
        <pt x="34" y="659" on="0"/>
        <pt x="75" y="708" on="0"/>
        <pt x="160" y="708" on="0"/>
        <pt x="189" y="686" on="0"/>
        <pt x="189" y="660" on="1"/>
        <pt x="189" y="601" on="0"/>
        <pt x="147" y="552" on="0"/>
        <pt x="63" y="552" on="0"/>
        <pt x="34" y="574" on="0"/>
        <pt x="34" y="600" on="1"/>
      </contour>
    </TTGlyph>
    <TTGlyph name="divide" xMin="71" yMin="48" xMax="529" yMax="575">
      <contour>
        <pt x="418" y="554" on="1"/>
        <pt x="401" y="457" on="1"/>
        <pt x="396" y="428" on="0"/>
        <pt x="359" y="428" on="1"/>
        <pt x="283" y="428" on="1"/>
        <pt x="250" y="428" on="0"/>
        <pt x="250" y="450" on="1"/>
        <pt x="250" y="455" on="0"/>
        <pt x="267" y="547" on="1"/>
        <pt x="272" y="575" on="0"/>
        <pt x="309" y="575" on="1"/>
        <pt x="385" y="575" on="1"/>
        <pt x="418" y="575" on="0"/>
      </contour>
      <contour>
        <pt x="351" y="174" on="1"/>
        <pt x="334" y="77" on="1"/>
        <pt x="329" y="48" on="0"/>
        <pt x="292" y="48" on="1"/>
        <pt x="216" y="48" on="1"/>
        <pt x="183" y="48" on="0"/>
        <pt x="183" y="70" on="1"/>
        <pt x="183" y="75" on="0"/>
        <pt x="200" y="167" on="1"/>
        <pt x="205" y="195" on="0"/>
        <pt x="242" y="195" on="1"/>
        <pt x="318" y="195" on="1"/>
        <pt x="351" y="195" on="0"/>
      </contour>
      <contour>
        <pt x="71" y="240" on="1"/>
        <pt x="96" y="384" on="1"/>
        <pt x="529" y="384" on="1"/>
        <pt x="504" y="240" on="1"/>
      </contour>
    </TTGlyph>
    <TTGlyph name="dollar" xMin="-3" yMin="-100" xMax="534" yMax="718">
      <contour>
        <pt x="300" y="718" on="1"/>
        <pt x="420" y="718" on="1"/>
        <pt x="404" y="638" on="1"/>
        <pt x="477" y="633" on="0"/>
        <pt x="534" y="622" on="1"/>
        <pt x="479" y="467" on="1"/>
        <pt x="336" y="467" on="1"/>
        <pt x="303" y="467" on="0"/>
        <pt x="276" y="444" on="0"/>
        <pt x="270" y="414" on="1"/>
        <pt x="329" y="407" on="1"/>
        <pt x="419" y="396" on="0"/>
        <pt x="493" y="329" on="0"/>
        <pt x="493" y="270" on="1"/>
        <pt x="493" y="163" on="0"/>
        <pt x="378" y="5" on="0"/>
        <pt x="268" y="1" on="1"/>
        <pt x="247" y="-100" on="1"/>
        <pt x="124" y="-100" on="1"/>
        <pt x="146" y="1" on="1"/>
        <pt x="58" y="8" on="0"/>
        <pt x="-3" y="25" on="1"/>
        <pt x="53" y="184" on="1"/>
        <pt x="127" y="162" on="0"/>
        <pt x="214" y="162" on="1"/>
        <pt x="250" y="162" on="0"/>
        <pt x="283" y="166" on="1"/>
        <pt x="290" y="208" on="1"/>
        <pt x="232" y="215" on="1"/>
        <pt x="145" y="226" on="0"/>
        <pt x="76" y="296" on="0"/>
        <pt x="76" y="357" on="1"/>
        <pt x="76" y="464" on="0"/>
        <pt x="178" y="618" on="0"/>
        <pt x="282" y="635" on="1"/>
      </contour>
    </TTGlyph>
    <TTGlyph name="dotaccent" xMin="37" yMin="537" xMax="228" yMax="729">
      <contour>
        <pt x="37" y="592" on="1"/>
        <pt x="37" y="729" on="0"/>
        <pt x="150" y="729" on="1"/>
        <pt x="193" y="729" on="0"/>
        <pt x="228" y="702" on="0"/>
        <pt x="228" y="670" on="1"/>
        <pt x="228" y="537" on="0"/>
        <pt x="116" y="537" on="1"/>
        <pt x="73" y="537" on="0"/>
        <pt x="37" y="562" on="0"/>
      </contour>
    </TTGlyph>
    <TTGlyph name="dotlessi" xMin="11" yMin="0" xMax="289" yMax="500">
      <contour>
        <pt x="11" y="0" on="1"/>
        <pt x="94" y="475" on="1"/>
        <pt x="289" y="500" on="1"/>
        <pt x="201" y="0" on="1"/>
      </contour>
    </TTGlyph>
    <TTGlyph name="e" xMin="34" yMin="-15" xMax="547" yMax="515">
      <contour>
        <pt x="232" y="170" on="1"/>
        <pt x="226" y="135" on="1"/>
        <pt x="254" y="132" on="0"/>
        <pt x="283" y="132" on="1"/>
        <pt x="375" y="132" on="0"/>
        <pt x="466" y="162" on="1"/>
        <pt x="463" y="15" on="1"/>
        <pt x="352" y="-15" on="0"/>
        <pt x="244" y="-15" on="1"/>
        <pt x="34" y="-15" on="0"/>
        <pt x="34" y="167" on="1"/>
        <pt x="34" y="373" on="0"/>
        <pt x="160" y="466" on="1"/>
        <pt x="228" y="515" on="0"/>
        <pt x="324" y="515" on="1"/>
        <pt x="449" y="515" on="0"/>
        <pt x="547" y="462" on="0"/>
        <pt x="547" y="336" on="0"/>
        <pt x="516" y="256" on="0"/>
        <pt x="466" y="208" on="0"/>
        <pt x="424" y="194" on="1"/>
        <pt x="352" y="172" on="0"/>
      </contour>
      <contour>
        <pt x="260" y="327" on="1"/>
        <pt x="253" y="286" on="1"/>
        <pt x="292" y="286" on="1"/>
        <pt x="325" y="286" on="0"/>
        <pt x="359" y="301" on="0"/>
        <pt x="364" y="328" on="1"/>
        <pt x="372" y="369" on="1"/>
        <pt x="333" y="369" on="1"/>
        <pt x="299" y="369" on="0"/>
        <pt x="265" y="354" on="0"/>
      </contour>
    </TTGlyph>
    <TTGlyph name="eacute" xMin="34" yMin="-15" xMax="547" yMax="739">
      <contour>
        <pt x="232" y="170" on="1"/>
        <pt x="226" y="135" on="1"/>
        <pt x="254" y="132" on="0"/>
        <pt x="283" y="132" on="1"/>
        <pt x="375" y="132" on="0"/>
        <pt x="466" y="162" on="1"/>
        <pt x="463" y="15" on="1"/>
        <pt x="352" y="-15" on="0"/>
        <pt x="244" y="-15" on="1"/>
        <pt x="34" y="-15" on="0"/>
        <pt x="34" y="167" on="1"/>
        <pt x="34" y="373" on="0"/>
        <pt x="160" y="466" on="1"/>
        <pt x="228" y="515" on="0"/>
        <pt x="324" y="515" on="1"/>
        <pt x="449" y="515" on="0"/>
        <pt x="547" y="462" on="0"/>
        <pt x="547" y="336" on="0"/>
        <pt x="516" y="256" on="0"/>
        <pt x="466" y="208" on="0"/>
        <pt x="424" y="194" on="1"/>
        <pt x="352" y="172" on="0"/>
      </contour>
      <contour>
        <pt x="260" y="327" on="1"/>
        <pt x="253" y="286" on="1"/>
        <pt x="292" y="286" on="1"/>
        <pt x="325" y="286" on="0"/>
        <pt x="359" y="301" on="0"/>
        <pt x="364" y="328" on="1"/>
        <pt x="372" y="369" on="1"/>
        <pt x="333" y="369" on="1"/>
        <pt x="299" y="369" on="0"/>
        <pt x="265" y="354" on="0"/>
      </contour>
      <contour>
        <pt x="428" y="574" on="1"/>
        <pt x="254" y="539" on="1"/>
        <pt x="213" y="596" on="1"/>
        <pt x="402" y="735" on="1"/>
        <pt x="408" y="739" on="0"/>
        <pt x="422" y="739" on="0"/>
        <pt x="431" y="728" on="1"/>
        <pt x="494" y="654" on="1"/>
        <pt x="503" y="644" on="0"/>
        <pt x="503" y="631" on="0"/>
        <pt x="498" y="624" on="0"/>
        <pt x="454" y="586" on="1"/>
        <pt x="444" y="577" on="0"/>
      </contour>
    </TTGlyph>
    <TTGlyph name="ecircumflex" xMin="34" yMin="-15" xMax="547" yMax="740">
      <contour>
        <pt x="232" y="170" on="1"/>
        <pt x="226" y="135" on="1"/>
        <pt x="254" y="132" on="0"/>
        <pt x="283" y="132" on="1"/>
        <pt x="375" y="132" on="0"/>
        <pt x="466" y="162" on="1"/>
        <pt x="463" y="15" on="1"/>
        <pt x="352" y="-15" on="0"/>
        <pt x="244" y="-15" on="1"/>
        <pt x="34" y="-15" on="0"/>
        <pt x="34" y="167" on="1"/>
        <pt x="34" y="373" on="0"/>
        <pt x="160" y="466" on="1"/>
        <pt x="228" y="515" on="0"/>
        <pt x="324" y="515" on="1"/>
        <pt x="449" y="515" on="0"/>
        <pt x="547" y="462" on="0"/>
        <pt x="547" y="336" on="0"/>
        <pt x="516" y="256" on="0"/>
        <pt x="466" y="208" on="0"/>
        <pt x="424" y="194" on="1"/>
        <pt x="352" y="172" on="0"/>
      </contour>
      <contour>
        <pt x="260" y="327" on="1"/>
        <pt x="253" y="286" on="1"/>
        <pt x="292" y="286" on="1"/>
        <pt x="325" y="286" on="0"/>
        <pt x="359" y="301" on="0"/>
        <pt x="364" y="328" on="1"/>
        <pt x="372" y="369" on="1"/>
        <pt x="333" y="369" on="1"/>
        <pt x="299" y="369" on="0"/>
        <pt x="265" y="354" on="0"/>
      </contour>
      <contour>
        <pt x="363" y="740" on="1"/>
        <pt x="408" y="740" on="1"/>
        <pt x="416" y="740" on="0"/>
        <pt x="421" y="731" on="1"/>
        <pt x="504" y="586" on="1"/>
        <pt x="438" y="537" on="1"/>
        <pt x="360" y="600" on="1"/>
        <pt x="261" y="537" on="1"/>
        <pt x="213" y="586" on="1"/>
        <pt x="345" y="731" on="1"/>
        <pt x="352" y="740" on="0"/>
      </contour>
    </TTGlyph>
    <TTGlyph name="edieresis" xMin="34" yMin="-15" xMax="547" yMax="708">
      <contour>
        <pt x="232" y="170" on="1"/>
        <pt x="226" y="135" on="1"/>
        <pt x="254" y="132" on="0"/>
        <pt x="283" y="132" on="1"/>
        <pt x="375" y="132" on="0"/>
        <pt x="466" y="162" on="1"/>
        <pt x="463" y="15" on="1"/>
        <pt x="352" y="-15" on="0"/>
        <pt x="244" y="-15" on="1"/>
        <pt x="34" y="-15" on="0"/>
        <pt x="34" y="167" on="1"/>
        <pt x="34" y="373" on="0"/>
        <pt x="160" y="466" on="1"/>
        <pt x="228" y="515" on="0"/>
        <pt x="324" y="515" on="1"/>
        <pt x="449" y="515" on="0"/>
        <pt x="547" y="462" on="0"/>
        <pt x="547" y="336" on="0"/>
        <pt x="516" y="256" on="0"/>
        <pt x="466" y="208" on="0"/>
        <pt x="424" y="194" on="1"/>
        <pt x="352" y="172" on="0"/>
      </contour>
      <contour>
        <pt x="260" y="327" on="1"/>
        <pt x="253" y="286" on="1"/>
        <pt x="292" y="286" on="1"/>
        <pt x="325" y="286" on="0"/>
        <pt x="359" y="301" on="0"/>
        <pt x="364" y="328" on="1"/>
        <pt x="372" y="369" on="1"/>
        <pt x="333" y="369" on="1"/>
        <pt x="299" y="369" on="0"/>
        <pt x="265" y="354" on="0"/>
      </contour>
      <contour>
        <pt x="383" y="659" on="0"/>
        <pt x="424" y="708" on="0"/>
        <pt x="509" y="708" on="0"/>
        <pt x="538" y="686" on="0"/>
        <pt x="538" y="660" on="1"/>
        <pt x="538" y="601" on="0"/>
        <pt x="497" y="552" on="0"/>
        <pt x="412" y="552" on="0"/>
        <pt x="383" y="574" on="0"/>
        <pt x="383" y="600" on="1"/>
      </contour>
      <contour>
        <pt x="175" y="659" on="0"/>
        <pt x="216" y="708" on="0"/>
        <pt x="301" y="708" on="0"/>
        <pt x="330" y="686" on="0"/>
        <pt x="330" y="660" on="1"/>
        <pt x="330" y="601" on="0"/>
        <pt x="288" y="552" on="0"/>
        <pt x="204" y="552" on="0"/>
        <pt x="175" y="574" on="0"/>
        <pt x="175" y="600" on="1"/>
      </contour>
    </TTGlyph>
    <TTGlyph name="egrave" xMin="34" yMin="-15" xMax="547" yMax="739">
      <contour>
        <pt x="232" y="170" on="1"/>
        <pt x="226" y="135" on="1"/>
        <pt x="254" y="132" on="0"/>
        <pt x="283" y="132" on="1"/>
        <pt x="375" y="132" on="0"/>
        <pt x="466" y="162" on="1"/>
        <pt x="463" y="15" on="1"/>
        <pt x="352" y="-15" on="0"/>
        <pt x="244" y="-15" on="1"/>
        <pt x="34" y="-15" on="0"/>
        <pt x="34" y="167" on="1"/>
        <pt x="34" y="373" on="0"/>
        <pt x="160" y="466" on="1"/>
        <pt x="228" y="515" on="0"/>
        <pt x="324" y="515" on="1"/>
        <pt x="449" y="515" on="0"/>
        <pt x="547" y="462" on="0"/>
        <pt x="547" y="336" on="0"/>
        <pt x="516" y="256" on="0"/>
        <pt x="466" y="208" on="0"/>
        <pt x="424" y="194" on="1"/>
        <pt x="352" y="172" on="0"/>
      </contour>
      <contour>
        <pt x="260" y="327" on="1"/>
        <pt x="253" y="286" on="1"/>
        <pt x="292" y="286" on="1"/>
        <pt x="325" y="286" on="0"/>
        <pt x="359" y="301" on="0"/>
        <pt x="364" y="328" on="1"/>
        <pt x="372" y="369" on="1"/>
        <pt x="333" y="369" on="1"/>
        <pt x="299" y="369" on="0"/>
        <pt x="265" y="354" on="0"/>
      </contour>
      <contour>
        <pt x="461" y="539" on="1"/>
        <pt x="287" y="574" on="1"/>
        <pt x="271" y="577" on="0"/>
        <pt x="261" y="586" on="1"/>
        <pt x="216" y="625" on="1"/>
        <pt x="212" y="631" on="0"/>
        <pt x="212" y="644" on="0"/>
        <pt x="221" y="654" on="1"/>
        <pt x="284" y="728" on="1"/>
        <pt x="293" y="739" on="0"/>
        <pt x="307" y="739" on="0"/>
        <pt x="313" y="735" on="1"/>
        <pt x="502" y="596" on="1"/>
      </contour>
    </TTGlyph>
    <TTGlyph name="eight" xMin="20" yMin="-15" xMax="562" yMax="640">
      <contour>
        <pt x="448" y="640" on="0"/>
        <pt x="562" y="573" on="0"/>
        <pt x="562" y="498" on="1"/>
        <pt x="562" y="441" on="0"/>
        <pt x="510" y="342" on="0"/>
        <pt x="469" y="315" on="1"/>
        <pt x="468" y="308" on="1"/>
        <pt x="497" y="292" on="0"/>
        <pt x="530" y="233" on="0"/>
        <pt x="530" y="196" on="1"/>
        <pt x="530" y="123" on="0"/>
        <pt x="490" y="74" on="1"/>
        <pt x="416" y="-15" on="0"/>
        <pt x="243" y="-15" on="1"/>
        <pt x="20" y="-15" on="0"/>
        <pt x="20" y="131" on="1"/>
        <pt x="20" y="188" on="0"/>
        <pt x="82" y="285" on="0"/>
        <pt x="132" y="308" on="1"/>
        <pt x="133" y="315" on="1"/>
        <pt x="91" y="351" on="0"/>
        <pt x="91" y="482" on="0"/>
        <pt x="138" y="570" on="0"/>
        <pt x="178" y="594" on="1"/>
        <pt x="256" y="640" on="0"/>
      </contour>
      <contour>
        <pt x="328" y="201" on="1"/>
        <pt x="269" y="234" on="1"/>
        <pt x="255" y="240" on="0"/>
        <pt x="251" y="240" on="1"/>
        <pt x="240" y="240" on="0"/>
        <pt x="237" y="223" on="1"/>
        <pt x="221" y="136" on="1"/>
        <pt x="260" y="136" on="1"/>
        <pt x="292" y="136" on="0"/>
        <pt x="319" y="151" on="0"/>
        <pt x="324" y="178" on="1"/>
      </contour>
      <contour>
        <pt x="272" y="423" on="1"/>
        <pt x="328" y="389" on="1"/>
        <pt x="336" y="385" on="0"/>
        <pt x="341" y="385" on="1"/>
        <pt x="360" y="385" on="0"/>
        <pt x="364" y="403" on="1"/>
        <pt x="378" y="484" on="1"/>
        <pt x="340" y="484" on="1"/>
        <pt x="308" y="484" on="0"/>
        <pt x="279" y="469" on="0"/>
        <pt x="275" y="442" on="1"/>
      </contour>
    </TTGlyph>
    <TTGlyph name="ellipsis" xMin="31" yMin="-6" xMax="780" yMax="206">
      <contour>
        <pt x="31" y="57" on="1"/>
        <pt x="31" y="206" on="0"/>
        <pt x="158" y="206" on="1"/>
        <pt x="207" y="206" on="0"/>
        <pt x="246" y="176" on="0"/>
        <pt x="246" y="141" on="1"/>
        <pt x="246" y="72" on="0"/>
        <pt x="190" y="-6" on="0"/>
        <pt x="120" y="-6" on="1"/>
        <pt x="70" y="-6" on="0"/>
        <pt x="31" y="23" on="0"/>
      </contour>
      <contour>
        <pt x="298" y="57" on="1"/>
        <pt x="298" y="206" on="0"/>
        <pt x="425" y="206" on="1"/>
        <pt x="474" y="206" on="0"/>
        <pt x="513" y="176" on="0"/>
        <pt x="513" y="141" on="1"/>
        <pt x="513" y="72" on="0"/>
        <pt x="457" y="-6" on="0"/>
        <pt x="387" y="-6" on="1"/>
        <pt x="337" y="-6" on="0"/>
        <pt x="298" y="23" on="0"/>
      </contour>
      <contour>
        <pt x="565" y="57" on="1"/>
        <pt x="565" y="206" on="0"/>
        <pt x="692" y="206" on="1"/>
        <pt x="741" y="206" on="0"/>
        <pt x="780" y="176" on="0"/>
        <pt x="780" y="141" on="1"/>
        <pt x="780" y="72" on="0"/>
        <pt x="724" y="-6" on="0"/>
        <pt x="654" y="-6" on="1"/>
        <pt x="604" y="-6" on="0"/>
        <pt x="565" y="23" on="0"/>
      </contour>
    </TTGlyph>
    <TTGlyph name="emdash" xMin="27" yMin="200" xMax="817" yMax="350">
      <contour>
        <pt x="27" y="200" on="1"/>
        <pt x="46" y="308" on="1"/>
        <pt x="51" y="335" on="0"/>
        <pt x="84" y="350" on="0"/>
        <pt x="118" y="350" on="1"/>
        <pt x="817" y="350" on="1"/>
        <pt x="798" y="242" on="1"/>
        <pt x="793" y="215" on="0"/>
        <pt x="759" y="200" on="0"/>
        <pt x="725" y="200" on="1"/>
      </contour>
    </TTGlyph>
    <TTGlyph name="endash" xMin="20" yMin="200" xMax="563" yMax="350">
      <contour>
        <pt x="20" y="200" on="1"/>
        <pt x="39" y="308" on="1"/>
        <pt x="44" y="335" on="0"/>
        <pt x="77" y="350" on="0"/>
        <pt x="111" y="350" on="1"/>
        <pt x="563" y="350" on="1"/>
        <pt x="544" y="242" on="1"/>
        <pt x="539" y="215" on="0"/>
        <pt x="506" y="200" on="0"/>
        <pt x="472" y="200" on="1"/>
      </contour>
    </TTGlyph>
    <TTGlyph name="equal" xMin="50" yMin="121" xMax="550" yMax="503">
      <contour>
        <pt x="50" y="121" on="1"/>
        <pt x="75" y="265" on="1"/>
        <pt x="508" y="265" on="1"/>
        <pt x="483" y="121" on="1"/>
      </contour>
      <contour>
        <pt x="92" y="359" on="1"/>
        <pt x="117" y="503" on="1"/>
        <pt x="550" y="503" on="1"/>
        <pt x="525" y="359" on="1"/>
      </contour>
    </TTGlyph>
    <TTGlyph name="eth" xMin="30" yMin="-15" xMax="545" yMax="680">
      <contour>
        <pt x="485" y="570" on="1"/>
        <pt x="460" y="562" on="1"/>
        <pt x="545" y="432" on="0"/>
        <pt x="545" y="319" on="1"/>
        <pt x="545" y="176" on="0"/>
        <pt x="478" y="84" on="1"/>
        <pt x="444" y="38" on="0"/>
        <pt x="327" y="-15" on="0"/>
        <pt x="250" y="-15" on="1"/>
        <pt x="136" y="-15" on="0"/>
        <pt x="30" y="82" on="0"/>
        <pt x="30" y="179" on="1"/>
        <pt x="30" y="308" on="0"/>
        <pt x="169" y="435" on="0"/>
        <pt x="325" y="435" on="1"/>
        <pt x="312" y="472" on="0"/>
        <pt x="291" y="509" on="1"/>
        <pt x="178" y="473" on="1"/>
        <pt x="173" y="526" on="1"/>
        <pt x="176" y="541" on="0"/>
        <pt x="192" y="554" on="0"/>
        <pt x="214" y="561" on="1"/>
        <pt x="252" y="573" on="1"/>
        <pt x="227" y="608" on="0"/>
        <pt x="203" y="636" on="1"/>
        <pt x="356" y="680" on="1"/>
        <pt x="385" y="659" on="0"/>
        <pt x="415" y="624" on="1"/>
        <pt x="521" y="658" on="1"/>
        <pt x="526" y="605" on="1"/>
        <pt x="523" y="590" on="0"/>
        <pt x="507" y="577" on="0"/>
      </contour>
      <contour>
        <pt x="242" y="279" on="1"/>
        <pt x="215" y="121" on="1"/>
        <pt x="244" y="121" on="1"/>
        <pt x="278" y="121" on="0"/>
        <pt x="312" y="136" on="0"/>
        <pt x="317" y="163" on="1"/>
        <pt x="345" y="321" on="1"/>
        <pt x="315" y="321" on="1"/>
        <pt x="281" y="321" on="0"/>
        <pt x="247" y="306" on="0"/>
      </contour>
    </TTGlyph>
    <TTGlyph name="exclam" xMin="14" yMin="-7" xMax="327" yMax="625">
      <contour>
        <pt x="221" y="170" on="1"/>
        <pt x="60" y="170" on="1"/>
        <pt x="107" y="598" on="1"/>
        <pt x="111" y="625" on="0"/>
        <pt x="148" y="625" on="1"/>
        <pt x="296" y="625" on="1"/>
        <pt x="327" y="625" on="0"/>
        <pt x="327" y="605" on="1"/>
        <pt x="327" y="600" on="0"/>
        <pt x="326" y="598" on="1"/>
      </contour>
      <contour>
        <pt x="14" y="44" on="1"/>
        <pt x="14" y="101" on="0"/>
        <pt x="76" y="149" on="0"/>
        <pt x="190" y="149" on="0"/>
        <pt x="232" y="124" on="0"/>
        <pt x="232" y="96" on="1"/>
        <pt x="232" y="40" on="0"/>
        <pt x="179" y="-7" on="0"/>
        <pt x="56" y="-7" on="0"/>
        <pt x="14" y="16" on="0"/>
      </contour>
    </TTGlyph>
    <TTGlyph name="exclamdown" xMin="-21" yMin="-117" xMax="292" yMax="515">
      <contour>
        <pt x="85" y="338" on="1"/>
        <pt x="246" y="338" on="1"/>
        <pt x="199" y="-90" on="1"/>
        <pt x="195" y="-117" on="0"/>
        <pt x="158" y="-117" on="1"/>
        <pt x="10" y="-117" on="1"/>
        <pt x="-21" y="-117" on="0"/>
        <pt x="-21" y="-97" on="1"/>
        <pt x="-21" y="-92" on="0"/>
        <pt x="-20" y="-90" on="1"/>
      </contour>
      <contour>
        <pt x="292" y="464" on="1"/>
        <pt x="292" y="407" on="0"/>
        <pt x="230" y="359" on="0"/>
        <pt x="116" y="359" on="0"/>
        <pt x="74" y="384" on="0"/>
        <pt x="74" y="412" on="1"/>
        <pt x="74" y="468" on="0"/>
        <pt x="127" y="515" on="0"/>
        <pt x="250" y="515" on="0"/>
        <pt x="292" y="492" on="0"/>
      </contour>
    </TTGlyph>
    <TTGlyph name="f" xMin="31" yMin="0" xMax="426" yMax="675">
      <contour>
        <pt x="316" y="542" on="1"/>
        <pt x="309" y="500" on="1"/>
        <pt x="366" y="500" on="1"/>
        <pt x="343" y="370" on="1"/>
        <pt x="286" y="370" on="1"/>
        <pt x="221" y="0" on="1"/>
        <pt x="31" y="0" on="1"/>
        <pt x="96" y="370" on="1"/>
        <pt x="48" y="370" on="1"/>
        <pt x="71" y="500" on="1"/>
        <pt x="119" y="500" on="1"/>
        <pt x="136" y="560" on="1"/>
        <pt x="168" y="675" on="0"/>
        <pt x="324" y="675" on="1"/>
        <pt x="363" y="675" on="0"/>
        <pt x="426" y="665" on="1"/>
        <pt x="393" y="534" on="1"/>
      </contour>
    </TTGlyph>
    <TTGlyph name="fi" xMin="31" yMin="0" xMax="598" yMax="675">
      <contour>
        <pt x="316" y="0" on="1"/>
        <pt x="381" y="370" on="1"/>
        <pt x="286" y="370" on="1"/>
        <pt x="221" y="0" on="1"/>
        <pt x="31" y="0" on="1"/>
        <pt x="96" y="370" on="1"/>
        <pt x="49" y="370" on="1"/>
        <pt x="72" y="500" on="1"/>
        <pt x="119" y="500" on="1"/>
        <pt x="136" y="560" on="1"/>
        <pt x="169" y="675" on="0"/>
        <pt x="324" y="675" on="1"/>
        <pt x="396" y="675" on="0"/>
        <pt x="472" y="650" on="1"/>
        <pt x="422" y="533" on="1"/>
        <pt x="316" y="542" on="1"/>
        <pt x="309" y="500" on="1"/>
        <pt x="437" y="500" on="1"/>
        <pt x="598" y="525" on="1"/>
        <pt x="506" y="0" on="1"/>
      </contour>
    </TTGlyph>
    <TTGlyph name="five" xMin="2" yMin="-15" xMax="575" yMax="625">
      <contour>
        <pt x="2" y="11" on="1"/>
        <pt x="58" y="176" on="1"/>
        <pt x="144" y="153" on="0"/>
        <pt x="280" y="153" on="0"/>
        <pt x="325" y="159" on="1"/>
        <pt x="333" y="209" on="1"/>
        <pt x="264" y="217" on="1"/>
        <pt x="163" y="229" on="0"/>
        <pt x="84" y="274" on="0"/>
        <pt x="84" y="326" on="1"/>
        <pt x="84" y="345" on="0"/>
        <pt x="88" y="365" on="1"/>
        <pt x="143" y="625" on="1"/>
        <pt x="575" y="625" on="1"/>
        <pt x="530" y="453" on="1"/>
        <pt x="308" y="467" on="1"/>
        <pt x="297" y="406" on="1"/>
        <pt x="352" y="399" on="1"/>
        <pt x="457" y="385" on="0"/>
        <pt x="543" y="318" on="0"/>
        <pt x="543" y="187" on="0"/>
        <pt x="504" y="85" on="0"/>
        <pt x="444" y="28" on="0"/>
        <pt x="355" y="-5" on="0"/>
        <pt x="277" y="-15" on="0"/>
        <pt x="227" y="-15" on="1"/>
        <pt x="103" y="-15" on="0"/>
      </contour>
    </TTGlyph>
    <TTGlyph name="fl" xMin="31" yMin="-11" xMax="636" yMax="675">
      <contour>
        <pt x="316" y="542" on="1"/>
        <pt x="309" y="500" on="1"/>
        <pt x="366" y="500" on="1"/>
        <pt x="343" y="370" on="1"/>
        <pt x="286" y="370" on="1"/>
        <pt x="221" y="0" on="1"/>
        <pt x="31" y="0" on="1"/>
        <pt x="96" y="370" on="1"/>
        <pt x="49" y="370" on="1"/>
        <pt x="72" y="500" on="1"/>
        <pt x="119" y="500" on="1"/>
        <pt x="136" y="560" on="1"/>
        <pt x="169" y="675" on="0"/>
        <pt x="324" y="675" on="1"/>
        <pt x="396" y="675" on="0"/>
        <pt x="472" y="650" on="1"/>
        <pt x="636" y="665" on="1"/>
        <pt x="544" y="143" on="1"/>
        <pt x="571" y="137" on="0"/>
        <pt x="588" y="136" on="1"/>
        <pt x="555" y="-11" on="1"/>
        <pt x="423" y="-11" on="0"/>
        <pt x="384" y="8" on="1"/>
        <pt x="367" y="17" on="0"/>
        <pt x="343" y="50" on="0"/>
        <pt x="343" y="78" on="0"/>
        <pt x="345" y="94" on="1"/>
        <pt x="422" y="533" on="1"/>
      </contour>
    </TTGlyph>
    <TTGlyph name="florin" xMin="-62" yMin="-165" xMax="521" yMax="641">
      <contour>
        <pt x="345" y="428" on="1"/>
        <pt x="332" y="369" on="1"/>
        <pt x="439" y="369" on="1"/>
        <pt x="411" y="262" on="1"/>
        <pt x="309" y="262" on="1"/>
        <pt x="252" y="0" on="1"/>
        <pt x="215" y="-165" on="0"/>
        <pt x="75" y="-165" on="1"/>
        <pt x="-62" y="-165" on="1"/>
        <pt x="-40" y="-35" on="1"/>
        <pt x="12" y="-25" on="1"/>
        <pt x="35" y="-21" on="0"/>
        <pt x="60" y="-4" on="0"/>
        <pt x="64" y="15" on="1"/>
        <pt x="118" y="262" on="1"/>
        <pt x="46" y="262" on="1"/>
        <pt x="65" y="369" on="1"/>
        <pt x="142" y="369" on="1"/>
        <pt x="158" y="443" on="1"/>
        <pt x="179" y="543" on="0"/>
        <pt x="278" y="641" on="0"/>
        <pt x="447" y="641" on="0"/>
        <pt x="521" y="622" on="1"/>
        <pt x="468" y="477" on="1"/>
        <pt x="423" y="477" on="1"/>
        <pt x="390" y="477" on="0"/>
        <pt x="352" y="459" on="0"/>
      </contour>
    </TTGlyph>
    <TTGlyph name="four" xMin="-7" yMin="0" xMax="569" yMax="625">
      <contour>
        <pt x="269" y="0" on="1"/>
        <pt x="286" y="100" on="1"/>
        <pt x="-7" y="100" on="1"/>
        <pt x="15" y="225" on="1"/>
        <pt x="232" y="625" on="1"/>
        <pt x="569" y="625" on="1"/>
        <pt x="506" y="272" on="1"/>
        <pt x="568" y="272" on="1"/>
        <pt x="538" y="100" on="1"/>
        <pt x="476" y="100" on="1"/>
        <pt x="459" y="0" on="1"/>
      </contour>
      <contour>
        <pt x="342" y="475" on="1"/>
        <pt x="222" y="272" on="1"/>
        <pt x="316" y="272" on="1"/>
        <pt x="352" y="475" on="1"/>
      </contour>
    </TTGlyph>
    <TTGlyph name="fraction" xMin="70" yMin="-40" xMax="433" yMax="665">
      <contour>
        <pt x="433" y="665" on="1"/>
        <pt x="164" y="-15" on="1"/>
        <pt x="154" y="-40" on="0"/>
        <pt x="121" y="-40" on="1"/>
        <pt x="70" y="-40" on="1"/>
        <pt x="339" y="640" on="1"/>
        <pt x="349" y="665" on="0"/>
        <pt x="382" y="665" on="1"/>
      </contour>
    </TTGlyph>
    <TTGlyph name="g" xMin="30" yMin="-165" xMax="566" yMax="515">
      <contour>
        <pt x="566" y="475" on="1"/>
        <pt x="483" y="0" on="1"/>
        <pt x="469" y="-80" on="0"/>
        <pt x="377" y="-165" on="0"/>
        <pt x="305" y="-165" on="1"/>
        <pt x="38" y="-165" on="1"/>
        <pt x="61" y="-35" on="1"/>
        <pt x="242" y="-25" on="1"/>
        <pt x="288" y="-23" on="0"/>
        <pt x="295" y="15" on="1"/>
        <pt x="297" y="30" on="1"/>
        <pt x="258" y="15" on="0"/>
        <pt x="200" y="15" on="1"/>
        <pt x="108" y="15" on="0"/>
        <pt x="30" y="111" on="0"/>
        <pt x="30" y="185" on="1"/>
        <pt x="30" y="320" on="0"/>
        <pt x="188" y="515" on="0"/>
        <pt x="455" y="515" on="0"/>
      </contour>
      <contour>
        <pt x="256" y="327" on="1"/>
        <pt x="226" y="161" on="1"/>
        <pt x="255" y="161" on="1"/>
        <pt x="277" y="161" on="0"/>
        <pt x="301" y="164" on="0"/>
        <pt x="324" y="181" on="0"/>
        <pt x="327" y="197" on="1"/>
        <pt x="359" y="369" on="1"/>
        <pt x="329" y="369" on="1"/>
        <pt x="295" y="369" on="0"/>
        <pt x="261" y="354" on="0"/>
      </contour>
    </TTGlyph>
    <TTGlyph name="germandbls" xMin="31" yMin="-15" xMax="605" yMax="675">
      <contour>
        <pt x="49" y="370" on="1"/>
        <pt x="72" y="500" on="1"/>
        <pt x="119" y="500" on="1"/>
        <pt x="136" y="560" on="1"/>
        <pt x="158" y="636" on="0"/>
        <pt x="231" y="657" on="1"/>
        <pt x="293" y="675" on="0"/>
        <pt x="397" y="675" on="1"/>
        <pt x="582" y="675" on="0"/>
        <pt x="582" y="550" on="1"/>
        <pt x="582" y="449" on="0"/>
        <pt x="466" y="314" on="1"/>
        <pt x="605" y="314" on="0"/>
        <pt x="605" y="198" on="1"/>
        <pt x="605" y="101" on="0"/>
        <pt x="489" y="-15" on="0"/>
        <pt x="286" y="-15" on="0"/>
        <pt x="255" y="-1" on="1"/>
        <pt x="299" y="141" on="1"/>
        <pt x="338" y="130" on="0"/>
        <pt x="415" y="130" on="0"/>
        <pt x="415" y="134" on="1"/>
        <pt x="421" y="166" on="1"/>
        <pt x="363" y="166" on="0"/>
        <pt x="305" y="202" on="0"/>
        <pt x="305" y="288" on="0"/>
        <pt x="386" y="458" on="0"/>
        <pt x="386" y="487" on="1"/>
        <pt x="386" y="519" on="0"/>
        <pt x="346" y="519" on="1"/>
        <pt x="331" y="519" on="0"/>
        <pt x="311" y="515" on="1"/>
        <pt x="221" y="0" on="1"/>
        <pt x="31" y="0" on="1"/>
        <pt x="96" y="370" on="1"/>
      </contour>
    </TTGlyph>
    <TTGlyph name="grave" xMin="39" yMin="539" xMax="329" yMax="739">
      <contour>
        <pt x="288" y="539" on="1"/>
        <pt x="114" y="574" on="1"/>
        <pt x="98" y="577" on="0"/>
        <pt x="88" y="586" on="1"/>
        <pt x="43" y="625" on="1"/>
        <pt x="39" y="631" on="0"/>
        <pt x="39" y="644" on="0"/>
        <pt x="48" y="654" on="1"/>
        <pt x="111" y="728" on="1"/>
        <pt x="120" y="739" on="0"/>
        <pt x="134" y="739" on="0"/>
        <pt x="140" y="735" on="1"/>
        <pt x="329" y="596" on="1"/>
      </contour>
    </TTGlyph>
    <TTGlyph name="greater" xMin="70" yMin="67" xMax="511" yMax="557">
      <contour>
        <pt x="110" y="67" on="1"/>
        <pt x="70" y="201" on="1"/>
        <pt x="357" y="309" on="1"/>
        <pt x="358" y="316" on="1"/>
        <pt x="119" y="423" on="1"/>
        <pt x="207" y="557" on="1"/>
        <pt x="511" y="403" on="1"/>
        <pt x="479" y="221" on="1"/>
      </contour>
    </TTGlyph>
    <TTGlyph name="greaterequal" xMin="31" yMin="0" xMax="540" yMax="647">
      <contour>
        <pt x="31" y="0" on="1"/>
        <pt x="56" y="144" on="1"/>
        <pt x="489" y="144" on="1"/>
        <pt x="464" y="0" on="1"/>
      </contour>
      <contour>
        <pt x="139" y="157" on="1"/>
        <pt x="99" y="291" on="1"/>
        <pt x="386" y="399" on="1"/>
        <pt x="387" y="406" on="1"/>
        <pt x="148" y="513" on="1"/>
        <pt x="236" y="647" on="1"/>
        <pt x="540" y="493" on="1"/>
        <pt x="508" y="311" on="1"/>
      </contour>
    </TTGlyph>
    <TTGlyph name="guillemotleft" xMin="19" yMin="25" xMax="556" yMax="475">
      <contour>
        <pt x="36" y="300" on="1"/>
        <pt x="251" y="475" on="1"/>
        <pt x="319" y="424" on="1"/>
        <pt x="194" y="250" on="1"/>
        <pt x="258" y="76" on="1"/>
        <pt x="172" y="25" on="1"/>
        <pt x="19" y="200" on="1"/>
      </contour>
      <contour>
        <pt x="273" y="300" on="1"/>
        <pt x="489" y="475" on="1"/>
        <pt x="556" y="424" on="1"/>
        <pt x="431" y="250" on="1"/>
        <pt x="495" y="76" on="1"/>
        <pt x="410" y="25" on="1"/>
        <pt x="251" y="200" on="1"/>
      </contour>
    </TTGlyph>
    <TTGlyph name="guillemotright" xMin="-4" yMin="25" xMax="533" yMax="475">
      <contour>
        <pt x="380" y="475" on="1"/>
        <pt x="533" y="300" on="1"/>
        <pt x="516" y="200" on="1"/>
        <pt x="301" y="25" on="1"/>
        <pt x="233" y="76" on="1"/>
        <pt x="359" y="250" on="1"/>
        <pt x="294" y="424" on="1"/>
      </contour>
      <contour>
        <pt x="143" y="475" on="1"/>
        <pt x="296" y="300" on="1"/>
        <pt x="279" y="200" on="1"/>
        <pt x="64" y="25" on="1"/>
        <pt x="-4" y="76" on="1"/>
        <pt x="122" y="250" on="1"/>
        <pt x="57" y="424" on="1"/>
      </contour>
    </TTGlyph>
    <TTGlyph name="guilsinglleft" xMin="12" yMin="25" xMax="312" yMax="475">
      <contour>
        <pt x="29" y="300" on="1"/>
        <pt x="244" y="475" on="1"/>
        <pt x="312" y="424" on="1"/>
        <pt x="187" y="250" on="1"/>
        <pt x="251" y="76" on="1"/>
        <pt x="165" y="25" on="1"/>
        <pt x="12" y="200" on="1"/>
      </contour>
    </TTGlyph>
    <TTGlyph name="guilsinglright" xMin="-9" yMin="25" xMax="291" yMax="475">
      <contour>
        <pt x="138" y="475" on="1"/>
        <pt x="291" y="300" on="1"/>
        <pt x="274" y="200" on="1"/>
        <pt x="59" y="25" on="1"/>
        <pt x="-9" y="76" on="1"/>
        <pt x="117" y="250" on="1"/>
        <pt x="52" y="424" on="1"/>
      </contour>
    </TTGlyph>
    <TTGlyph name="h" xMin="19" yMin="0" xMax="566" yMax="665">
      <contour>
        <pt x="263" y="308" on="1"/>
        <pt x="209" y="0" on="1"/>
        <pt x="19" y="0" on="1"/>
        <pt x="133" y="650" on="1"/>
        <pt x="326" y="665" on="1"/>
        <pt x="293" y="482" on="1"/>
        <pt x="361" y="515" on="0"/>
        <pt x="431" y="515" on="1"/>
        <pt x="566" y="515" on="0"/>
        <pt x="566" y="423" on="1"/>
        <pt x="566" y="416" on="0"/>
        <pt x="564" y="400" on="1"/>
        <pt x="494" y="0" on="1"/>
        <pt x="304" y="0" on="1"/>
        <pt x="365" y="350" on="1"/>
        <pt x="336" y="350" on="1"/>
        <pt x="302" y="350" on="0"/>
        <pt x="268" y="335" on="0"/>
      </contour>
    </TTGlyph>
    <TTGlyph name="hungarumlaut" xMin="48" yMin="530" xMax="555" yMax="741">
      <contour>
        <pt x="88" y="530" on="1"/>
        <pt x="48" y="589" on="1"/>
        <pt x="188" y="729" on="1"/>
        <pt x="197" y="740" on="0"/>
        <pt x="210" y="741" on="0"/>
        <pt x="222" y="729" on="1"/>
        <pt x="285" y="655" on="1"/>
        <pt x="292" y="647" on="0"/>
        <pt x="292" y="629" on="0"/>
        <pt x="283" y="620" on="1"/>
        <pt x="242" y="582" on="1"/>
        <pt x="233" y="573" on="0"/>
        <pt x="209" y="566" on="1"/>
      </contour>
      <contour>
        <pt x="351" y="530" on="1"/>
        <pt x="311" y="589" on="1"/>
        <pt x="451" y="729" on="1"/>
        <pt x="460" y="740" on="0"/>
        <pt x="473" y="741" on="0"/>
        <pt x="485" y="729" on="1"/>
        <pt x="548" y="655" on="1"/>
        <pt x="555" y="647" on="0"/>
        <pt x="555" y="629" on="0"/>
        <pt x="546" y="620" on="1"/>
        <pt x="505" y="582" on="1"/>
        <pt x="496" y="573" on="0"/>
        <pt x="472" y="566" on="1"/>
      </contour>
    </TTGlyph>
    <TTGlyph name="hyphen" xMin="20" yMin="200" xMax="331" yMax="350">
      <contour>
        <pt x="20" y="200" on="1"/>
        <pt x="39" y="308" on="1"/>
        <pt x="44" y="335" on="0"/>
        <pt x="77" y="350" on="0"/>
        <pt x="111" y="350" on="1"/>
        <pt x="331" y="350" on="1"/>
        <pt x="312" y="242" on="1"/>
        <pt x="307" y="215" on="0"/>
        <pt x="273" y="200" on="0"/>
        <pt x="239" y="200" on="1"/>
      </contour>
    </TTGlyph>
    <TTGlyph name="i" xMin="11" yMin="0" xMax="320" yMax="675">
      <contour>
        <pt x="11" y="0" on="1"/>
        <pt x="94" y="475" on="1"/>
        <pt x="289" y="500" on="1"/>
        <pt x="201" y="0" on="1"/>
      </contour>
      <contour>
        <pt x="102" y="567" on="1"/>
        <pt x="102" y="625" on="0"/>
        <pt x="163" y="675" on="0"/>
        <pt x="279" y="675" on="0"/>
        <pt x="320" y="650" on="0"/>
        <pt x="320" y="621" on="1"/>
        <pt x="320" y="562" on="0"/>
        <pt x="267" y="515" on="0"/>
        <pt x="144" y="515" on="0"/>
        <pt x="102" y="538" on="0"/>
      </contour>
    </TTGlyph>
    <TTGlyph name="iacute" xMin="11" yMin="0" xMax="353" yMax="739">
      <contour>
        <pt x="11" y="0" on="1"/>
        <pt x="94" y="475" on="1"/>
        <pt x="289" y="500" on="1"/>
        <pt x="201" y="0" on="1"/>
      </contour>
      <contour>
        <pt x="278" y="574" on="1"/>
        <pt x="104" y="539" on="1"/>
        <pt x="63" y="596" on="1"/>
        <pt x="252" y="735" on="1"/>
        <pt x="258" y="739" on="0"/>
        <pt x="272" y="739" on="0"/>
        <pt x="281" y="728" on="1"/>
        <pt x="344" y="654" on="1"/>
        <pt x="353" y="644" on="0"/>
        <pt x="353" y="631" on="0"/>
        <pt x="348" y="624" on="0"/>
        <pt x="304" y="586" on="1"/>
        <pt x="294" y="577" on="0"/>
      </contour>
    </TTGlyph>
    <TTGlyph name="icircumflex" xMin="11" yMin="0" xMax="354" yMax="740">
      <contour>
        <pt x="11" y="0" on="1"/>
        <pt x="94" y="475" on="1"/>
        <pt x="289" y="500" on="1"/>
        <pt x="201" y="0" on="1"/>
      </contour>
      <contour>
        <pt x="213" y="740" on="1"/>
        <pt x="258" y="740" on="1"/>
        <pt x="266" y="740" on="0"/>
        <pt x="271" y="731" on="1"/>
        <pt x="354" y="586" on="1"/>
        <pt x="288" y="537" on="1"/>
        <pt x="210" y="600" on="1"/>
        <pt x="111" y="537" on="1"/>
        <pt x="63" y="586" on="1"/>
        <pt x="195" y="731" on="1"/>
        <pt x="202" y="740" on="0"/>
      </contour>
    </TTGlyph>
    <TTGlyph name="idieresis" xMin="11" yMin="0" xMax="401" yMax="708">
      <contour>
        <pt x="11" y="0" on="1"/>
        <pt x="94" y="475" on="1"/>
        <pt x="289" y="500" on="1"/>
        <pt x="201" y="0" on="1"/>
      </contour>
      <contour>
        <pt x="246" y="659" on="0"/>
        <pt x="287" y="708" on="0"/>
        <pt x="372" y="708" on="0"/>
        <pt x="401" y="686" on="0"/>
        <pt x="401" y="660" on="1"/>
        <pt x="401" y="601" on="0"/>
        <pt x="360" y="552" on="0"/>
        <pt x="275" y="552" on="0"/>
        <pt x="246" y="574" on="0"/>
        <pt x="246" y="600" on="1"/>
      </contour>
      <contour>
        <pt x="38" y="659" on="0"/>
        <pt x="79" y="708" on="0"/>
        <pt x="164" y="708" on="0"/>
        <pt x="193" y="686" on="0"/>
        <pt x="193" y="660" on="1"/>
        <pt x="193" y="601" on="0"/>
        <pt x="151" y="552" on="0"/>
        <pt x="67" y="552" on="0"/>
        <pt x="38" y="574" on="0"/>
        <pt x="38" y="600" on="1"/>
      </contour>
    </TTGlyph>
    <TTGlyph name="igrave" xMin="11" yMin="0" xMax="353" yMax="739">
      <contour>
        <pt x="11" y="0" on="1"/>
        <pt x="94" y="475" on="1"/>
        <pt x="289" y="500" on="1"/>
        <pt x="201" y="0" on="1"/>
      </contour>
      <contour>
        <pt x="312" y="539" on="1"/>
        <pt x="138" y="574" on="1"/>
        <pt x="122" y="577" on="0"/>
        <pt x="112" y="586" on="1"/>
        <pt x="67" y="625" on="1"/>
        <pt x="63" y="631" on="0"/>
        <pt x="63" y="644" on="0"/>
        <pt x="72" y="654" on="1"/>
        <pt x="135" y="728" on="1"/>
        <pt x="144" y="739" on="0"/>
        <pt x="158" y="739" on="0"/>
        <pt x="164" y="735" on="1"/>
        <pt x="353" y="596" on="1"/>
      </contour>
    </TTGlyph>
    <TTGlyph name="infinity" xMin="51" yMin="-15" xMax="833" yMax="515">
      <contour>
        <pt x="539" y="-15" on="1"/>
        <pt x="495" y="-15" on="0"/>
        <pt x="437" y="6" on="0"/>
        <pt x="427" y="17" on="1"/>
        <pt x="449" y="79" on="1"/>
        <pt x="437" y="84" on="1"/>
        <pt x="391" y="30" on="0"/>
        <pt x="307" y="-15" on="0"/>
        <pt x="253" y="-15" on="1"/>
        <pt x="149" y="-15" on="0"/>
        <pt x="51" y="74" on="0"/>
        <pt x="51" y="164" on="1"/>
        <pt x="51" y="304" on="0"/>
        <pt x="116" y="404" on="1"/>
        <pt x="149" y="455" on="0"/>
        <pt x="264" y="515" on="0"/>
        <pt x="386" y="515" on="0"/>
        <pt x="446" y="494" on="0"/>
        <pt x="456" y="483" on="1"/>
        <pt x="433" y="421" on="1"/>
        <pt x="446" y="416" on="1"/>
        <pt x="494" y="470" on="0"/>
        <pt x="582" y="515" on="0"/>
        <pt x="638" y="515" on="1"/>
        <pt x="739" y="515" on="0"/>
        <pt x="833" y="426" on="0"/>
        <pt x="833" y="267" on="0"/>
        <pt x="800" y="146" on="0"/>
        <pt x="733" y="44" on="0"/>
        <pt x="616" y="-15" on="0"/>
      </contour>
      <contour>
        <pt x="632" y="193" on="1"/>
        <pt x="659" y="349" on="1"/>
        <pt x="626" y="349" on="0"/>
        <pt x="583" y="332" on="0"/>
        <pt x="570" y="307" on="1"/>
        <pt x="489" y="151" on="1"/>
        <pt x="558" y="151" on="1"/>
        <pt x="592" y="151" on="0"/>
        <pt x="627" y="166" on="0"/>
      </contour>
      <contour>
        <pt x="254" y="307" on="1"/>
        <pt x="226" y="151" on="1"/>
        <pt x="260" y="151" on="0"/>
        <pt x="303" y="167" on="0"/>
        <pt x="316" y="193" on="1"/>
        <pt x="396" y="349" on="1"/>
        <pt x="326" y="349" on="1"/>
        <pt x="292" y="349" on="0"/>
        <pt x="259" y="334" on="0"/>
      </contour>
    </TTGlyph>
    <TTGlyph name="integral" xMin="-90" yMin="-158" xMax="426" yMax="632">
      <contour>
        <pt x="297" y="429" on="1"/>
        <pt x="189" y="-41" on="1"/>
        <pt x="181" y="-78" on="0"/>
        <pt x="116" y="-128" on="0"/>
        <pt x="70" y="-139" on="1"/>
        <pt x="-8" y="-158" on="0"/>
        <pt x="-90" y="-158" on="1"/>
        <pt x="-76" y="-41" on="1"/>
        <pt x="-6" y="-26" on="0"/>
        <pt x="33" y="7" on="0"/>
        <pt x="42" y="45" on="1"/>
        <pt x="149" y="515" on="1"/>
        <pt x="157" y="552" on="0"/>
        <pt x="220" y="602" on="0"/>
        <pt x="265" y="613" on="1"/>
        <pt x="343" y="632" on="0"/>
        <pt x="426" y="632" on="1"/>
        <pt x="411" y="515" on="1"/>
        <pt x="343" y="500" on="0"/>
        <pt x="305" y="467" on="0"/>
      </contour>
    </TTGlyph>
    <TTGlyph name="j" xMin="-113" yMin="-165" xMax="320" yMax="675">
      <contour>
        <pt x="-113" y="-165" on="1"/>
        <pt x="-90" y="-35" on="1"/>
        <pt x="-38" y="-25" on="1"/>
        <pt x="-16" y="-21" on="0"/>
        <pt x="10" y="-4" on="0"/>
        <pt x="13" y="15" on="1"/>
        <pt x="94" y="475" on="1"/>
        <pt x="289" y="500" on="1"/>
        <pt x="201" y="0" on="1"/>
        <pt x="187" y="-80" on="0"/>
        <pt x="95" y="-165" on="0"/>
        <pt x="24" y="-165" on="1"/>
      </contour>
      <contour>
        <pt x="102" y="567" on="1"/>
        <pt x="102" y="625" on="0"/>
        <pt x="163" y="675" on="0"/>
        <pt x="279" y="675" on="0"/>
        <pt x="320" y="650" on="0"/>
        <pt x="320" y="621" on="1"/>
        <pt x="320" y="562" on="0"/>
        <pt x="267" y="515" on="0"/>
        <pt x="144" y="515" on="0"/>
        <pt x="102" y="538" on="0"/>
      </contour>
    </TTGlyph>
    <TTGlyph name="k" xMin="19" yMin="0" xMax="578" yMax="665">
      <contour>
        <pt x="289" y="0" on="1"/>
        <pt x="250" y="198" on="1"/>
        <pt x="243" y="198" on="1"/>
        <pt x="209" y="0" on="1"/>
        <pt x="19" y="0" on="1"/>
        <pt x="133" y="650" on="1"/>
        <pt x="326" y="665" on="1"/>
        <pt x="268" y="335" on="1"/>
        <pt x="275" y="335" on="1"/>
        <pt x="373" y="500" on="1"/>
        <pt x="578" y="500" on="1"/>
        <pt x="426" y="262" on="1"/>
        <pt x="494" y="0" on="1"/>
      </contour>
    </TTGlyph>
    <TTGlyph name="l" xMin="26" yMin="-11" xMax="319" yMax="665">
      <contour>
        <pt x="319" y="665" on="1"/>
        <pt x="227" y="143" on="1"/>
        <pt x="256" y="137" on="0"/>
        <pt x="272" y="136" on="1"/>
        <pt x="238" y="-11" on="1"/>
        <pt x="106" y="-11" on="0"/>
        <pt x="67" y="8" on="1"/>
        <pt x="50" y="17" on="0"/>
        <pt x="26" y="50" on="0"/>
        <pt x="26" y="78" on="0"/>
        <pt x="28" y="94" on="1"/>
        <pt x="126" y="650" on="1"/>
      </contour>
    </TTGlyph>
    <TTGlyph name="less" xMin="96" yMin="67" xMax="537" yMax="557">
      <contour>
        <pt x="497" y="557" on="1"/>
        <pt x="537" y="423" on="1"/>
        <pt x="250" y="315" on="1"/>
        <pt x="249" y="308" on="1"/>
        <pt x="488" y="201" on="1"/>
        <pt x="400" y="67" on="1"/>
        <pt x="96" y="221" on="1"/>
        <pt x="128" y="403" on="1"/>
      </contour>
    </TTGlyph>
    <TTGlyph name="lessequal" xMin="31" yMin="0" xMax="536" yMax="647">
      <contour>
        <pt x="31" y="0" on="1"/>
        <pt x="56" y="144" on="1"/>
        <pt x="489" y="144" on="1"/>
        <pt x="464" y="0" on="1"/>
      </contour>
      <contour>
        <pt x="496" y="647" on="1"/>
        <pt x="536" y="513" on="1"/>
        <pt x="249" y="405" on="1"/>
        <pt x="248" y="398" on="1"/>
        <pt x="487" y="291" on="1"/>
        <pt x="399" y="157" on="1"/>
        <pt x="95" y="311" on="1"/>
        <pt x="127" y="493" on="1"/>
      </contour>
    </TTGlyph>
    <TTGlyph name="logicalnot" xMin="72" yMin="100" xMax="530" yMax="384">
      <contour>
        <pt x="72" y="240" on="1"/>
        <pt x="97" y="384" on="1"/>
        <pt x="530" y="384" on="1"/>
        <pt x="480" y="100" on="1"/>
        <pt x="352" y="100" on="1"/>
        <pt x="377" y="240" on="1"/>
      </contour>
    </TTGlyph>
    <TTGlyph name="lozenge" xMin="53" yMin="-150" xMax="622" yMax="625">
      <contour>
        <pt x="366" y="-150" on="1"/>
        <pt x="174" y="-150" on="1"/>
        <pt x="53" y="237" on="1"/>
        <pt x="311" y="625" on="1"/>
        <pt x="503" y="625" on="1"/>
        <pt x="622" y="237" on="1"/>
      </contour>
      <contour>
        <pt x="235" y="238" on="1"/>
        <pt x="297" y="40" on="1"/>
        <pt x="311" y="40" on="1"/>
        <pt x="439" y="236" on="1"/>
        <pt x="379" y="431" on="1"/>
        <pt x="365" y="431" on="1"/>
      </contour>
    </TTGlyph>
    <TTGlyph name="lslash" xMin="-25" yMin="-11" xMax="359" yMax="665">
      <contour>
        <pt x="319" y="665" on="1"/>
        <pt x="281" y="451" on="1"/>
        <pt x="327" y="466" on="1"/>
        <pt x="359" y="365" on="0"/>
        <pt x="359" y="354" on="1"/>
        <pt x="359" y="334" on="0"/>
        <pt x="309" y="318" on="1"/>
        <pt x="254" y="300" on="1"/>
        <pt x="227" y="143" on="1"/>
        <pt x="256" y="137" on="0"/>
        <pt x="272" y="136" on="1"/>
        <pt x="238" y="-11" on="1"/>
        <pt x="106" y="-11" on="0"/>
        <pt x="67" y="8" on="1"/>
        <pt x="50" y="17" on="0"/>
        <pt x="26" y="50" on="0"/>
        <pt x="26" y="78" on="0"/>
        <pt x="28" y="94" on="1"/>
        <pt x="53" y="234" on="1"/>
        <pt x="8" y="220" on="1"/>
        <pt x="-25" y="321" on="0"/>
        <pt x="-25" y="328" on="1"/>
        <pt x="-25" y="351" on="0"/>
        <pt x="25" y="367" on="1"/>
        <pt x="79" y="385" on="1"/>
        <pt x="126" y="650" on="1"/>
      </contour>
    </TTGlyph>
    <TTGlyph name="m" xMin="19" yMin="0" xMax="833" yMax="515">
      <contour>
        <pt x="356" y="350" on="1"/>
        <pt x="343" y="350" on="1"/>
        <pt x="321" y="350" on="0"/>
        <pt x="294" y="346" on="0"/>
        <pt x="266" y="325" on="0"/>
        <pt x="262" y="304" on="1"/>
        <pt x="209" y="0" on="1"/>
        <pt x="19" y="0" on="1"/>
        <pt x="107" y="500" on="1"/>
        <pt x="202" y="500" on="1"/>
        <pt x="237" y="454" on="1"/>
        <pt x="268" y="482" on="0"/>
        <pt x="364" y="515" on="0"/>
        <pt x="414" y="515" on="1"/>
        <pt x="503" y="515" on="0"/>
        <pt x="538" y="474" on="1"/>
        <pt x="602" y="515" on="0"/>
        <pt x="680" y="515" on="1"/>
        <pt x="833" y="515" on="0"/>
        <pt x="833" y="421" on="1"/>
        <pt x="833" y="414" on="0"/>
        <pt x="831" y="400" on="1"/>
        <pt x="761" y="0" on="1"/>
        <pt x="571" y="0" on="1"/>
        <pt x="632" y="350" on="1"/>
        <pt x="619" y="350" on="1"/>
        <pt x="546" y="350" on="0"/>
        <pt x="539" y="310" on="1"/>
        <pt x="485" y="0" on="1"/>
        <pt x="295" y="0" on="1"/>
      </contour>
    </TTGlyph>
    <TTGlyph name="macron" xMin="53" yMin="568" xMax="346" yMax="695">
      <contour>
        <pt x="331" y="568" on="1"/>
        <pt x="97" y="568" on="1"/>
        <pt x="72" y="568" on="0"/>
        <pt x="53" y="582" on="0"/>
        <pt x="53" y="613" on="0"/>
        <pt x="57" y="632" on="1"/>
        <pt x="68" y="695" on="1"/>
        <pt x="303" y="695" on="1"/>
        <pt x="328" y="695" on="0"/>
        <pt x="346" y="683" on="0"/>
        <pt x="346" y="660" on="0"/>
        <pt x="342" y="632" on="1"/>
      </contour>
    </TTGlyph>
    <TTGlyph name="minus" xMin="71" yMin="240" xMax="529" yMax="384">
      <contour>
        <pt x="71" y="240" on="1"/>
        <pt x="96" y="384" on="1"/>
        <pt x="529" y="384" on="1"/>
        <pt x="504" y="240" on="1"/>
      </contour>
    </TTGlyph>
    <TTGlyph name="mu" xMin="-20" yMin="-165" xMax="575" yMax="515">
      <contour>
        <pt x="288" y="500" on="1"/>
        <pt x="223" y="131" on="1"/>
        <pt x="252" y="131" on="1"/>
        <pt x="286" y="131" on="0"/>
        <pt x="320" y="146" on="0"/>
        <pt x="325" y="173" on="1"/>
        <pt x="383" y="500" on="1"/>
        <pt x="575" y="515" on="1"/>
        <pt x="485" y="0" on="1"/>
        <pt x="390" y="0" on="1"/>
        <pt x="356" y="43" on="1"/>
        <pt x="313" y="0" on="0"/>
        <pt x="232" y="0" on="1"/>
        <pt x="164" y="0" on="1"/>
        <pt x="103" y="-165" on="1"/>
        <pt x="-20" y="-165" on="1"/>
        <pt x="98" y="500" on="1"/>
      </contour>
    </TTGlyph>
    <TTGlyph name="multiply" xMin="50" yMin="75" xMax="547" yMax="549">
      <contour>
        <pt x="129" y="75" on="1"/>
        <pt x="50" y="177" on="1"/>
        <pt x="202" y="312" on="1"/>
        <pt x="97" y="447" on="1"/>
        <pt x="212" y="549" on="1"/>
        <pt x="316" y="414" on="1"/>
        <pt x="468" y="549" on="1"/>
        <pt x="547" y="447" on="1"/>
        <pt x="396" y="312" on="1"/>
        <pt x="500" y="177" on="1"/>
        <pt x="385" y="75" on="1"/>
        <pt x="281" y="210" on="1"/>
      </contour>
    </TTGlyph>
    <TTGlyph name="n" xMin="19" yMin="0" xMax="566" yMax="515">
      <contour>
        <pt x="202" y="500" on="1"/>
        <pt x="241" y="450" on="1"/>
        <pt x="339" y="515" on="0"/>
        <pt x="442" y="515" on="1"/>
        <pt x="501" y="515" on="0"/>
        <pt x="566" y="467" on="0"/>
        <pt x="566" y="423" on="1"/>
        <pt x="566" y="416" on="0"/>
        <pt x="564" y="400" on="1"/>
        <pt x="494" y="0" on="1"/>
        <pt x="304" y="0" on="1"/>
        <pt x="365" y="350" on="1"/>
        <pt x="336" y="350" on="1"/>
        <pt x="304" y="350" on="0"/>
        <pt x="268" y="335" on="0"/>
        <pt x="264" y="312" on="1"/>
        <pt x="209" y="0" on="1"/>
        <pt x="19" y="0" on="1"/>
        <pt x="107" y="500" on="1"/>
      </contour>
    </TTGlyph>
    <TTGlyph name="nine" xMin="13" yMin="-15" xMax="567" yMax="640">
      <contour>
        <pt x="277" y="447" on="1"/>
        <pt x="265" y="376" on="1"/>
        <pt x="303" y="376" on="1"/>
        <pt x="335" y="376" on="0"/>
        <pt x="362" y="391" on="0"/>
        <pt x="367" y="418" on="1"/>
        <pt x="380" y="489" on="1"/>
        <pt x="341" y="489" on="1"/>
        <pt x="309" y="489" on="0"/>
        <pt x="281" y="474" on="0"/>
      </contour>
      <contour>
        <pt x="334" y="228" on="1"/>
        <pt x="286" y="228" on="1"/>
        <pt x="148" y="228" on="0"/>
        <pt x="62" y="297" on="0"/>
        <pt x="62" y="367" on="1"/>
        <pt x="62" y="503" on="0"/>
        <pt x="215" y="640" on="0"/>
        <pt x="358" y="640" on="1"/>
        <pt x="470" y="640" on="0"/>
        <pt x="567" y="545" on="0"/>
        <pt x="567" y="446" on="1"/>
        <pt x="567" y="391" on="0"/>
        <pt x="553" y="313" on="1"/>
        <pt x="522" y="141" on="0"/>
        <pt x="387" y="-15" on="0"/>
        <pt x="114" y="-15" on="0"/>
        <pt x="13" y="11" on="1"/>
        <pt x="70" y="176" on="1"/>
        <pt x="156" y="153" on="0"/>
        <pt x="276" y="153" on="0"/>
        <pt x="322" y="159" on="1"/>
      </contour>
    </TTGlyph>
    <TTGlyph name="notequal" xMin="50" yMin="-40" xMax="553" yMax="665">
      <contour>
        <pt x="553" y="665" on="1"/>
        <pt x="460" y="503" on="1"/>
        <pt x="550" y="503" on="1"/>
        <pt x="525" y="359" on="1"/>
        <pt x="378" y="359" on="1"/>
        <pt x="324" y="265" on="1"/>
        <pt x="508" y="265" on="1"/>
        <pt x="483" y="121" on="1"/>
        <pt x="242" y="121" on="1"/>
        <pt x="164" y="-15" on="1"/>
        <pt x="159" y="-25" on="0"/>
        <pt x="155" y="-29" on="1"/>
        <pt x="144" y="-40" on="0"/>
        <pt x="121" y="-40" on="1"/>
        <pt x="50" y="-40" on="1"/>
        <pt x="142" y="121" on="1"/>
        <pt x="50" y="121" on="1"/>
        <pt x="75" y="265" on="1"/>
        <pt x="224" y="265" on="1"/>
        <pt x="278" y="359" on="1"/>
        <pt x="92" y="359" on="1"/>
        <pt x="117" y="503" on="1"/>
        <pt x="360" y="503" on="1"/>
        <pt x="439" y="640" on="1"/>
        <pt x="444" y="650" on="0"/>
        <pt x="448" y="654" on="1"/>
        <pt x="459" y="665" on="0"/>
        <pt x="482" y="665" on="1"/>
      </contour>
    </TTGlyph>
    <TTGlyph name="ntilde" xMin="19" yMin="0" xMax="566" yMax="721">
      <contour>
        <pt x="202" y="500" on="1"/>
        <pt x="241" y="450" on="1"/>
        <pt x="339" y="515" on="0"/>
        <pt x="442" y="515" on="1"/>
        <pt x="501" y="515" on="0"/>
        <pt x="566" y="467" on="0"/>
        <pt x="566" y="423" on="1"/>
        <pt x="566" y="416" on="0"/>
        <pt x="564" y="400" on="1"/>
        <pt x="494" y="0" on="1"/>
        <pt x="304" y="0" on="1"/>
        <pt x="365" y="350" on="1"/>
        <pt x="336" y="350" on="1"/>
        <pt x="304" y="350" on="0"/>
        <pt x="268" y="335" on="0"/>
        <pt x="264" y="312" on="1"/>
        <pt x="209" y="0" on="1"/>
        <pt x="19" y="0" on="1"/>
        <pt x="107" y="500" on="1"/>
      </contour>
      <contour>
        <pt x="436" y="676" on="1"/>
        <pt x="522" y="716" on="1"/>
        <pt x="555" y="635" on="1"/>
        <pt x="426" y="554" on="0"/>
        <pt x="397" y="543" on="0"/>
        <pt x="372" y="543" on="0"/>
        <pt x="356" y="547" on="0"/>
        <pt x="340" y="558" on="0"/>
        <pt x="335" y="562" on="1"/>
        <pt x="327" y="567" on="0"/>
        <pt x="306" y="588" on="1"/>
        <pt x="221" y="548" on="1"/>
        <pt x="187" y="629" on="1"/>
        <pt x="316" y="710" on="0"/>
        <pt x="345" y="721" on="0"/>
        <pt x="370" y="721" on="0"/>
        <pt x="386" y="717" on="0"/>
        <pt x="402" y="706" on="0"/>
        <pt x="407" y="702" on="1"/>
        <pt x="415" y="697" on="0"/>
      </contour>
    </TTGlyph>
    <TTGlyph name="numbersign" xMin="0" yMin="-40" xMax="746" yMax="665">
      <contour>
        <pt x="425" y="665" on="1"/>
        <pt x="349" y="474" on="1"/>
        <pt x="529" y="474" on="1"/>
        <pt x="595" y="640" on="1"/>
        <pt x="600" y="650" on="0"/>
        <pt x="604" y="654" on="1"/>
        <pt x="615" y="665" on="0"/>
        <pt x="638" y="665" on="1"/>
        <pt x="689" y="665" on="1"/>
        <pt x="613" y="474" on="1"/>
        <pt x="746" y="474" on="1"/>
        <pt x="728" y="426" on="1"/>
        <pt x="718" y="402" on="0"/>
        <pt x="706" y="398" on="1"/>
        <pt x="700" y="397" on="0"/>
        <pt x="689" y="395" on="1"/>
        <pt x="582" y="395" on="1"/>
        <pt x="516" y="228" on="1"/>
        <pt x="649" y="228" on="1"/>
        <pt x="631" y="181" on="1"/>
        <pt x="623" y="163" on="0"/>
        <pt x="607" y="152" on="0"/>
        <pt x="592" y="150" on="1"/>
        <pt x="485" y="150" on="1"/>
        <pt x="420" y="-15" on="1"/>
        <pt x="415" y="-25" on="0"/>
        <pt x="411" y="-29" on="1"/>
        <pt x="400" y="-40" on="0"/>
        <pt x="377" y="-40" on="1"/>
        <pt x="326" y="-40" on="1"/>
        <pt x="401" y="150" on="1"/>
        <pt x="221" y="150" on="1"/>
        <pt x="156" y="-15" on="1"/>
        <pt x="151" y="-25" on="0"/>
        <pt x="147" y="-29" on="1"/>
        <pt x="136" y="-40" on="0"/>
        <pt x="113" y="-40" on="1"/>
        <pt x="62" y="-40" on="1"/>
        <pt x="137" y="150" on="1"/>
        <pt x="0" y="150" on="1"/>
        <pt x="19" y="197" on="1"/>
        <pt x="26" y="215" on="0"/>
        <pt x="43" y="226" on="0"/>
        <pt x="58" y="228" on="1"/>
        <pt x="168" y="228" on="1"/>
        <pt x="234" y="395" on="1"/>
        <pt x="97" y="395" on="1"/>
        <pt x="116" y="443" on="1"/>
        <pt x="126" y="467" on="0"/>
        <pt x="138" y="470" on="1"/>
        <pt x="144" y="472" on="0"/>
        <pt x="155" y="474" on="1"/>
        <pt x="265" y="474" on="1"/>
        <pt x="331" y="640" on="1"/>
        <pt x="336" y="650" on="0"/>
        <pt x="340" y="654" on="1"/>
        <pt x="351" y="665" on="0"/>
        <pt x="374" y="665" on="1"/>
      </contour>
      <contour>
        <pt x="318" y="395" on="1"/>
        <pt x="252" y="228" on="1"/>
        <pt x="432" y="228" on="1"/>
        <pt x="498" y="395" on="1"/>
      </contour>
    </TTGlyph>
    <TTGlyph name="o" xMin="35" yMin="-15" xMax="555" yMax="515">
      <contour>
        <pt x="35" y="167" on="1"/>
        <pt x="35" y="317" on="0"/>
        <pt x="188" y="515" on="0"/>
        <pt x="341" y="515" on="1"/>
        <pt x="452" y="515" on="0"/>
        <pt x="555" y="424" on="0"/>
        <pt x="555" y="236" on="0"/>
        <pt x="494" y="84" on="0"/>
        <pt x="352" y="-15" on="0"/>
        <pt x="245" y="-15" on="1"/>
        <pt x="35" y="-15" on="0"/>
      </contour>
      <contour>
        <pt x="261" y="327" on="1"/>
        <pt x="227" y="131" on="1"/>
        <pt x="256" y="131" on="1"/>
        <pt x="290" y="131" on="0"/>
        <pt x="324" y="146" on="0"/>
        <pt x="329" y="173" on="1"/>
        <pt x="364" y="369" on="1"/>
        <pt x="334" y="369" on="1"/>
        <pt x="300" y="369" on="0"/>
        <pt x="266" y="354" on="0"/>
      </contour>
    </TTGlyph>
    <TTGlyph name="oacute" xMin="35" yMin="-15" xMax="555" yMax="739">
      <contour>
        <pt x="35" y="167" on="1"/>
        <pt x="35" y="317" on="0"/>
        <pt x="188" y="515" on="0"/>
        <pt x="341" y="515" on="1"/>
        <pt x="452" y="515" on="0"/>
        <pt x="555" y="424" on="0"/>
        <pt x="555" y="236" on="0"/>
        <pt x="494" y="84" on="0"/>
        <pt x="352" y="-15" on="0"/>
        <pt x="245" y="-15" on="1"/>
        <pt x="35" y="-15" on="0"/>
      </contour>
      <contour>
        <pt x="261" y="327" on="1"/>
        <pt x="227" y="131" on="1"/>
        <pt x="256" y="131" on="1"/>
        <pt x="290" y="131" on="0"/>
        <pt x="324" y="146" on="0"/>
        <pt x="329" y="173" on="1"/>
        <pt x="364" y="369" on="1"/>
        <pt x="334" y="369" on="1"/>
        <pt x="300" y="369" on="0"/>
        <pt x="266" y="354" on="0"/>
      </contour>
      <contour>
        <pt x="434" y="574" on="1"/>
        <pt x="260" y="539" on="1"/>
        <pt x="219" y="596" on="1"/>
        <pt x="408" y="735" on="1"/>
        <pt x="414" y="739" on="0"/>
        <pt x="428" y="739" on="0"/>
        <pt x="437" y="728" on="1"/>
        <pt x="500" y="654" on="1"/>
        <pt x="509" y="644" on="0"/>
        <pt x="509" y="631" on="0"/>
        <pt x="504" y="624" on="0"/>
        <pt x="460" y="586" on="1"/>
        <pt x="450" y="577" on="0"/>
      </contour>
    </TTGlyph>
    <TTGlyph name="ocircumflex" xMin="35" yMin="-15" xMax="555" yMax="740">
      <contour>
        <pt x="35" y="167" on="1"/>
        <pt x="35" y="317" on="0"/>
        <pt x="188" y="515" on="0"/>
        <pt x="341" y="515" on="1"/>
        <pt x="452" y="515" on="0"/>
        <pt x="555" y="424" on="0"/>
        <pt x="555" y="236" on="0"/>
        <pt x="494" y="84" on="0"/>
        <pt x="352" y="-15" on="0"/>
        <pt x="245" y="-15" on="1"/>
        <pt x="35" y="-15" on="0"/>
      </contour>
      <contour>
        <pt x="261" y="327" on="1"/>
        <pt x="227" y="131" on="1"/>
        <pt x="256" y="131" on="1"/>
        <pt x="290" y="131" on="0"/>
        <pt x="324" y="146" on="0"/>
        <pt x="329" y="173" on="1"/>
        <pt x="364" y="369" on="1"/>
        <pt x="334" y="369" on="1"/>
        <pt x="300" y="369" on="0"/>
        <pt x="266" y="354" on="0"/>
      </contour>
      <contour>
        <pt x="369" y="740" on="1"/>
        <pt x="414" y="740" on="1"/>
        <pt x="422" y="740" on="0"/>
        <pt x="427" y="731" on="1"/>
        <pt x="510" y="586" on="1"/>
        <pt x="444" y="537" on="1"/>
        <pt x="366" y="600" on="1"/>
        <pt x="267" y="537" on="1"/>
        <pt x="219" y="586" on="1"/>
        <pt x="351" y="731" on="1"/>
        <pt x="358" y="740" on="0"/>
      </contour>
    </TTGlyph>
    <TTGlyph name="odieresis" xMin="35" yMin="-15" xMax="555" yMax="708">
      <contour>
        <pt x="35" y="167" on="1"/>
        <pt x="35" y="317" on="0"/>
        <pt x="188" y="515" on="0"/>
        <pt x="341" y="515" on="1"/>
        <pt x="452" y="515" on="0"/>
        <pt x="555" y="424" on="0"/>
        <pt x="555" y="236" on="0"/>
        <pt x="494" y="84" on="0"/>
        <pt x="352" y="-15" on="0"/>
        <pt x="245" y="-15" on="1"/>
        <pt x="35" y="-15" on="0"/>
      </contour>
      <contour>
        <pt x="261" y="327" on="1"/>
        <pt x="227" y="131" on="1"/>
        <pt x="256" y="131" on="1"/>
        <pt x="290" y="131" on="0"/>
        <pt x="324" y="146" on="0"/>
        <pt x="329" y="173" on="1"/>
        <pt x="364" y="369" on="1"/>
        <pt x="334" y="369" on="1"/>
        <pt x="300" y="369" on="0"/>
        <pt x="266" y="354" on="0"/>
      </contour>
      <contour>
        <pt x="389" y="659" on="0"/>
        <pt x="430" y="708" on="0"/>
        <pt x="515" y="708" on="0"/>
        <pt x="544" y="686" on="0"/>
        <pt x="544" y="660" on="1"/>
        <pt x="544" y="601" on="0"/>
        <pt x="503" y="552" on="0"/>
        <pt x="418" y="552" on="0"/>
        <pt x="389" y="574" on="0"/>
        <pt x="389" y="600" on="1"/>
      </contour>
      <contour>
        <pt x="181" y="659" on="0"/>
        <pt x="222" y="708" on="0"/>
        <pt x="307" y="708" on="0"/>
        <pt x="336" y="686" on="0"/>
        <pt x="336" y="660" on="1"/>
        <pt x="336" y="601" on="0"/>
        <pt x="294" y="552" on="0"/>
        <pt x="210" y="552" on="0"/>
        <pt x="181" y="574" on="0"/>
        <pt x="181" y="600" on="1"/>
      </contour>
    </TTGlyph>
    <TTGlyph name="oe" xMin="35" yMin="-15" xMax="851" yMax="515">
      <contour>
        <pt x="536" y="170" on="1"/>
        <pt x="530" y="135" on="1"/>
        <pt x="558" y="132" on="0"/>
        <pt x="587" y="132" on="1"/>
        <pt x="679" y="132" on="0"/>
        <pt x="770" y="162" on="1"/>
        <pt x="767" y="15" on="1"/>
        <pt x="656" y="-15" on="0"/>
        <pt x="455" y="-15" on="0"/>
        <pt x="402" y="21" on="1"/>
        <pt x="336" y="-15" on="0"/>
        <pt x="237" y="-15" on="1"/>
        <pt x="35" y="-15" on="0"/>
        <pt x="35" y="167" on="1"/>
        <pt x="35" y="317" on="0"/>
        <pt x="188" y="515" on="0"/>
        <pt x="341" y="515" on="1"/>
        <pt x="434" y="515" on="0"/>
        <pt x="487" y="481" on="1"/>
        <pt x="547" y="515" on="0"/>
        <pt x="628" y="515" on="1"/>
        <pt x="753" y="515" on="0"/>
        <pt x="851" y="462" on="0"/>
        <pt x="851" y="336" on="0"/>
        <pt x="820" y="256" on="0"/>
        <pt x="770" y="208" on="0"/>
        <pt x="728" y="194" on="1"/>
        <pt x="656" y="172" on="0"/>
      </contour>
      <contour>
        <pt x="261" y="327" on="1"/>
        <pt x="227" y="131" on="1"/>
        <pt x="256" y="131" on="1"/>
        <pt x="290" y="131" on="0"/>
        <pt x="324" y="146" on="0"/>
        <pt x="329" y="173" on="1"/>
        <pt x="364" y="369" on="1"/>
        <pt x="334" y="369" on="1"/>
        <pt x="300" y="369" on="0"/>
        <pt x="266" y="354" on="0"/>
      </contour>
      <contour>
        <pt x="564" y="327" on="1"/>
        <pt x="557" y="286" on="1"/>
        <pt x="596" y="286" on="1"/>
        <pt x="629" y="286" on="0"/>
        <pt x="663" y="301" on="0"/>
        <pt x="668" y="328" on="1"/>
        <pt x="676" y="369" on="1"/>
        <pt x="637" y="369" on="1"/>
        <pt x="603" y="369" on="0"/>
        <pt x="569" y="354" on="0"/>
      </contour>
    </TTGlyph>
    <TTGlyph name="ogonek" xMin="141" yMin="-165" xMax="342" yMax="21">
      <contour>
        <pt x="311" y="21" on="1"/>
        <pt x="326" y="0" on="1"/>
        <pt x="270" y="-26" on="1"/>
        <pt x="268" y="-40" on="0"/>
        <pt x="268" y="-46" on="1"/>
        <pt x="268" y="-58" on="0"/>
        <pt x="295" y="-58" on="1"/>
        <pt x="342" y="-58" on="1"/>
        <pt x="337" y="-146" on="1"/>
        <pt x="288" y="-165" on="0"/>
        <pt x="188" y="-165" on="0"/>
        <pt x="141" y="-126" on="0"/>
        <pt x="141" y="-61" on="0"/>
        <pt x="191" y="1" on="0"/>
        <pt x="235" y="21" on="1"/>
      </contour>
    </TTGlyph>
    <TTGlyph name="ograve" xMin="35" yMin="-15" xMax="555" yMax="739">
      <contour>
        <pt x="35" y="167" on="1"/>
        <pt x="35" y="317" on="0"/>
        <pt x="188" y="515" on="0"/>
        <pt x="341" y="515" on="1"/>
        <pt x="452" y="515" on="0"/>
        <pt x="555" y="424" on="0"/>
        <pt x="555" y="236" on="0"/>
        <pt x="494" y="84" on="0"/>
        <pt x="352" y="-15" on="0"/>
        <pt x="245" y="-15" on="1"/>
        <pt x="35" y="-15" on="0"/>
      </contour>
      <contour>
        <pt x="261" y="327" on="1"/>
        <pt x="227" y="131" on="1"/>
        <pt x="256" y="131" on="1"/>
        <pt x="290" y="131" on="0"/>
        <pt x="324" y="146" on="0"/>
        <pt x="329" y="173" on="1"/>
        <pt x="364" y="369" on="1"/>
        <pt x="334" y="369" on="1"/>
        <pt x="300" y="369" on="0"/>
        <pt x="266" y="354" on="0"/>
      </contour>
      <contour>
        <pt x="468" y="539" on="1"/>
        <pt x="294" y="574" on="1"/>
        <pt x="278" y="577" on="0"/>
        <pt x="268" y="586" on="1"/>
        <pt x="223" y="625" on="1"/>
        <pt x="219" y="631" on="0"/>
        <pt x="219" y="644" on="0"/>
        <pt x="228" y="654" on="1"/>
        <pt x="291" y="728" on="1"/>
        <pt x="300" y="739" on="0"/>
        <pt x="314" y="739" on="0"/>
        <pt x="320" y="735" on="1"/>
        <pt x="509" y="596" on="1"/>
      </contour>
    </TTGlyph>
    <TTGlyph name="one" xMin="26" yMin="0" xMax="529" yMax="625">
      <contour>
        <pt x="501" y="0" on="1"/>
        <pt x="26" y="0" on="1"/>
        <pt x="54" y="160" on="1"/>
        <pt x="223" y="160" on="1"/>
        <pt x="269" y="425" on="1"/>
        <pt x="98" y="413" on="1"/>
        <pt x="127" y="573" on="1"/>
        <pt x="354" y="625" on="1"/>
        <pt x="504" y="625" on="1"/>
        <pt x="422" y="160" on="1"/>
        <pt x="529" y="160" on="1"/>
      </contour>
    </TTGlyph>
    <TTGlyph name="onehalf" xMin="43" yMin="-40" xMax="932" yMax="665">
      <contour>
        <pt x="659" y="665" on="1"/>
        <pt x="390" y="-15" on="1"/>
        <pt x="385" y="-25" on="0"/>
        <pt x="381" y="-29" on="1"/>
        <pt x="370" y="-40" on="0"/>
        <pt x="347" y="-40" on="1"/>
        <pt x="296" y="-40" on="1"/>
        <pt x="565" y="640" on="1"/>
        <pt x="570" y="650" on="0"/>
        <pt x="574" y="654" on="1"/>
        <pt x="585" y="665" on="0"/>
        <pt x="608" y="665" on="1"/>
      </contour>
      <contour>
        <pt x="641" y="273" on="1"/>
        <pt x="642" y="381" on="1"/>
        <pt x="710" y="398" on="0"/>
        <pt x="841" y="398" on="0"/>
        <pt x="893" y="388" on="0"/>
        <pt x="932" y="347" on="0"/>
        <pt x="932" y="309" on="1"/>
        <pt x="932" y="300" on="0"/>
        <pt x="928" y="270" on="1"/>
        <pt x="918" y="211" on="0"/>
        <pt x="850" y="163" on="0"/>
        <pt x="737" y="125" on="1"/>
        <pt x="733" y="105" on="1"/>
        <pt x="893" y="105" on="1"/>
        <pt x="875" y="0" on="1"/>
        <pt x="569" y="0" on="1"/>
        <pt x="583" y="82" on="1"/>
        <pt x="592" y="128" on="0"/>
        <pt x="619" y="160" on="0"/>
        <pt x="631" y="176" on="0"/>
        <pt x="670" y="197" on="0"/>
        <pt x="684" y="205" on="0"/>
        <pt x="740" y="229" on="0"/>
        <pt x="749" y="233" on="1"/>
        <pt x="789" y="251" on="1"/>
        <pt x="795" y="286" on="1"/>
        <pt x="774" y="288" on="0"/>
        <pt x="708" y="288" on="0"/>
      </contour>
      <contour>
        <pt x="322" y="227" on="1"/>
        <pt x="43" y="227" on="1"/>
        <pt x="61" y="332" on="1"/>
        <pt x="142" y="332" on="1"/>
        <pt x="168" y="480" on="1"/>
        <pt x="76" y="475" on="1"/>
        <pt x="96" y="584" on="1"/>
        <pt x="226" y="616" on="1"/>
        <pt x="325" y="616" on="1"/>
        <pt x="275" y="332" on="1"/>
        <pt x="340" y="332" on="1"/>
      </contour>
    </TTGlyph>
    <TTGlyph name="onequarter" xMin="63" yMin="-40" xMax="923" yMax="665">
      <contour>
        <pt x="689" y="665" on="1"/>
        <pt x="420" y="-15" on="1"/>
        <pt x="415" y="-25" on="0"/>
        <pt x="411" y="-29" on="1"/>
        <pt x="400" y="-40" on="0"/>
        <pt x="377" y="-40" on="1"/>
        <pt x="326" y="-40" on="1"/>
        <pt x="595" y="640" on="1"/>
        <pt x="600" y="650" on="0"/>
        <pt x="604" y="654" on="1"/>
        <pt x="615" y="665" on="0"/>
        <pt x="638" y="665" on="1"/>
      </contour>
      <contour>
        <pt x="728" y="0" on="1"/>
        <pt x="738" y="60" on="1"/>
        <pt x="563" y="60" on="1"/>
        <pt x="578" y="144" on="1"/>
        <pt x="710" y="389" on="1"/>
        <pt x="923" y="389" on="1"/>
        <pt x="883" y="160" on="1"/>
        <pt x="920" y="160" on="1"/>
        <pt x="902" y="60" on="1"/>
        <pt x="865" y="60" on="1"/>
        <pt x="855" y="0" on="1"/>
      </contour>
      <contour>
        <pt x="756" y="160" on="1"/>
        <pt x="780" y="295" on="1"/>
        <pt x="763" y="295" on="1"/>
        <pt x="696" y="160" on="1"/>
      </contour>
      <contour>
        <pt x="342" y="227" on="1"/>
        <pt x="63" y="227" on="1"/>
        <pt x="81" y="332" on="1"/>
        <pt x="162" y="332" on="1"/>
        <pt x="188" y="480" on="1"/>
        <pt x="96" y="475" on="1"/>
        <pt x="116" y="584" on="1"/>
        <pt x="246" y="616" on="1"/>
        <pt x="345" y="616" on="1"/>
        <pt x="295" y="332" on="1"/>
        <pt x="360" y="332" on="1"/>
      </contour>
    </TTGlyph>
    <TTGlyph name="onesuperior" xMin="37" yMin="343" xMax="334" yMax="732">
      <contour>
        <pt x="316" y="343" on="1"/>
        <pt x="37" y="343" on="1"/>
        <pt x="55" y="448" on="1"/>
        <pt x="136" y="448" on="1"/>
        <pt x="162" y="596" on="1"/>
        <pt x="70" y="591" on="1"/>
        <pt x="90" y="700" on="1"/>
        <pt x="220" y="732" on="1"/>
        <pt x="319" y="732" on="1"/>
        <pt x="269" y="448" on="1"/>
        <pt x="334" y="448" on="1"/>
      </contour>
    </TTGlyph>
    <TTGlyph name="ordfeminine" xMin="29" yMin="191" xMax="485" yMax="770">
      <contour>
        <pt x="29" y="191" on="1"/>
        <pt x="43" y="271" on="1"/>
        <pt x="46" y="291" on="0"/>
        <pt x="68" y="300" on="0"/>
        <pt x="94" y="300" on="1"/>
        <pt x="417" y="300" on="1"/>
        <pt x="404" y="222" on="1"/>
        <pt x="401" y="202" on="0"/>
        <pt x="377" y="191" on="0"/>
        <pt x="352" y="191" on="1"/>
      </contour>
      <contour>
        <pt x="485" y="738" on="1"/>
        <pt x="419" y="356" on="1"/>
        <pt x="342" y="356" on="1"/>
        <pt x="306" y="402" on="1"/>
        <pt x="254" y="344" on="0"/>
        <pt x="187" y="344" on="1"/>
        <pt x="53" y="344" on="0"/>
        <pt x="53" y="489" on="1"/>
        <pt x="53" y="604" on="0"/>
        <pt x="176" y="770" on="0"/>
        <pt x="285" y="770" on="1"/>
        <pt x="378" y="770" on="0"/>
      </contour>
      <contour>
        <pt x="235" y="619" on="1"/>
        <pt x="208" y="461" on="1"/>
        <pt x="231" y="461" on="1"/>
        <pt x="264" y="461" on="0"/>
        <pt x="287" y="477" on="0"/>
        <pt x="289" y="490" on="1"/>
        <pt x="318" y="653" on="1"/>
        <pt x="294" y="653" on="1"/>
        <pt x="267" y="653" on="0"/>
        <pt x="239" y="640" on="0"/>
      </contour>
    </TTGlyph>
    <TTGlyph name="ordmasculine" xMin="29" yMin="191" xMax="480" yMax="770">
      <contour>
        <pt x="62" y="490" on="1"/>
        <pt x="62" y="611" on="0"/>
        <pt x="185" y="770" on="0"/>
        <pt x="308" y="770" on="1"/>
        <pt x="397" y="770" on="0"/>
        <pt x="480" y="697" on="0"/>
        <pt x="480" y="623" on="1"/>
        <pt x="480" y="503" on="0"/>
        <pt x="356" y="344" on="0"/>
        <pt x="233" y="344" on="1"/>
        <pt x="144" y="344" on="0"/>
        <pt x="62" y="417" on="0"/>
      </contour>
      <contour>
        <pt x="244" y="619" on="1"/>
        <pt x="216" y="461" on="1"/>
        <pt x="240" y="461" on="1"/>
        <pt x="267" y="461" on="0"/>
        <pt x="295" y="474" on="0"/>
        <pt x="298" y="495" on="1"/>
        <pt x="326" y="653" on="1"/>
        <pt x="302" y="653" on="1"/>
        <pt x="275" y="653" on="0"/>
        <pt x="247" y="640" on="0"/>
      </contour>
      <contour>
        <pt x="29" y="191" on="1"/>
        <pt x="43" y="271" on="1"/>
        <pt x="46" y="291" on="0"/>
        <pt x="68" y="300" on="0"/>
        <pt x="94" y="300" on="1"/>
        <pt x="417" y="300" on="1"/>
        <pt x="404" y="222" on="1"/>
        <pt x="401" y="202" on="0"/>
        <pt x="377" y="191" on="0"/>
        <pt x="352" y="191" on="1"/>
      </contour>
    </TTGlyph>
    <TTGlyph name="oslash" xMin="35" yMin="-104" xMax="555" yMax="601">
      <contour>
        <pt x="35" y="167" on="1"/>
        <pt x="35" y="317" on="0"/>
        <pt x="188" y="515" on="0"/>
        <pt x="341" y="515" on="1"/>
        <pt x="371" y="515" on="0"/>
        <pt x="395" y="512" on="1"/>
        <pt x="432" y="576" on="1"/>
        <pt x="437" y="586" on="0"/>
        <pt x="441" y="590" on="1"/>
        <pt x="452" y="601" on="0"/>
        <pt x="475" y="601" on="1"/>
        <pt x="546" y="601" on="1"/>
        <pt x="480" y="486" on="1"/>
        <pt x="555" y="442" on="0"/>
        <pt x="555" y="236" on="0"/>
        <pt x="494" y="84" on="0"/>
        <pt x="352" y="-15" on="0"/>
        <pt x="248" y="-15" on="1"/>
        <pt x="219" y="-15" on="0"/>
        <pt x="195" y="-12" on="1"/>
        <pt x="157" y="-79" on="1"/>
        <pt x="152" y="-89" on="0"/>
        <pt x="148" y="-93" on="1"/>
        <pt x="137" y="-104" on="0"/>
        <pt x="114" y="-104" on="1"/>
        <pt x="43" y="-104" on="1"/>
        <pt x="110" y="13" on="1"/>
        <pt x="35" y="55" on="0"/>
      </contour>
      <contour>
        <pt x="261" y="327" on="1"/>
        <pt x="236" y="181" on="1"/>
        <pt x="343" y="369" on="1"/>
        <pt x="334" y="369" on="1"/>
        <pt x="300" y="369" on="0"/>
        <pt x="266" y="354" on="0"/>
      </contour>
      <contour>
        <pt x="248" y="131" on="1"/>
        <pt x="256" y="131" on="1"/>
        <pt x="290" y="131" on="0"/>
        <pt x="324" y="146" on="0"/>
        <pt x="329" y="173" on="1"/>
        <pt x="355" y="317" on="1"/>
      </contour>
    </TTGlyph>
    <TTGlyph name="otilde" xMin="35" yMin="-15" xMax="555" yMax="721">
      <contour>
        <pt x="35" y="167" on="1"/>
        <pt x="35" y="317" on="0"/>
        <pt x="188" y="515" on="0"/>
        <pt x="341" y="515" on="1"/>
        <pt x="452" y="515" on="0"/>
        <pt x="555" y="424" on="0"/>
        <pt x="555" y="236" on="0"/>
        <pt x="494" y="84" on="0"/>
        <pt x="352" y="-15" on="0"/>
        <pt x="245" y="-15" on="1"/>
        <pt x="35" y="-15" on="0"/>
      </contour>
      <contour>
        <pt x="261" y="327" on="1"/>
        <pt x="227" y="131" on="1"/>
        <pt x="256" y="131" on="1"/>
        <pt x="290" y="131" on="0"/>
        <pt x="324" y="146" on="0"/>
        <pt x="329" y="173" on="1"/>
        <pt x="364" y="369" on="1"/>
        <pt x="334" y="369" on="1"/>
        <pt x="300" y="369" on="0"/>
        <pt x="266" y="354" on="0"/>
      </contour>
      <contour>
        <pt x="428" y="676" on="1"/>
        <pt x="514" y="716" on="1"/>
        <pt x="547" y="635" on="1"/>
        <pt x="418" y="554" on="0"/>
        <pt x="389" y="543" on="0"/>
        <pt x="364" y="543" on="0"/>
        <pt x="348" y="547" on="0"/>
        <pt x="332" y="558" on="0"/>
        <pt x="327" y="562" on="1"/>
        <pt x="319" y="567" on="0"/>
        <pt x="298" y="588" on="1"/>
        <pt x="213" y="548" on="1"/>
        <pt x="179" y="629" on="1"/>
        <pt x="308" y="710" on="0"/>
        <pt x="337" y="721" on="0"/>
        <pt x="362" y="721" on="0"/>
        <pt x="378" y="717" on="0"/>
        <pt x="394" y="706" on="0"/>
        <pt x="399" y="702" on="1"/>
        <pt x="407" y="697" on="0"/>
      </contour>
    </TTGlyph>
    <TTGlyph name="p" xMin="-10" yMin="-165" xMax="561" yMax="515">
      <contour>
        <pt x="108" y="500" on="1"/>
        <pt x="203" y="500" on="1"/>
        <pt x="230" y="450" on="1"/>
        <pt x="281" y="515" on="0"/>
        <pt x="395" y="515" on="1"/>
        <pt x="561" y="515" on="0"/>
        <pt x="561" y="331" on="1"/>
        <pt x="561" y="259" on="0"/>
        <pt x="521" y="131" on="0"/>
        <pt x="471" y="55" on="0"/>
        <pt x="379" y="0" on="0"/>
        <pt x="320" y="0" on="1"/>
        <pt x="210" y="0" on="1"/>
        <pt x="183" y="-150" on="1"/>
        <pt x="-10" y="-165" on="1"/>
      </contour>
      <contour>
        <pt x="268" y="332" on="1"/>
        <pt x="233" y="131" on="1"/>
        <pt x="263" y="131" on="1"/>
        <pt x="297" y="131" on="0"/>
        <pt x="330" y="146" on="0"/>
        <pt x="335" y="173" on="1"/>
        <pt x="370" y="369" on="1"/>
        <pt x="341" y="369" on="1"/>
        <pt x="300" y="369" on="0"/>
        <pt x="272" y="348" on="0"/>
      </contour>
    </TTGlyph>
    <TTGlyph name="paragraph" xMin="-5" yMin="-165" xMax="605" yMax="625">
      <contour>
        <pt x="234" y="0" on="1"/>
        <pt x="131" y="-25" on="1"/>
        <pt x="173" y="218" on="1"/>
        <pt x="54" y="236" on="0"/>
        <pt x="54" y="359" on="1"/>
        <pt x="54" y="468" on="0"/>
        <pt x="108" y="542" on="1"/>
        <pt x="136" y="581" on="0"/>
        <pt x="235" y="625" on="0"/>
        <pt x="302" y="625" on="1"/>
        <pt x="605" y="625" on="1"/>
        <pt x="576" y="465" on="1"/>
        <pt x="528" y="465" on="1"/>
        <pt x="446" y="0" on="1"/>
        <pt x="417" y="-165" on="0"/>
        <pt x="275" y="-165" on="1"/>
        <pt x="-5" y="-165" on="1"/>
        <pt x="4" y="-114" on="1"/>
        <pt x="206" y="-55" on="1"/>
        <pt x="253" y="-42" on="0"/>
        <pt x="258" y="-12" on="1"/>
        <pt x="343" y="465" on="1"/>
        <pt x="315" y="465" on="1"/>
      </contour>
    </TTGlyph>
    <TTGlyph name="parenleft" xMin="0" yMin="-66" xMax="320" yMax="690">
      <contour>
        <pt x="320" y="690" on="1"/>
        <pt x="304" y="543" on="1"/>
        <pt x="286" y="536" on="0"/>
        <pt x="261" y="517" on="0"/>
        <pt x="243" y="494" on="1"/>
        <pt x="207" y="449" on="0"/>
        <pt x="183" y="312" on="1"/>
        <pt x="170" y="238" on="0"/>
        <pt x="170" y="152" on="0"/>
        <pt x="189" y="102" on="0"/>
        <pt x="206" y="89" on="0"/>
        <pt x="222" y="81" on="1"/>
        <pt x="187" y="-66" on="1"/>
        <pt x="0" y="-40" on="0"/>
        <pt x="0" y="186" on="1"/>
        <pt x="0" y="242" on="0"/>
        <pt x="12" y="312" on="1"/>
        <pt x="75" y="658" on="0"/>
      </contour>
    </TTGlyph>
    <TTGlyph name="parenright" xMin="-15" yMin="-76" xMax="305" yMax="680">
      <contour>
        <pt x="82" y="533" on="1"/>
        <pt x="118" y="680" on="1"/>
        <pt x="305" y="654" on="0"/>
        <pt x="305" y="429" on="1"/>
        <pt x="305" y="378" on="0"/>
        <pt x="292" y="302" on="1"/>
        <pt x="232" y="-43" on="0"/>
        <pt x="-15" y="-76" on="1"/>
        <pt x="1" y="71" on="1"/>
        <pt x="16" y="77" on="0"/>
        <pt x="33" y="87" on="0"/>
        <pt x="64" y="118" on="0"/>
        <pt x="75" y="140" on="1"/>
        <pt x="102" y="196" on="0"/>
        <pt x="134" y="374" on="0"/>
        <pt x="134" y="459" on="0"/>
        <pt x="116" y="509" on="0"/>
        <pt x="97" y="526" on="0"/>
      </contour>
    </TTGlyph>
</ttFont>
